<svg width="50" height="53" viewBox="0 0 50 53" fill="#000000" xmlns="http://www.w3.org/2000/svg">
<path d="M25 1.5C37.9787 1.5 48.5 12.0213 48.5 25C48.5 37.9787 37.9787 48.5 25 48.5C12.0213 48.5 1.5 37.9787 1.5 25C1.5 12.0213 12.0213 1.5 25 1.5Z" fill="#0D0D0D" stroke="0D0D0D" stroke-width="3"/>
<path d="M22.4915 39V21.784H27.4835V39H22.4915ZM24.9875 19.384C24.0702 19.384 23.3235 19.1173 22.7475 18.584C22.1715 18.0507 21.8835 17.3893 21.8835 16.6C21.8835 15.8107 22.1715 15.1493 22.7475 14.616C23.3235 14.0827 24.0702 13.816 24.9875 13.816C25.9048 13.816 26.6515 14.072 27.2275 14.584C27.8035 15.0747 28.0915 15.7147 28.0915 16.504C28.0915 17.336 27.8035 18.0293 27.2275 18.584C26.6728 19.1173 25.9262 19.384 24.9875 19.384Z" fill="#FAFAFA"/>
</svg>
