<svg width="15000" height="15000" viewBox="0 0 15000 15000" fill="none" xmlns="http://www.w3.org/2000/svg">
<g clip-path="url(#clip0_26_2)">
<path d="M4285.71 15000V12857.1H6428.57L4285.71 15000ZM6428.57 4285.71L8571.43 6428.57H6428.57V6428.57L8571.43 6428.57L10714.3 8571.43H10714.3V8571.43H12857.1V8571.43H15000L12857.1 10714.3V10714.3H10714.3V12857.1L10714.3 15000L8571.43 12857.1V10714.3L6428.57 8571.43V8571.43L4285.71 6428.57V6428.57H2142.86L0 4285.71H4285.71V4285.71L4285.71 4285.71V2142.86L6428.57 0V4285.71ZM6428.57 10714.3H6428.57V12857.1H4285.71L4285.71 10714.3H0L2142.86 8571.43H4285.71V8571.43L6428.57 10714.3ZM10714.3 2142.86V4285.71H12857.1V4285.71L15000 6428.57H12857.1V6428.57H10714.3L8571.43 4285.71V0L10714.3 2142.86Z" fill="#F0F0F0"/>
</g>
<defs>
<clipPath id="clip0_26_2">
<rect width="15000" height="15000" fill="white"/>
</clipPath>
</defs>
</svg>
