<svg width="1021" height="143" viewBox="0 0 1021 143" fill="none" xmlns="http://www.w3.org/2000/svg">
<g clip-path="url(#clip0_6_528)">
<rect x="35.7228" y="45.9315" width="10.2067" height="10.2067" transform="rotate(90 35.7228 45.9315)" fill="#FAFAFA" stroke="#FAFAFA" stroke-width="10.2067"/>
<rect x="35.7228" y="86.7586" width="10.2067" height="10.2067" transform="rotate(90 35.7228 86.7586)" fill="#FAFAFA" stroke="#FAFAFA" stroke-width="10.2067"/>
<rect x="117.377" y="45.9315" width="10.2067" height="10.2067" transform="rotate(90 117.377 45.9315)" fill="#FAFAFA" stroke="#FAFAFA" stroke-width="10.2067"/>
<rect x="117.377" y="86.7586" width="10.2067" height="10.2067" transform="rotate(90 117.377 86.7586)" fill="#FAFAFA" stroke="#FAFAFA" stroke-width="10.2067"/>
<rect x="219.444" y="66.3455" width="10.2067" height="10.2067" transform="rotate(90 219.444 66.3455)" fill="#FAFAFA" stroke="#FAFAFA" stroke-width="10.2067"/>
<rect x="239.86" y="45.9315" width="10.2067" height="10.2067" transform="rotate(90 239.86 45.9315)" fill="#FAFAFA" stroke="#FAFAFA" stroke-width="10.2067"/>
<rect x="260.272" y="25.5184" width="10.2067" height="10.2067" transform="rotate(90 260.272 25.5184)" fill="#FAFAFA" stroke="#FAFAFA" stroke-width="10.2067"/>
<rect x="96.965" y="35.7248" width="10.2067" height="10.2067" transform="rotate(-180 96.965 35.7248)" fill="#FAFAFA" stroke="#FAFAFA" stroke-width="10.2067"/>
<rect x="56.1369" y="35.7248" width="10.2067" height="10.2067" transform="rotate(-180 56.1369 35.7248)" fill="#FAFAFA" stroke="#FAFAFA" stroke-width="10.2067"/>
<rect x="96.965" y="117.378" width="10.2067" height="10.2067" transform="rotate(-180 96.965 117.378)" fill="#FAFAFA" stroke="#FAFAFA" stroke-width="10.2067"/>
<rect x="199.031" y="137.792" width="10.2067" height="112.274" transform="rotate(-180 199.031 137.792)" fill="#FAFAFA" stroke="#FAFAFA" stroke-width="10.2067"/>
<rect x="239.86" y="5.10531" width="10.2067" height="30.6201" transform="rotate(90 239.86 5.10531)" fill="#FAFAFA" stroke="#FAFAFA" stroke-width="10.2067"/>
<rect x="56.1369" y="117.378" width="10.2067" height="10.2067" transform="rotate(-180 56.1369 117.378)" fill="#FAFAFA" stroke="#FAFAFA" stroke-width="10.2067"/>
<mask id="path-14-inside-1_6_528" fill="white">
<path d="M102.068 40.8281H81.6543L102.068 61.2416V40.8281Z"/>
</mask>
<path d="M102.068 40.8281H81.6543L102.068 61.2416V40.8281Z" fill="#FAFAFA"/>
<path d="M81.6543 40.8281V20.8281H33.37L67.5122 54.9703L81.6543 40.8281ZM102.068 40.8281H122.068V20.8281H102.068V40.8281ZM102.068 61.2416L87.9256 75.3837L122.068 109.526V61.2416H102.068ZM81.6543 40.8281V60.8281H102.068V40.8281V20.8281H81.6543V40.8281ZM102.068 40.8281H82.0677V61.2416H102.068H122.068V40.8281H102.068ZM81.6543 40.8281L67.5122 54.9703L87.9256 75.3837L102.068 61.2416L116.21 47.0994L95.7964 26.686L81.6543 40.8281Z" fill="#FAFAFA" mask="url(#path-14-inside-1_6_528)"/>
<mask id="path-16-inside-2_6_528" fill="white">
<path d="M20.4134 40.8281H0L20.4134 61.2416V40.8281Z"/>
</mask>
<path d="M20.4134 40.8281H0L20.4134 61.2416V40.8281Z" fill="#FAFAFA"/>
<path d="M0 40.8281V20.8281H-48.2843L-14.1421 54.9703L0 40.8281ZM20.4134 40.8281H40.4134V20.8281H20.4134V40.8281ZM20.4134 61.2416L6.27129 75.3837L40.4134 109.526V61.2416H20.4134ZM0 40.8281V60.8281H20.4134V40.8281V20.8281H0V40.8281ZM20.4134 40.8281H0.413429V61.2416H20.4134H40.4134V40.8281H20.4134ZM0 40.8281L-14.1421 54.9703L6.27129 75.3837L20.4134 61.2416L34.5556 47.0994L14.1421 26.686L0 40.8281Z" fill="#FAFAFA" mask="url(#path-16-inside-2_6_528)"/>
<mask id="path-18-inside-3_6_528" fill="white">
<path d="M102.068 122.481H81.6543L102.068 142.895V122.481Z"/>
</mask>
<path d="M102.068 122.481H81.6543L102.068 142.895V122.481Z" fill="#FAFAFA"/>
<path d="M81.6543 122.481V102.481H33.37L67.5122 136.624L81.6543 122.481ZM102.068 122.481H122.068V102.481H102.068V122.481ZM102.068 142.895L87.9256 157.037L122.068 191.179V142.895H102.068ZM81.6543 122.481V142.481H102.068V122.481V102.481H81.6543V122.481ZM102.068 122.481H82.0677V142.895H102.068H122.068V122.481H102.068ZM81.6543 122.481L67.5122 136.624L87.9256 157.037L102.068 142.895L116.21 128.753L95.7964 108.339L81.6543 122.481Z" fill="#FAFAFA" mask="url(#path-18-inside-3_6_528)"/>
<mask id="path-20-inside-4_6_528" fill="white">
<path d="M20.4141 102.069L20.4141 81.6553L0.000632347 102.069L20.4141 102.069Z"/>
</mask>
<path d="M20.4141 102.069L20.4141 81.6553L0.000632347 102.069L20.4141 102.069Z" fill="#FAFAFA"/>
<path d="M20.4141 81.6553L40.4141 81.6553L40.4141 33.371L6.27193 67.5131L20.4141 81.6553ZM20.4141 102.069L20.4141 122.069L40.4141 122.069L40.4141 102.069L20.4141 102.069ZM0.000632347 102.069L-14.1415 87.9266L-48.2836 122.069L0.000631473 122.069L0.000632347 102.069ZM20.4141 81.6553L0.414062 81.6553L0.414062 102.069L20.4141 102.069L40.4141 102.069L40.4141 81.6553L20.4141 81.6553ZM20.4141 102.069L20.4141 82.0687L0.000633222 82.0687L0.000632347 102.069L0.000631473 122.069L20.4141 122.069L20.4141 102.069ZM20.4141 81.6553L6.27193 67.5131L-14.1415 87.9266L0.000632347 102.069L14.1428 116.211L34.5562 95.7974L20.4141 81.6553Z" fill="#FAFAFA" mask="url(#path-20-inside-4_6_528)"/>
<mask id="path-22-inside-5_6_528" fill="white">
<path d="M61.2402 20.4134L61.2402 0L40.8268 20.4134L61.2402 20.4134Z"/>
</mask>
<path d="M61.2402 20.4134L61.2402 0L40.8268 20.4134L61.2402 20.4134Z" fill="#FAFAFA"/>
<path d="M61.2402 0L81.2402 8.74228e-07L81.2402 -48.2843L47.0981 -14.1421L61.2402 0ZM61.2402 20.4134L61.2402 40.4134L81.2402 40.4134L81.2402 20.4134L61.2402 20.4134ZM40.8268 20.4134L26.6847 6.27129L-7.45747 40.4134L40.8268 40.4134L40.8268 20.4134ZM61.2402 0L41.2402 -8.74228e-07L41.2402 20.4134L61.2402 20.4134L81.2402 20.4134L81.2402 8.74228e-07L61.2402 0ZM61.2402 20.4134L61.2402 0.413429L40.8268 0.413428L40.8268 20.4134L40.8268 40.4134L61.2402 40.4134L61.2402 20.4134ZM61.2402 0L47.0981 -14.1421L26.6847 6.27129L40.8268 20.4134L54.9689 34.5556L75.3824 14.1421L61.2402 0Z" fill="#FAFAFA" mask="url(#path-22-inside-5_6_528)"/>
<mask id="path-24-inside-6_6_528" fill="white">
<path d="M204.135 20.4154L204.135 0.00195312L183.721 20.4154L204.135 20.4154Z"/>
</mask>
<path d="M204.135 20.4154L204.135 0.00195312L183.721 20.4154L204.135 20.4154Z" fill="#FAFAFA"/>
<path d="M204.135 0.00195312L224.135 0.001954L224.135 -48.2823L189.993 -14.1402L204.135 0.00195312ZM204.135 20.4154L204.135 40.4154L224.135 40.4154L224.135 20.4154L204.135 20.4154ZM183.721 20.4154L169.579 6.27325L135.437 40.4154L183.721 40.4154L183.721 20.4154ZM204.135 0.00195312L184.135 0.00195225L184.135 20.4154L204.135 20.4154L224.135 20.4154L224.135 0.001954L204.135 0.00195312ZM204.135 20.4154L204.135 0.415382L183.721 0.415381L183.721 20.4154L183.721 40.4154L204.135 40.4154L204.135 20.4154ZM204.135 0.00195312L189.993 -14.1402L169.579 6.27325L183.721 20.4154L197.863 34.5575L218.277 14.1441L204.135 0.00195312Z" fill="#FAFAFA" mask="url(#path-24-inside-6_6_528)"/>
<mask id="path-26-inside-7_6_528" fill="white">
<path d="M244.962 20.415L265.375 20.415L244.962 0.00160802L244.962 20.415Z"/>
</mask>
<path d="M244.962 20.415L265.375 20.415L244.962 0.00160802L244.962 20.415Z" fill="#FAFAFA"/>
<path d="M265.375 20.415L265.375 40.415L313.659 40.415L279.517 6.2729L265.375 20.415ZM244.962 20.415L224.962 20.415L224.962 40.415L244.962 40.415L244.962 20.415ZM244.962 0.00160802L259.104 -14.1405L224.962 -48.2827L224.962 0.00160627L244.962 0.00160802ZM265.375 20.415L265.375 0.415039L244.962 0.415037L244.962 20.415L244.962 40.415L265.375 40.415L265.375 20.415ZM244.962 20.415L264.962 20.415L264.962 0.00160977L244.962 0.00160802L224.962 0.00160627L224.962 20.415L244.962 20.415ZM265.375 20.415L279.517 6.2729L259.104 -14.1405L244.962 0.00160802L230.819 14.1437L251.233 34.5572L265.375 20.415Z" fill="#FAFAFA" mask="url(#path-26-inside-7_6_528)"/>
<mask id="path-28-inside-8_6_528" fill="white">
<path d="M244.963 40.8288L244.963 61.2422L265.376 40.8288L244.963 40.8288Z"/>
</mask>
<path d="M244.963 40.8288L244.963 61.2422L265.376 40.8288L244.963 40.8288Z" fill="#FAFAFA"/>
<path d="M244.963 61.2422L224.963 61.2422L224.963 109.526L259.105 75.3843L244.963 61.2422ZM244.963 40.8288L244.963 20.8288L224.963 20.8288L224.963 40.8288L244.963 40.8288ZM265.376 40.8288L279.518 54.9709L313.661 20.8288L265.376 20.8288L265.376 40.8288ZM244.963 61.2422L264.963 61.2422L264.963 40.8288L244.963 40.8288L224.963 40.8288L224.963 61.2422L244.963 61.2422ZM244.963 40.8288L244.963 60.8288L265.376 60.8288L265.376 40.8288L265.376 20.8288L244.963 20.8288L244.963 40.8288ZM244.963 61.2422L259.105 75.3843L279.518 54.9709L265.376 40.8288L251.234 26.6866L230.821 47.1001L244.963 61.2422Z" fill="#FAFAFA" mask="url(#path-28-inside-8_6_528)"/>
<mask id="path-30-inside-9_6_528" fill="white">
<path d="M224.547 61.2418L224.547 81.6553L244.96 61.2418L224.547 61.2418Z"/>
</mask>
<path d="M224.547 61.2418L224.547 81.6553L244.96 61.2418L224.547 61.2418Z" fill="#FAFAFA"/>
<path d="M224.547 81.6553L204.547 81.6553L204.547 129.94L238.689 95.7974L224.547 81.6553ZM224.547 61.2418L224.547 41.2418L204.547 41.2418L204.547 61.2418L224.547 61.2418ZM244.96 61.2418L259.102 75.384L293.245 41.2418L244.96 41.2418L244.96 61.2418ZM224.547 81.6553L244.547 81.6553L244.547 61.2418L224.547 61.2418L204.547 61.2418L204.547 81.6553L224.547 81.6553ZM224.547 61.2418L224.547 81.2418L244.96 81.2418L244.96 61.2418L244.96 41.2418L224.547 41.2418L224.547 61.2418ZM224.547 81.6553L238.689 95.7974L259.102 75.384L244.96 61.2418L230.818 47.0997L210.405 67.5131L224.547 81.6553Z" fill="#FAFAFA" mask="url(#path-30-inside-9_6_528)"/>
<mask id="path-32-inside-10_6_528" fill="white">
<path d="M204.135 81.6549L204.135 102.068L224.548 81.6549L204.135 81.6549Z"/>
</mask>
<path d="M204.135 81.6549L204.135 102.068L224.548 81.6549L204.135 81.6549Z" fill="#FAFAFA"/>
<path d="M204.135 102.068L184.135 102.068L184.135 150.353L218.277 116.21L204.135 102.068ZM204.135 81.6549L204.135 61.6549L184.135 61.6549L184.135 81.6549L204.135 81.6549ZM224.548 81.6549L238.69 95.7971L272.832 61.6549L224.548 61.6549L224.548 81.6549ZM204.135 102.068L224.135 102.068L224.135 81.6549L204.135 81.6549L184.135 81.6549L184.135 102.068L204.135 102.068ZM204.135 81.6549L204.135 101.655L224.548 101.655L224.548 81.6549L224.548 61.6549L204.135 61.6549L204.135 81.6549ZM204.135 102.068L218.277 116.21L238.69 95.7971L224.548 81.6549L210.406 67.5128L189.993 87.9262L204.135 102.068Z" fill="#FAFAFA" mask="url(#path-32-inside-10_6_528)"/>
<mask id="path-34-inside-11_6_528" fill="white">
<path d="M224.547 61.2416L224.547 40.8281L204.133 61.2416L224.547 61.2416Z"/>
</mask>
<path d="M224.547 61.2416L224.547 40.8281L204.133 61.2416L224.547 61.2416Z" fill="#FAFAFA"/>
<path d="M224.547 40.8281L244.547 40.8281L244.547 -7.45615L210.405 26.686L224.547 40.8281ZM224.547 61.2416L224.547 81.2416L244.547 81.2416L244.547 61.2416L224.547 61.2416ZM204.133 61.2416L189.991 47.0994L155.849 81.2416L204.133 81.2416L204.133 61.2416ZM224.547 40.8281L204.547 40.8281L204.547 61.2416L224.547 61.2416L244.547 61.2416L244.547 40.8281L224.547 40.8281ZM224.547 61.2416L224.547 41.2416L204.133 41.2416L204.133 61.2416L204.133 81.2416L224.547 81.2416L224.547 61.2416ZM224.547 40.8281L210.405 26.686L189.991 47.0994L204.133 61.2416L218.276 75.3837L238.689 54.9703L224.547 40.8281Z" fill="#FAFAFA" mask="url(#path-34-inside-11_6_528)"/>
<mask id="path-36-inside-12_6_528" fill="white">
<path d="M244.963 40.8285L244.963 20.415L224.549 40.8285L244.963 40.8285Z"/>
</mask>
<path d="M244.963 40.8285L244.963 20.415L224.549 40.8285L244.963 40.8285Z" fill="#FAFAFA"/>
<path d="M244.963 20.415L264.963 20.415L264.963 -27.8692L230.821 6.27291L244.963 20.415ZM244.963 40.8285L244.963 60.8285L264.963 60.8285L264.963 40.8285L244.963 40.8285ZM224.549 40.8285L210.407 26.6863L176.265 60.8285L224.549 60.8285L224.549 40.8285ZM244.963 20.415L224.963 20.415L224.963 40.8285L244.963 40.8285L264.963 40.8285L264.963 20.415L244.963 20.415ZM244.963 40.8285L244.963 20.8285L224.549 20.8285L224.549 40.8285L224.549 60.8285L244.963 60.8285L244.963 40.8285ZM244.963 20.415L230.821 6.27291L210.407 26.6863L224.549 40.8285L238.692 54.9706L259.105 34.5572L244.963 20.415Z" fill="#FAFAFA" mask="url(#path-36-inside-12_6_528)"/>
<rect x="301.098" y="66.3455" width="10.2067" height="10.2067" transform="rotate(90 301.098 66.3455)" fill="#FAFAFA" stroke="#FAFAFA" stroke-width="10.2067"/>
<rect x="321.512" y="45.9315" width="10.2067" height="10.2067" transform="rotate(90 321.512 45.9315)" fill="#FAFAFA" stroke="#FAFAFA" stroke-width="10.2067"/>
<rect x="341.924" y="25.5184" width="10.2067" height="10.2067" transform="rotate(90 341.924 25.5184)" fill="#FAFAFA" stroke="#FAFAFA" stroke-width="10.2067"/>
<rect x="280.686" y="137.792" width="10.2067" height="112.274" transform="rotate(-180 280.686 137.792)" fill="#FAFAFA" stroke="#FAFAFA" stroke-width="10.2067"/>
<rect x="321.512" y="5.10531" width="10.2067" height="30.6201" transform="rotate(90 321.512 5.10531)" fill="#FAFAFA" stroke="#FAFAFA" stroke-width="10.2067"/>
<mask id="path-43-inside-13_6_528" fill="white">
<path d="M285.789 20.4154L285.789 0.00195312L265.376 20.4154L285.789 20.4154Z"/>
</mask>
<path d="M285.789 20.4154L285.789 0.00195312L265.376 20.4154L285.789 20.4154Z" fill="#FAFAFA"/>
<path d="M285.789 0.00195312L305.789 0.001954L305.789 -48.2823L271.647 -14.1402L285.789 0.00195312ZM285.789 20.4154L285.789 40.4154L305.789 40.4154L305.789 20.4154L285.789 20.4154ZM265.376 20.4154L251.233 6.27325L217.091 40.4154L265.376 40.4154L265.376 20.4154ZM285.789 0.00195312L265.789 0.00195225L265.789 20.4154L285.789 20.4154L305.789 20.4154L305.789 0.001954L285.789 0.00195312ZM285.789 20.4154L285.789 0.415382L265.376 0.415381L265.376 20.4154L265.376 40.4154L285.789 40.4154L285.789 20.4154ZM285.789 0.00195312L271.647 -14.1402L251.233 6.27325L265.376 20.4154L279.518 34.5575L299.931 14.1441L285.789 0.00195312Z" fill="#FAFAFA" mask="url(#path-43-inside-13_6_528)"/>
<mask id="path-45-inside-14_6_528" fill="white">
<path d="M326.614 20.415L347.027 20.415L326.614 0.00160802L326.614 20.415Z"/>
</mask>
<path d="M326.614 20.415L347.027 20.415L326.614 0.00160802L326.614 20.415Z" fill="#FAFAFA"/>
<path d="M347.027 20.415L347.027 40.415L395.312 40.415L361.169 6.2729L347.027 20.415ZM326.614 20.415L306.614 20.415L306.614 40.415L326.614 40.415L326.614 20.415ZM326.614 0.00160802L340.756 -14.1405L306.614 -48.2827L306.614 0.00160627L326.614 0.00160802ZM347.027 20.415L347.027 0.415039L326.614 0.415037L326.614 20.415L326.614 40.415L347.027 40.415L347.027 20.415ZM326.614 20.415L346.614 20.415L346.614 0.00160977L326.614 0.00160802L306.614 0.00160627L306.614 20.415L326.614 20.415ZM347.027 20.415L361.169 6.2729L340.756 -14.1405L326.614 0.00160802L312.472 14.1437L332.885 34.5572L347.027 20.415Z" fill="#FAFAFA" mask="url(#path-45-inside-14_6_528)"/>
<mask id="path-47-inside-15_6_528" fill="white">
<path d="M326.615 40.8288L326.615 61.2422L347.029 40.8288L326.615 40.8288Z"/>
</mask>
<path d="M326.615 40.8288L326.615 61.2422L347.029 40.8288L326.615 40.8288Z" fill="#FAFAFA"/>
<path d="M326.615 61.2422L306.615 61.2422L306.615 109.526L340.757 75.3843L326.615 61.2422ZM326.615 40.8288L326.615 20.8288L306.615 20.8288L306.615 40.8288L326.615 40.8288ZM347.029 40.8288L361.171 54.9709L395.313 20.8288L347.029 20.8288L347.029 40.8288ZM326.615 61.2422L346.615 61.2422L346.615 40.8288L326.615 40.8288L306.615 40.8288L306.615 61.2422L326.615 61.2422ZM326.615 40.8288L326.615 60.8288L347.029 60.8288L347.029 40.8288L347.029 20.8288L326.615 20.8288L326.615 40.8288ZM326.615 61.2422L340.757 75.3843L361.171 54.9709L347.029 40.8288L332.887 26.6866L312.473 47.1001L326.615 61.2422Z" fill="#FAFAFA" mask="url(#path-47-inside-15_6_528)"/>
<mask id="path-49-inside-16_6_528" fill="white">
<path d="M306.201 61.2418L306.201 81.6553L326.615 61.2418L306.201 61.2418Z"/>
</mask>
<path d="M306.201 61.2418L306.201 81.6553L326.615 61.2418L306.201 61.2418Z" fill="#FAFAFA"/>
<path d="M306.201 81.6553L286.201 81.6553L286.201 129.94L320.343 95.7974L306.201 81.6553ZM306.201 61.2418L306.201 41.2418L286.201 41.2418L286.201 61.2418L306.201 61.2418ZM326.615 61.2418L340.757 75.384L374.899 41.2418L326.615 41.2418L326.615 61.2418ZM306.201 81.6553L326.201 81.6553L326.201 61.2418L306.201 61.2418L286.201 61.2418L286.201 81.6553L306.201 81.6553ZM306.201 61.2418L306.201 81.2418L326.615 81.2418L326.615 61.2418L326.615 41.2418L306.201 41.2418L306.201 61.2418ZM306.201 81.6553L320.343 95.7974L340.757 75.384L326.615 61.2418L312.472 47.0997L292.059 67.5131L306.201 81.6553Z" fill="#FAFAFA" mask="url(#path-49-inside-16_6_528)"/>
<mask id="path-51-inside-17_6_528" fill="white">
<path d="M285.789 81.6549L285.789 102.068L306.202 81.6549L285.789 81.6549Z"/>
</mask>
<path d="M285.789 81.6549L285.789 102.068L306.202 81.6549L285.789 81.6549Z" fill="#FAFAFA"/>
<path d="M285.789 102.068L265.789 102.068L265.789 150.353L299.931 116.21L285.789 102.068ZM285.789 81.6549L285.789 61.6549L265.789 61.6549L265.789 81.6549L285.789 81.6549ZM306.202 81.6549L320.345 95.7971L354.487 61.6549L306.202 61.6549L306.202 81.6549ZM285.789 102.068L305.789 102.068L305.789 81.6549L285.789 81.6549L265.789 81.6549L265.789 102.068L285.789 102.068ZM285.789 81.6549L285.789 101.655L306.202 101.655L306.202 81.6549L306.202 61.6549L285.789 61.6549L285.789 81.6549ZM285.789 102.068L299.931 116.21L320.345 95.7971L306.202 81.6549L292.06 67.5128L271.647 87.9262L285.789 102.068Z" fill="#FAFAFA" mask="url(#path-51-inside-17_6_528)"/>
<mask id="path-53-inside-18_6_528" fill="white">
<path d="M306.201 61.2416L306.201 40.8281L285.788 61.2416L306.201 61.2416Z"/>
</mask>
<path d="M306.201 61.2416L306.201 40.8281L285.788 61.2416L306.201 61.2416Z" fill="#FAFAFA"/>
<path d="M306.201 40.8281L326.201 40.8281L326.201 -7.45615L292.059 26.686L306.201 40.8281ZM306.201 61.2416L306.201 81.2416L326.201 81.2416L326.201 61.2416L306.201 61.2416ZM285.788 61.2416L271.646 47.0994L237.503 81.2416L285.788 81.2416L285.788 61.2416ZM306.201 40.8281L286.201 40.8281L286.201 61.2416L306.201 61.2416L326.201 61.2416L326.201 40.8281L306.201 40.8281ZM306.201 61.2416L306.201 41.2416L285.788 41.2416L285.788 61.2416L285.788 81.2416L306.201 81.2416L306.201 61.2416ZM306.201 40.8281L292.059 26.686L271.646 47.0994L285.788 61.2416L299.93 75.3837L320.343 54.9703L306.201 40.8281Z" fill="#FAFAFA" mask="url(#path-53-inside-18_6_528)"/>
<rect x="321.512" y="96.965" width="10.2067" height="10.2067" transform="rotate(-180 321.512 96.965)" fill="#FAFAFA" stroke="#FAFAFA" stroke-width="10.2067"/>
<rect x="341.924" y="117.378" width="10.2067" height="10.2067" transform="rotate(-180 341.924 117.378)" fill="#FAFAFA" stroke="#FAFAFA" stroke-width="10.2067"/>
<rect x="362.338" y="137.792" width="10.2067" height="112.274" transform="rotate(-180 362.338 137.792)" fill="#FAFAFA" stroke="#FAFAFA" stroke-width="10.2067"/>
<rect x="372.545" y="137.792" width="10.2067" height="30.6201" transform="rotate(-90 372.545 137.792)" fill="#FAFAFA" stroke="#FAFAFA" stroke-width="10.2067"/>
<rect x="372.545" y="15.3117" width="10.2067" height="30.6201" transform="rotate(-90 372.545 15.3117)" fill="#FAFAFA" stroke="#FAFAFA" stroke-width="10.2067"/>
<rect x="515.439" y="137.792" width="10.2067" height="30.6201" transform="rotate(-90 515.439 137.792)" fill="#FAFAFA" stroke="#FAFAFA" stroke-width="10.2067"/>
<rect x="515.439" y="15.3117" width="10.2067" height="30.6201" transform="rotate(-90 515.439 15.3117)" fill="#FAFAFA" stroke="#FAFAFA" stroke-width="10.2067"/>
<rect x="5.10336" y="5.10336" width="10.2067" height="10.2067" transform="matrix(-4.37114e-08 1 1 4.37114e-08 510.336 81.6553)" fill="#FAFAFA" stroke="#FAFAFA" stroke-width="10.2067"/>
<rect x="5.10336" y="5.10336" width="10.2067" height="10.2067" transform="matrix(-4.37114e-08 1 1 4.37114e-08 530.75 61.2422)" fill="#FAFAFA" stroke="#FAFAFA" stroke-width="10.2067"/>
<rect x="413.371" y="25.5184" width="10.2067" height="91.8604" fill="#FAFAFA" stroke="#FAFAFA" stroke-width="10.2067"/>
<mask id="path-65-inside-19_6_528" fill="white">
<path d="M347.029 122.481L326.615 122.481L347.029 142.895L347.029 122.481Z"/>
</mask>
<path d="M347.029 122.481L326.615 122.481L347.029 142.895L347.029 122.481Z" fill="#FAFAFA"/>
<path d="M326.615 122.481L326.615 102.481L278.331 102.481L312.473 136.624L326.615 122.481ZM347.029 122.481L367.029 122.481L367.029 102.481L347.029 102.481L347.029 122.481ZM347.029 142.895L332.887 157.037L367.029 191.179L367.029 142.895L347.029 142.895ZM326.615 122.481L326.615 142.481L347.029 142.481L347.029 122.481L347.029 102.481L326.615 102.481L326.615 122.481ZM347.029 122.481L327.029 122.481L327.029 142.895L347.029 142.895L367.029 142.895L367.029 122.481L347.029 122.481ZM326.615 122.481L312.473 136.624L332.887 157.037L347.029 142.895L361.171 128.753L340.757 108.339L326.615 122.481Z" fill="#FAFAFA" mask="url(#path-65-inside-19_6_528)"/>
<mask id="path-67-inside-20_6_528" fill="white">
<path d="M408.268 122.482L408.268 142.896L428.681 122.482L408.268 122.482Z"/>
</mask>
<path d="M408.268 122.482L408.268 142.896L428.681 122.482L408.268 122.482Z" fill="#FAFAFA"/>
<path d="M408.268 142.896L388.268 142.896L388.268 191.18L422.41 157.038L408.268 142.896ZM408.268 122.482L408.268 102.482L388.268 102.482L388.268 122.482L408.268 122.482ZM428.681 122.482L442.823 136.624L476.965 102.482L428.681 102.482L428.681 122.482ZM408.268 142.896L428.268 142.896L428.268 122.482L408.268 122.482L388.268 122.482L388.268 142.896L408.268 142.896ZM408.268 122.482L408.268 142.482L428.681 142.482L428.681 122.482L428.681 102.482L408.268 102.482L408.268 122.482ZM408.268 142.896L422.41 157.038L442.823 136.624L428.681 122.482L414.539 108.34L394.125 128.753L408.268 142.896Z" fill="#FAFAFA" mask="url(#path-67-inside-20_6_528)"/>
<mask id="path-69-inside-21_6_528" fill="white">
<path d="M408.268 20.4144L408.268 0.000976562L428.681 20.4144L408.268 20.4144Z"/>
</mask>
<path d="M408.268 20.4144L408.268 0.000976562L428.681 20.4144L408.268 20.4144Z" fill="#FAFAFA"/>
<path d="M408.268 0.000976562L388.268 0.000977437L388.268 -48.2833L422.41 -14.1412L408.268 0.000976562ZM408.268 20.4144L408.268 40.4144L388.268 40.4144L388.268 20.4144L408.268 20.4144ZM428.681 20.4144L442.823 6.27227L476.965 40.4144L428.681 40.4144L428.681 20.4144ZM408.268 0.000976562L428.268 0.000975688L428.268 20.4144L408.268 20.4144L388.268 20.4144L388.268 0.000977437L408.268 0.000976562ZM408.268 20.4144L408.268 0.414406L428.681 0.414405L428.681 20.4144L428.681 40.4144L408.268 40.4144L408.268 20.4144ZM408.268 0.000976562L422.41 -14.1412L442.823 6.27227L428.681 20.4144L414.539 34.5565L394.125 14.1431L408.268 0.000976562Z" fill="#FAFAFA" mask="url(#path-69-inside-21_6_528)"/>
<mask id="path-71-inside-22_6_528" fill="white">
<path d="M408.268 122.482V102.068L387.854 122.482L408.268 122.482Z"/>
</mask>
<path d="M408.268 122.482V102.068L387.854 122.482L408.268 122.482Z" fill="#FAFAFA"/>
<path d="M408.268 102.068L428.268 102.068V53.7841L394.125 87.9262L408.268 102.068ZM408.268 122.482V142.482L428.268 142.482V122.482L408.268 122.482ZM387.854 122.482L373.712 108.34L339.57 142.482L387.854 142.482V122.482ZM408.268 102.068L388.268 102.068V122.482L408.268 122.482L428.268 122.482V102.068L408.268 102.068ZM408.268 122.482V102.482L387.854 102.482V122.482V142.482L408.268 142.482V122.482ZM408.268 102.068L394.125 87.9262L373.712 108.34L387.854 122.482L401.996 136.624L422.41 116.21L408.268 102.068Z" fill="#FAFAFA" mask="url(#path-71-inside-22_6_528)"/>
<mask id="path-73-inside-23_6_528" fill="white">
<path d="M408.269 20.415H387.855L408.269 40.8285V20.415Z"/>
</mask>
<path d="M408.269 20.415H387.855L408.269 40.8285V20.415Z" fill="#FAFAFA"/>
<path d="M387.855 20.415V0.415039L339.571 0.415039L373.713 34.5572L387.855 20.415ZM408.269 20.415L428.269 20.415V0.415039L408.269 0.415039V20.415ZM408.269 40.8285L394.127 54.9706L428.269 89.1127V40.8285H408.269ZM387.855 20.415V40.415H408.269V20.415V0.415039H387.855V20.415ZM408.269 20.415H388.269V40.8285H408.269H428.269V20.415L408.269 20.415ZM387.855 20.415L373.713 34.5572L394.127 54.9706L408.269 40.8285L422.411 26.6863L401.998 6.2729L387.855 20.415Z" fill="#FAFAFA" mask="url(#path-73-inside-23_6_528)"/>
<mask id="path-75-inside-24_6_528" fill="white">
<path d="M530.75 81.6549L530.75 102.068L551.163 81.6549L530.75 81.6549Z"/>
</mask>
<path d="M530.75 81.6549L530.75 102.068L551.163 81.6549L530.75 81.6549Z" fill="#FAFAFA"/>
<path d="M530.75 102.068L510.75 102.068L510.75 150.353L544.892 116.21L530.75 102.068ZM530.75 81.6549L530.75 61.6549L510.75 61.6549L510.75 81.6549L530.75 81.6549ZM551.163 81.6549L565.306 95.7971L599.448 61.6549L551.163 61.6549L551.163 81.6549ZM530.75 102.068L550.75 102.068L550.75 81.6549L530.75 81.6549L510.75 81.6549L510.75 102.068L530.75 102.068ZM530.75 81.6549L530.75 101.655L551.163 101.655L551.163 81.6549L551.163 61.6549L530.75 61.6549L530.75 81.6549ZM530.75 102.068L544.892 116.21L565.306 95.7971L551.163 81.6549L537.021 67.5128L516.608 87.9262L530.75 102.068Z" fill="#FAFAFA" mask="url(#path-75-inside-24_6_528)"/>
<mask id="path-77-inside-25_6_528" fill="white">
<path d="M510.336 102.068L510.336 122.481L530.749 102.068L510.336 102.068Z"/>
</mask>
<path d="M510.336 102.068L510.336 122.481L530.749 102.068L510.336 102.068Z" fill="#FAFAFA"/>
<path d="M510.336 122.481L490.336 122.481L490.336 170.766L524.478 136.624L510.336 122.481ZM510.336 102.068L510.336 82.068L490.336 82.068L490.336 102.068L510.336 102.068ZM530.749 102.068L544.892 116.21L579.034 82.068L530.749 82.068L530.749 102.068ZM510.336 122.481L530.336 122.481L530.336 102.068L510.336 102.068L490.336 102.068L490.336 122.481L510.336 122.481ZM510.336 102.068L510.336 122.068L530.749 122.068L530.749 102.068L530.749 82.068L510.336 82.068L510.336 102.068ZM510.336 122.481L524.478 136.624L544.892 116.21L530.749 102.068L516.607 87.9259L496.194 108.339L510.336 122.481Z" fill="#FAFAFA" mask="url(#path-77-inside-25_6_528)"/>
<mask id="path-79-inside-26_6_528" fill="white">
<path d="M551.163 81.6553L571.576 81.6553L551.163 61.2418L551.163 81.6553Z"/>
</mask>
<path d="M551.163 81.6553L571.576 81.6553L551.163 61.2418L551.163 81.6553Z" fill="#FAFAFA"/>
<path d="M571.576 81.6553L571.576 101.655L619.86 101.655L585.718 67.5131L571.576 81.6553ZM551.163 81.6553L531.163 81.6553L531.163 101.655L551.163 101.655L551.163 81.6553ZM551.163 61.2418L565.305 47.0997L531.163 12.9576L531.163 61.2418L551.163 61.2418ZM571.576 81.6553L571.576 61.6553L551.163 61.6553L551.163 81.6553L551.163 101.655L571.576 101.655L571.576 81.6553ZM551.163 81.6553L571.163 81.6553L571.163 61.2418L551.163 61.2418L531.163 61.2418L531.163 81.6553L551.163 81.6553ZM571.576 81.6553L585.718 67.5131L565.305 47.0997L551.163 61.2418L537.021 75.384L557.434 95.7974L571.576 81.6553Z" fill="#FAFAFA" mask="url(#path-79-inside-26_6_528)"/>
<mask id="path-81-inside-27_6_528" fill="white">
<path d="M530.749 81.6553H510.336L530.749 61.2418V81.6553Z"/>
</mask>
<path d="M530.749 81.6553H510.336L530.749 61.2418V81.6553Z" fill="#FAFAFA"/>
<path d="M510.336 81.6553V101.655H462.052L496.194 67.5131L510.336 81.6553ZM530.749 81.6553H550.749V101.655H530.749V81.6553ZM530.749 61.2418L516.607 47.0997L550.749 12.9576V61.2418H530.749ZM510.336 81.6553V61.6553H530.749V81.6553V101.655H510.336V81.6553ZM530.749 81.6553H510.749V61.2418H530.749H550.749V81.6553H530.749ZM510.336 81.6553L496.194 67.5131L516.607 47.0997L530.749 61.2418L544.892 75.384L524.478 95.7974L510.336 81.6553Z" fill="#FAFAFA" mask="url(#path-81-inside-27_6_528)"/>
<mask id="path-83-inside-28_6_528" fill="white">
<path d="M510.337 20.415L530.75 20.415L510.337 40.8285L510.337 20.415Z"/>
</mask>
<path d="M510.337 20.415L530.75 20.415L510.337 40.8285L510.337 20.415Z" fill="#FAFAFA"/>
<path d="M530.75 20.415L530.75 0.415039L579.034 0.415035L544.892 34.5572L530.75 20.415ZM510.337 20.415L490.337 20.415L490.337 0.415043L510.337 0.415041L510.337 20.415ZM510.337 40.8285L524.479 54.9706L490.337 89.1127L490.337 40.8285L510.337 40.8285ZM530.75 20.415L530.75 40.415L510.337 40.415L510.337 20.415L510.337 0.415041L530.75 0.415039L530.75 20.415ZM510.337 20.415L530.337 20.415L530.337 40.8285L510.337 40.8285L490.337 40.8285L490.337 20.415L510.337 20.415ZM530.75 20.415L544.892 34.5572L524.479 54.9706L510.337 40.8285L496.194 26.6863L516.608 6.2729L530.75 20.415Z" fill="#FAFAFA" mask="url(#path-83-inside-28_6_528)"/>
<mask id="path-85-inside-29_6_528" fill="white">
<path d="M510.336 122.482L510.336 102.068L530.749 122.482L510.336 122.482Z"/>
</mask>
<path d="M510.336 122.482L510.336 102.068L530.749 122.482L510.336 122.482Z" fill="#FAFAFA"/>
<path d="M510.336 102.068L490.336 102.068L490.336 53.7841L524.478 87.9262L510.336 102.068ZM510.336 122.482L510.336 142.482L490.336 142.482L490.336 122.482L510.336 122.482ZM530.749 122.482L544.892 108.34L579.034 142.482L530.749 142.482L530.749 122.482ZM510.336 102.068L530.336 102.068L530.336 122.482L510.336 122.482L490.336 122.482L490.336 102.068L510.336 102.068ZM510.336 122.482L510.336 102.482L530.749 102.482L530.749 122.482L530.749 142.482L510.336 142.482L510.336 122.482ZM510.336 102.068L524.478 87.9262L544.892 108.34L530.749 122.482L516.607 136.624L496.194 116.21L510.336 102.068Z" fill="#FAFAFA" mask="url(#path-85-inside-29_6_528)"/>
<mask id="path-87-inside-30_6_528" fill="white">
<path d="M551.163 122.481L571.576 122.481L551.163 142.895L551.163 122.481Z"/>
</mask>
<path d="M551.163 122.481L571.576 122.481L551.163 142.895L551.163 122.481Z" fill="#FAFAFA"/>
<path d="M571.576 122.481L571.576 102.481L619.86 102.481L585.718 136.624L571.576 122.481ZM551.163 122.481L531.163 122.481L531.163 102.481L551.163 102.481L551.163 122.481ZM551.163 142.895L565.305 157.037L531.163 191.179L531.163 142.895L551.163 142.895ZM571.576 122.481L571.576 142.481L551.163 142.481L551.163 122.481L551.163 102.481L571.576 102.481L571.576 122.481ZM551.163 122.481L571.163 122.481L571.163 142.895L551.163 142.895L531.163 142.895L531.163 122.481L551.163 122.481ZM571.576 122.481L585.718 136.624L565.305 157.037L551.163 142.895L537.021 128.753L557.434 108.339L571.576 122.481Z" fill="#FAFAFA" mask="url(#path-87-inside-30_6_528)"/>
<mask id="path-89-inside-31_6_528" fill="white">
<path d="M551.162 20.4154V0.00195312L571.576 20.4154L551.162 20.4154Z"/>
</mask>
<path d="M551.162 20.4154V0.00195312L571.576 20.4154L551.162 20.4154Z" fill="#FAFAFA"/>
<path d="M551.162 0.00195312L531.162 0.00195336V-48.2823L565.304 -14.1402L551.162 0.00195312ZM551.162 20.4154V40.4154L531.162 40.4154V20.4154L551.162 20.4154ZM571.576 20.4154L585.718 6.27325L619.86 40.4154L571.576 40.4154V20.4154ZM551.162 0.00195312L571.162 0.00195289V20.4154L551.162 20.4154L531.162 20.4154V0.00195336L551.162 0.00195312ZM551.162 20.4154V0.415382L571.576 0.415382V20.4154V40.4154L551.162 40.4154V20.4154ZM551.162 0.00195312L565.304 -14.1402L585.718 6.27325L571.576 20.4154L557.433 34.5575L537.02 14.1441L551.162 0.00195312Z" fill="#FAFAFA" mask="url(#path-89-inside-31_6_528)"/>
<mask id="path-91-inside-32_6_528" fill="white">
<path d="M367.441 20.415L347.027 20.415L367.441 0.00160802L367.441 20.415Z"/>
</mask>
<path d="M367.441 20.415L347.027 20.415L367.441 0.00160802L367.441 20.415Z" fill="#FAFAFA"/>
<path d="M347.027 20.415L347.027 40.415L298.743 40.415L332.885 6.2729L347.027 20.415ZM367.441 20.415L387.441 20.415L387.441 40.415L367.441 40.415L367.441 20.415ZM367.441 0.00160802L353.299 -14.1405L387.441 -48.2827L387.441 0.00160627L367.441 0.00160802ZM347.027 20.415L347.027 0.415039L367.441 0.415037L367.441 20.415L367.441 40.415L347.027 40.415L347.027 20.415ZM367.441 20.415L347.441 20.415L347.441 0.00160977L367.441 0.00160802L387.441 0.00160627L387.441 20.415L367.441 20.415ZM347.027 20.415L332.885 6.2729L353.299 -14.1405L367.441 0.00160802L381.583 14.1437L361.169 34.5572L347.027 20.415Z" fill="#FAFAFA" mask="url(#path-91-inside-32_6_528)"/>
<mask id="path-93-inside-33_6_528" fill="white">
<path d="M367.441 20.4147L367.441 40.8281L387.855 20.4147L367.441 20.4147Z"/>
</mask>
<path d="M367.441 20.4147L367.441 40.8281L387.855 20.4147L367.441 20.4147Z" fill="#FAFAFA"/>
<path d="M367.441 40.8281L347.441 40.8281L347.441 89.1124L381.584 54.9703L367.441 40.8281ZM367.441 20.4147L367.441 0.414696L347.441 0.414697L347.441 20.4147L367.441 20.4147ZM387.855 20.4147L401.997 34.5568L436.139 0.414693L387.855 0.414695L387.855 20.4147ZM367.441 40.8281L387.441 40.8281L387.441 20.4147L367.441 20.4147L347.441 20.4147L347.441 40.8281L367.441 40.8281ZM367.441 20.4147L367.441 40.4147L387.855 40.4147L387.855 20.4147L387.855 0.414695L367.441 0.414696L367.441 20.4147ZM367.441 40.8281L381.584 54.9703L401.997 34.5568L387.855 20.4147L373.713 6.27256L353.299 26.686L367.441 40.8281Z" fill="#FAFAFA" mask="url(#path-93-inside-33_6_528)"/>
<rect x="433.787" y="137.792" width="10.2067" height="30.6201" transform="rotate(-90 433.787 137.792)" fill="#FAFAFA" stroke="#FAFAFA" stroke-width="10.2067"/>
<rect x="474.613" y="25.5174" width="10.2067" height="91.8604" fill="#FAFAFA" stroke="#FAFAFA" stroke-width="10.2067"/>
<mask id="path-97-inside-34_6_528" fill="white">
<path d="M469.51 122.482L469.51 142.896L489.923 122.482L469.51 122.482Z"/>
</mask>
<path d="M469.51 122.482L469.51 142.896L489.923 122.482L469.51 122.482Z" fill="#FAFAFA"/>
<path d="M469.51 142.896L449.51 142.896L449.51 191.18L483.652 157.038L469.51 142.896ZM469.51 122.482L469.51 102.482L449.51 102.482L449.51 122.482L469.51 122.482ZM489.923 122.482L504.065 136.624L538.207 102.482L489.923 102.482L489.923 122.482ZM469.51 142.896L489.51 142.896L489.51 122.482L469.51 122.482L449.51 122.482L449.51 142.896L469.51 142.896ZM469.51 122.482L469.51 142.482L489.923 142.482L489.923 122.482L489.923 102.482L469.51 102.482L469.51 122.482ZM469.51 142.896L483.652 157.038L504.065 136.624L489.923 122.482L475.781 108.34L455.368 128.753L469.51 142.896Z" fill="#FAFAFA" mask="url(#path-97-inside-34_6_528)"/>
<mask id="path-99-inside-35_6_528" fill="white">
<path d="M428.684 142.895V122.481L408.27 142.895L428.684 142.895Z"/>
</mask>
<path d="M428.684 142.895V122.481L408.27 142.895L428.684 142.895Z" fill="#FAFAFA"/>
<path d="M428.684 122.481L448.684 122.481V74.1972L414.541 108.339L428.684 122.481ZM428.684 142.895V162.895L448.684 162.895V142.895L428.684 142.895ZM408.27 142.895L394.128 128.753L359.986 162.895L408.27 162.895V142.895ZM428.684 122.481L408.684 122.481V142.895L428.684 142.895L448.684 142.895V122.481L428.684 122.481ZM428.684 142.895V122.895L408.27 122.895V142.895V162.895L428.684 162.895V142.895ZM428.684 122.481L414.541 108.339L394.128 128.753L408.27 142.895L422.412 157.037L442.826 136.624L428.684 122.481Z" fill="#FAFAFA" mask="url(#path-99-inside-35_6_528)"/>
<mask id="path-101-inside-36_6_528" fill="white">
<path d="M469.51 20.4144L469.51 0.000976562L489.923 20.4144L469.51 20.4144Z"/>
</mask>
<path d="M469.51 20.4144L469.51 0.000976562L489.923 20.4144L469.51 20.4144Z" fill="#FAFAFA"/>
<path d="M469.51 0.000976562L449.51 0.000977437L449.51 -48.2833L483.652 -14.1412L469.51 0.000976562ZM469.51 20.4144L469.51 40.4144L449.51 40.4144L449.51 20.4144L469.51 20.4144ZM489.923 20.4144L504.065 6.27227L538.207 40.4144L489.923 40.4144L489.923 20.4144ZM469.51 0.000976562L489.51 0.000975688L489.51 20.4144L469.51 20.4144L449.51 20.4144L449.51 0.000977437L469.51 0.000976562ZM469.51 20.4144L469.51 0.414406L489.923 0.414405L489.923 20.4144L489.923 40.4144L469.51 40.4144L469.51 20.4144ZM469.51 0.000976562L483.652 -14.1412L504.065 6.27227L489.923 20.4144L475.781 34.5565L455.368 14.1431L469.51 0.000976562Z" fill="#FAFAFA" mask="url(#path-101-inside-36_6_528)"/>
<rect x="699.16" y="25.5174" width="10.2067" height="91.8604" fill="#FAFAFA" stroke="#FAFAFA" stroke-width="10.2067"/>
<mask id="path-104-inside-37_6_528" fill="white">
<path d="M694.057 122.481L694.057 142.895L714.47 122.481L694.057 122.481Z"/>
</mask>
<path d="M694.057 122.481L694.057 142.895L714.47 122.481L694.057 122.481Z" fill="#FAFAFA"/>
<path d="M694.057 142.895L674.057 142.895L674.057 191.179L708.199 157.037L694.057 142.895ZM694.057 122.481L694.057 102.481L674.057 102.481L674.057 122.481L694.057 122.481ZM714.47 122.481L728.612 136.623L762.754 102.481L714.47 102.481L714.47 122.481ZM694.057 142.895L714.057 142.895L714.057 122.481L694.057 122.481L674.057 122.481L674.057 142.895L694.057 142.895ZM694.057 122.481L694.057 142.481L714.47 142.481L714.47 122.481L714.47 102.481L694.057 102.481L694.057 122.481ZM694.057 142.895L708.199 157.037L728.612 136.623L714.47 122.481L700.328 108.339L679.915 128.752L694.057 142.895Z" fill="#FAFAFA" mask="url(#path-104-inside-37_6_528)"/>
<rect x="678.746" y="15.3107" width="10.2067" height="51.0336" transform="rotate(-90 678.746 15.3107)" fill="#FAFAFA" stroke="#FAFAFA" stroke-width="10.2067"/>
<mask id="path-107-inside-38_6_528" fill="white">
<path d="M734.883 20.4141L755.297 20.4141L734.883 0.00063324V20.4141Z"/>
</mask>
<path d="M734.883 20.4141L755.297 20.4141L734.883 0.00063324V20.4141Z" fill="#FAFAFA"/>
<path d="M755.297 20.4141V40.4141L803.581 40.4141L769.439 6.27193L755.297 20.4141ZM734.883 20.4141L714.883 20.4141V40.4141L734.883 40.4141V20.4141ZM734.883 0.00063324L749.026 -14.1415L714.883 -48.2836L714.883 0.00063324L734.883 0.00063324ZM755.297 20.4141V0.414062L734.883 0.414063V20.4141V40.4141L755.297 40.4141V20.4141ZM734.883 20.4141L754.883 20.4141V0.00063324L734.883 0.00063324L714.883 0.00063324V20.4141L734.883 20.4141ZM755.297 20.4141L769.439 6.27193L749.026 -14.1415L734.883 0.00063324L720.741 14.1428L741.155 34.5562L755.297 20.4141Z" fill="#FAFAFA" mask="url(#path-107-inside-38_6_528)"/>
<mask id="path-109-inside-39_6_528" fill="white">
<path d="M714.471 20.4137V40.8271L734.884 20.4137L714.471 20.4137Z"/>
</mask>
<path d="M714.471 20.4137V40.8271L734.884 20.4137L714.471 20.4137Z" fill="#FAFAFA"/>
<path d="M714.471 40.8271L694.471 40.8271V89.1114L728.613 54.9693L714.471 40.8271ZM714.471 20.4137V0.413719L694.471 0.413719V20.4137L714.471 20.4137ZM734.884 20.4137L749.026 34.5559L783.168 0.41372L734.884 0.413719V20.4137ZM714.471 40.8271L734.471 40.8271V20.4137L714.471 20.4137L694.471 20.4137V40.8271L714.471 40.8271ZM714.471 20.4137V40.4137L734.884 40.4137V20.4137V0.413719L714.471 0.413719V20.4137ZM714.471 40.8271L728.613 54.9693L749.026 34.5559L734.884 20.4137L720.742 6.27158L700.329 26.685L714.471 40.8271Z" fill="#FAFAFA" mask="url(#path-109-inside-39_6_528)"/>
<mask id="path-111-inside-40_6_528" fill="white">
<path d="M694.056 20.4141H673.643L694.056 40.8275V20.4141Z"/>
</mask>
<path d="M694.056 20.4141H673.643L694.056 40.8275V20.4141Z" fill="#FAFAFA"/>
<path d="M673.643 20.4141V0.414062L625.358 0.414063L659.5 34.5562L673.643 20.4141ZM694.056 20.4141L714.056 20.4141V0.414062L694.056 0.414062V20.4141ZM694.056 40.8275L679.914 54.9696L714.056 89.1118V40.8275H694.056ZM673.643 20.4141V40.4141H694.056V20.4141V0.414062H673.643V20.4141ZM694.056 20.4141H674.056V40.8275H694.056H714.056V20.4141L694.056 20.4141ZM673.643 20.4141L659.5 34.5562L679.914 54.9696L694.056 40.8275L708.198 26.6854L687.785 6.27193L673.643 20.4141Z" fill="#FAFAFA" mask="url(#path-111-inside-40_6_528)"/>
<mask id="path-113-inside-41_6_528" fill="white">
<path d="M673.644 20.4141L653.23 20.4141L673.644 0.000631455L673.644 20.4141Z"/>
</mask>
<path d="M673.644 20.4141L653.23 20.4141L673.644 0.000631455L673.644 20.4141Z" fill="#FAFAFA"/>
<path d="M653.23 20.4141L653.23 40.4141L604.946 40.4141L639.088 6.27193L653.23 20.4141ZM673.644 20.4141L693.644 20.4141L693.644 40.4141L673.644 40.4141L673.644 20.4141ZM673.644 0.000631455L659.502 -14.1415L693.644 -48.2836L693.644 0.000629707L673.644 0.000631455ZM653.23 20.4141L653.23 0.414062L673.644 0.414061L673.644 20.4141L673.644 40.4141L653.23 40.4141L653.23 20.4141ZM673.644 20.4141L653.644 20.4141L653.644 0.000633204L673.644 0.000631455L693.644 0.000629707L693.644 20.4141L673.644 20.4141ZM653.23 20.4141L639.088 6.27193L659.502 -14.1415L673.644 0.000631455L687.786 14.1428L667.373 34.5562L653.23 20.4141Z" fill="#FAFAFA" mask="url(#path-113-inside-41_6_528)"/>
<rect x="505.233" y="117.378" width="10.2067" height="91.8604" transform="rotate(180 505.233 117.378)" fill="#FAFAFA" stroke="#FAFAFA" stroke-width="10.2067"/>
<mask id="path-116-inside-42_6_528" fill="white">
<path d="M510.336 122.482L510.336 142.896L489.923 122.482L510.336 122.482Z"/>
</mask>
<path d="M510.336 122.482L510.336 142.896L489.923 122.482L510.336 122.482Z" fill="#FAFAFA"/>
<path d="M510.336 142.896L530.336 142.896L530.336 191.18L496.194 157.038L510.336 142.896ZM510.336 122.482L510.336 102.482L530.336 102.482L530.336 122.482L510.336 122.482ZM489.923 122.482L475.78 136.624L441.638 102.482L489.923 102.482L489.923 122.482ZM510.336 142.896L490.336 142.896L490.336 122.482L510.336 122.482L530.336 122.482L530.336 142.896L510.336 142.896ZM510.336 122.482L510.336 142.482L489.923 142.482L489.923 122.482L489.923 102.482L510.336 102.482L510.336 122.482ZM510.336 142.896L496.194 157.038L475.78 136.624L489.923 122.482L504.065 108.34L524.478 128.753L510.336 142.896Z" fill="#FAFAFA" mask="url(#path-116-inside-42_6_528)"/>
<mask id="path-118-inside-43_6_528" fill="white">
<path d="M510.335 20.415L489.922 20.415L510.335 0.0016098V20.415Z"/>
</mask>
<path d="M510.335 20.415L489.922 20.415L510.335 0.0016098V20.415Z" fill="#FAFAFA"/>
<path d="M489.922 20.415V40.415L441.638 40.415L475.78 6.2729L489.922 20.415ZM510.335 20.415L530.335 20.415V40.415L510.335 40.415V20.415ZM510.335 0.0016098L496.193 -14.1405L530.335 -48.2827V0.0016098L510.335 0.0016098ZM489.922 20.415V0.415039L510.335 0.415039V20.415V40.415H489.922V20.415ZM510.335 20.415L490.335 20.415V0.0016098L510.335 0.0016098L530.335 0.0016098V20.415L510.335 20.415ZM489.922 20.415L475.78 6.2729L496.193 -14.1405L510.335 0.0016098L524.477 14.1437L504.064 34.5572L489.922 20.415Z" fill="#FAFAFA" mask="url(#path-118-inside-43_6_528)"/>
<rect x="882.881" y="137.791" width="10.2067" height="30.6201" transform="rotate(-90 882.881 137.791)" fill="#FAFAFA" stroke="#FAFAFA" stroke-width="10.2067"/>
<rect x="882.881" y="15.3097" width="10.2067" height="30.6201" transform="rotate(-90 882.881 15.3097)" fill="#FAFAFA" stroke="#FAFAFA" stroke-width="10.2067"/>
<rect x="5.10336" y="5.10336" width="10.2067" height="10.2067" transform="matrix(-4.37114e-08 1 1 4.37114e-08 877.777 81.6533)" fill="#FAFAFA" stroke="#FAFAFA" stroke-width="10.2067"/>
<rect x="5.10336" y="5.10336" width="10.2067" height="10.2067" transform="matrix(-4.37114e-08 1 1 4.37114e-08 898.191 61.2402)" fill="#FAFAFA" stroke="#FAFAFA" stroke-width="10.2067"/>
<rect x="5.10336" y="5.10336" width="10.2067" height="10.2067" transform="matrix(-4.37114e-08 1 1 4.37114e-08 979.846 40.8271)" fill="#FAFAFA" stroke="#FAFAFA" stroke-width="10.2067"/>
<rect x="5.10336" y="5.10336" width="10.2067" height="10.2067" transform="matrix(-4.37114e-08 1 1 4.37114e-08 1000.26 20.4131)" fill="#FAFAFA" stroke="#FAFAFA" stroke-width="10.2067"/>
<mask id="path-126-inside-44_6_528" fill="white">
<path d="M898.191 81.654L898.191 102.067L918.605 81.654L898.191 81.654Z"/>
</mask>
<path d="M898.191 81.654L898.191 102.067L918.605 81.654L898.191 81.654Z" fill="#FAFAFA"/>
<path d="M898.191 102.067L878.191 102.067L878.191 150.352L912.334 116.21L898.191 102.067ZM898.191 81.654L898.191 61.654L878.191 61.654L878.191 81.654L898.191 81.654ZM918.605 81.654L932.747 95.7961L966.889 61.654L918.605 61.654L918.605 81.654ZM898.191 102.067L918.191 102.067L918.191 81.654L898.191 81.654L878.191 81.654L878.191 102.067L898.191 102.067ZM898.191 81.654L898.191 101.654L918.605 101.654L918.605 81.654L918.605 61.654L898.191 61.654L898.191 81.654ZM898.191 102.067L912.334 116.21L932.747 95.7961L918.605 81.654L904.463 67.5118L884.049 87.9252L898.191 102.067Z" fill="#FAFAFA" mask="url(#path-126-inside-44_6_528)"/>
<mask id="path-128-inside-45_6_528" fill="white">
<path d="M877.777 102.068L877.777 122.481L898.191 102.068L877.777 102.068Z"/>
</mask>
<path d="M877.777 102.068L877.777 122.481L898.191 102.068L877.777 102.068Z" fill="#FAFAFA"/>
<path d="M877.777 122.481L857.777 122.481L857.777 170.766L891.919 136.624L877.777 122.481ZM877.777 102.068L877.777 82.068L857.777 82.068L857.777 102.068L877.777 102.068ZM898.191 102.068L912.333 116.21L946.475 82.068L898.191 82.068L898.191 102.068ZM877.777 122.481L897.777 122.481L897.777 102.068L877.777 102.068L857.777 102.068L857.777 122.481L877.777 122.481ZM877.777 102.068L877.777 122.068L898.191 122.068L898.191 102.068L898.191 82.068L877.777 82.068L877.777 102.068ZM877.777 122.481L891.919 136.624L912.333 116.21L898.191 102.068L884.049 87.9259L863.635 108.339L877.777 122.481Z" fill="#FAFAFA" mask="url(#path-128-inside-45_6_528)"/>
<mask id="path-130-inside-46_6_528" fill="white">
<path d="M918.604 81.6533L939.018 81.6533L918.604 61.2399L918.604 81.6533Z"/>
</mask>
<path d="M918.604 81.6533L939.018 81.6533L918.604 61.2399L918.604 81.6533Z" fill="#FAFAFA"/>
<path d="M939.018 81.6533L939.018 101.653L987.302 101.653L953.16 67.5112L939.018 81.6533ZM918.604 81.6533L898.604 81.6533L898.604 101.653L918.604 101.653L918.604 81.6533ZM918.604 61.2399L932.746 47.0978L898.604 12.9556L898.604 61.2399L918.604 61.2399ZM939.018 81.6533L939.018 61.6533L918.604 61.6533L918.604 81.6533L918.604 101.653L939.018 101.653L939.018 81.6533ZM918.604 81.6533L938.604 81.6533L938.604 61.2399L918.604 61.2399L898.604 61.2399L898.604 81.6533L918.604 81.6533ZM939.018 81.6533L953.16 67.5112L932.746 47.0978L918.604 61.2399L904.462 75.382L924.875 95.7955L939.018 81.6533Z" fill="#FAFAFA" mask="url(#path-130-inside-46_6_528)"/>
<mask id="path-132-inside-47_6_528" fill="white">
<path d="M898.191 81.6533H877.777L898.191 61.2399V81.6533Z"/>
</mask>
<path d="M898.191 81.6533H877.777L898.191 61.2399V81.6533Z" fill="#FAFAFA"/>
<path d="M877.777 81.6533V101.653H829.493L863.635 67.5112L877.777 81.6533ZM898.191 81.6533H918.191V101.653H898.191V81.6533ZM898.191 61.2399L884.049 47.0978L918.191 12.9556V61.2399H898.191ZM877.777 81.6533V61.6533H898.191V81.6533V101.653H877.777V81.6533ZM898.191 81.6533H878.191V61.2399H898.191H918.191V81.6533H898.191ZM877.777 81.6533L863.635 67.5112L884.049 47.0978L898.191 61.2399L912.333 75.382L891.919 95.7955L877.777 81.6533Z" fill="#FAFAFA" mask="url(#path-132-inside-47_6_528)"/>
<mask id="path-134-inside-48_6_528" fill="white">
<path d="M877.778 20.4131L898.191 20.4131L877.778 40.8265L877.778 20.4131Z"/>
</mask>
<path d="M877.778 20.4131L898.191 20.4131L877.778 40.8265L877.778 20.4131Z" fill="#FAFAFA"/>
<path d="M898.191 20.4131L898.191 0.413086L946.476 0.413082L912.334 34.5552L898.191 20.4131ZM877.778 20.4131L857.778 20.4131L857.778 0.413089L877.778 0.413088L877.778 20.4131ZM877.778 40.8265L891.92 54.9687L857.778 89.1108L857.778 40.8265L877.778 40.8265ZM898.191 20.4131L898.191 40.4131L877.778 40.4131L877.778 20.4131L877.778 0.413088L898.191 0.413086L898.191 20.4131ZM877.778 20.4131L897.778 20.4131L897.778 40.8265L877.778 40.8265L857.778 40.8265L857.778 20.4131L877.778 20.4131ZM898.191 20.4131L912.334 34.5552L891.92 54.9687L877.778 40.8265L863.636 26.6844L884.049 6.27095L898.191 20.4131Z" fill="#FAFAFA" mask="url(#path-134-inside-48_6_528)"/>
<mask id="path-136-inside-49_6_528" fill="white">
<path d="M877.777 122.481L877.777 102.067L898.191 122.481L877.777 122.481Z"/>
</mask>
<path d="M877.777 122.481L877.777 102.067L898.191 122.481L877.777 122.481Z" fill="#FAFAFA"/>
<path d="M877.777 102.067L857.777 102.067L857.777 53.7831L891.919 87.9252L877.777 102.067ZM877.777 122.481L877.777 142.481L857.777 142.481L857.777 122.481L877.777 122.481ZM898.191 122.481L912.333 108.339L946.475 142.481L898.191 142.481L898.191 122.481ZM877.777 102.067L897.777 102.067L897.777 122.481L877.777 122.481L857.777 122.481L857.777 102.067L877.777 102.067ZM877.777 122.481L877.777 102.481L898.191 102.481L898.191 122.481L898.191 142.481L877.777 142.481L877.777 122.481ZM877.777 102.067L891.919 87.9252L912.333 108.339L898.191 122.481L884.049 136.623L863.635 116.21L877.777 102.067Z" fill="#FAFAFA" mask="url(#path-136-inside-49_6_528)"/>
<mask id="path-138-inside-50_6_528" fill="white">
<path d="M918.604 122.481L939.018 122.481L918.604 142.895L918.604 122.481Z"/>
</mask>
<path d="M918.604 122.481L939.018 122.481L918.604 142.895L918.604 122.481Z" fill="#FAFAFA"/>
<path d="M939.018 122.481L939.018 102.481L987.302 102.481L953.16 136.624L939.018 122.481ZM918.604 122.481L898.604 122.481L898.604 102.481L918.604 102.481L918.604 122.481ZM918.604 142.895L932.746 157.037L898.604 191.179L898.604 142.895L918.604 142.895ZM939.018 122.481L939.018 142.481L918.604 142.481L918.604 122.481L918.604 102.481L939.018 102.481L939.018 122.481ZM918.604 122.481L938.604 122.481L938.604 142.895L918.604 142.895L898.604 142.895L898.604 122.481L918.604 122.481ZM939.018 122.481L953.16 136.624L932.746 157.037L918.604 142.895L904.462 128.753L924.875 108.339L939.018 122.481Z" fill="#FAFAFA" mask="url(#path-138-inside-50_6_528)"/>
<mask id="path-140-inside-51_6_528" fill="white">
<path d="M918.604 20.4134V0L939.017 20.4134L918.604 20.4134Z"/>
</mask>
<path d="M918.604 20.4134V0L939.017 20.4134L918.604 20.4134Z" fill="#FAFAFA"/>
<path d="M918.604 0L898.604 2.38498e-07V-48.2843L932.746 -14.1421L918.604 0ZM918.604 20.4134V40.4134L898.604 40.4134V20.4134L918.604 20.4134ZM939.017 20.4134L953.159 6.27129L987.301 40.4134L939.017 40.4134V20.4134ZM918.604 0L938.604 -2.38498e-07V20.4134L918.604 20.4134L898.604 20.4134V2.38498e-07L918.604 0ZM918.604 20.4134V0.413429L939.017 0.413429V20.4134V40.4134L918.604 40.4134V20.4134ZM918.604 0L932.746 -14.1421L953.159 6.27129L939.017 20.4134L924.875 34.5556L904.461 14.1421L918.604 0Z" fill="#FAFAFA" mask="url(#path-140-inside-51_6_528)"/>
<rect x="872.674" y="117.378" width="10.2067" height="91.8604" transform="rotate(180 872.674 117.378)" fill="#FAFAFA" stroke="#FAFAFA" stroke-width="10.2067"/>
<mask id="path-143-inside-52_6_528" fill="white">
<path d="M877.777 122.481L877.777 142.895L857.364 122.481L877.777 122.481Z"/>
</mask>
<path d="M877.777 122.481L877.777 142.895L857.364 122.481L877.777 122.481Z" fill="#FAFAFA"/>
<path d="M877.777 142.895L897.777 142.895L897.777 191.179L863.635 157.037L877.777 142.895ZM877.777 122.481L877.777 102.481L897.777 102.481L897.777 122.481L877.777 122.481ZM857.364 122.481L843.222 136.623L809.08 102.481L857.364 102.481L857.364 122.481ZM877.777 142.895L857.777 142.895L857.777 122.481L877.777 122.481L897.777 122.481L897.777 142.895L877.777 142.895ZM877.777 122.481L877.777 142.481L857.364 142.481L857.364 122.481L857.364 102.481L877.777 102.481L877.777 122.481ZM877.777 142.895L863.635 157.037L843.222 136.623L857.364 122.481L871.506 108.339L891.919 128.752L877.777 142.895Z" fill="#FAFAFA" mask="url(#path-143-inside-52_6_528)"/>
<mask id="path-145-inside-53_6_528" fill="white">
<path d="M877.777 20.4131L857.363 20.4131L877.777 -0.000343323V20.4131Z"/>
</mask>
<path d="M877.777 20.4131L857.363 20.4131L877.777 -0.000343323V20.4131Z" fill="#FAFAFA"/>
<path d="M857.363 20.4131V40.4131L809.079 40.4131L843.221 6.27095L857.363 20.4131ZM877.777 20.4131L897.777 20.4131V40.4131L877.777 40.4131V20.4131ZM877.777 -0.000343323L863.635 -14.1425L897.777 -48.2846V-0.000343323L877.777 -0.000343323ZM857.363 20.4131V0.413086L877.777 0.413086V20.4131V40.4131H857.363V20.4131ZM877.777 20.4131L857.777 20.4131V-0.000343323L877.777 -0.000343323L897.777 -0.000343323V20.4131L877.777 20.4131ZM857.363 20.4131L843.221 6.27095L863.635 -14.1425L877.777 -0.000343323L891.919 14.1418L871.505 34.5552L857.363 20.4131Z" fill="#FAFAFA" mask="url(#path-145-inside-53_6_528)"/>
<rect x="954.328" y="117.377" width="10.2067" height="91.8604" transform="rotate(180 954.328 117.377)" fill="#FAFAFA" stroke="#FAFAFA" stroke-width="10.2067"/>
<rect x="974.742" y="76.55" width="10.2068" height="10.2066" transform="rotate(180 974.742 76.55)" fill="#FAFAFA" stroke="#FAFAFA" stroke-width="10.2066"/>
<mask id="path-149-inside-54_6_528" fill="white">
<path d="M959.432 122.481L959.432 142.895L939.018 122.481L959.432 122.481Z"/>
</mask>
<path d="M959.432 122.481L959.432 142.895L939.018 122.481L959.432 122.481Z" fill="#FAFAFA"/>
<path d="M959.432 142.895L979.432 142.895L979.432 191.179L945.29 157.037L959.432 142.895ZM959.432 122.481L959.432 102.481L979.432 102.481L979.432 122.481L959.432 122.481ZM939.018 122.481L924.876 136.623L890.734 102.481L939.018 102.481L939.018 122.481ZM959.432 142.895L939.432 142.895L939.432 122.481L959.432 122.481L979.432 122.481L979.432 142.895L959.432 142.895ZM959.432 122.481L959.432 142.481L939.018 142.481L939.018 122.481L939.018 102.481L959.432 102.481L959.432 122.481ZM959.432 142.895L945.29 157.037L924.876 136.623L939.018 122.481L953.16 108.339L973.574 128.752L959.432 142.895Z" fill="#FAFAFA" mask="url(#path-149-inside-54_6_528)"/>
<mask id="path-151-inside-55_6_528" fill="white">
<path d="M959.431 20.4131L939.018 20.4131L959.431 -0.000343323V20.4131Z"/>
</mask>
<path d="M959.431 20.4131L939.018 20.4131L959.431 -0.000343323V20.4131Z" fill="#FAFAFA"/>
<path d="M939.018 20.4131V40.4131L890.733 40.4131L924.875 6.27095L939.018 20.4131ZM959.431 20.4131L979.431 20.4131V40.4131L959.431 40.4131V20.4131ZM959.431 -0.000343323L945.289 -14.1425L979.431 -48.2846V-0.000343323L959.431 -0.000343323ZM939.018 20.4131V0.413086L959.431 0.413086V20.4131V40.4131H939.018V20.4131ZM959.431 20.4131L939.431 20.4131V-0.000343323L959.431 -0.000343323L979.431 -0.000343323V20.4131L959.431 20.4131ZM939.018 20.4131L924.875 6.27095L945.289 -14.1425L959.431 -0.000343323L973.573 14.1418L953.16 34.5552L939.018 20.4131Z" fill="#FAFAFA" mask="url(#path-151-inside-55_6_528)"/>
<mask id="path-153-inside-56_6_528" fill="white">
<path d="M979.844 61.2402L1000.26 61.2402L979.844 81.6537L979.844 61.2402Z"/>
</mask>
<path d="M979.844 61.2402L1000.26 61.2402L979.844 81.6537L979.844 61.2402Z" fill="#FAFAFA"/>
<path d="M1000.26 61.2402L1000.26 41.2402L1048.54 41.2402L1014.4 75.3824L1000.26 61.2402ZM979.844 61.2402L959.844 61.2402L959.844 41.2402L979.844 41.2402L979.844 61.2402ZM979.844 81.6537L993.987 95.7958L959.844 129.938L959.844 81.6537L979.844 81.6537ZM1000.26 61.2402L1000.26 81.2402L979.844 81.2402L979.844 61.2402L979.844 41.2402L1000.26 41.2402L1000.26 61.2402ZM979.844 61.2402L999.844 61.2402L999.844 81.6537L979.844 81.6537L959.844 81.6537L959.844 61.2402L979.844 61.2402ZM1000.26 61.2402L1014.4 75.3824L993.987 95.7958L979.844 81.6537L965.702 67.5115L986.116 47.0981L1000.26 61.2402Z" fill="#FAFAFA" mask="url(#path-153-inside-56_6_528)"/>
<mask id="path-155-inside-57_6_528" fill="white">
<path d="M1000.26 40.8272L1020.67 40.8271L1000.26 61.2406L1000.26 40.8272Z"/>
</mask>
<path d="M1000.26 40.8272L1020.67 40.8271L1000.26 61.2406L1000.26 40.8272Z" fill="#FAFAFA"/>
<path d="M1020.67 40.8271L1020.67 20.8271L1068.96 20.8271L1034.81 54.9693L1020.67 40.8271ZM1000.26 40.8272L980.258 40.8272L980.258 20.8272L1000.26 20.8272L1000.26 40.8272ZM1000.26 61.2406L1014.4 75.3827L980.258 109.525L980.258 61.2406L1000.26 61.2406ZM1020.67 40.8271L1020.67 60.8271L1000.26 60.8272L1000.26 40.8272L1000.26 20.8272L1020.67 20.8271L1020.67 40.8271ZM1000.26 40.8272L1020.26 40.8271L1020.26 61.2406L1000.26 61.2406L980.258 61.2406L980.258 40.8272L1000.26 40.8272ZM1020.67 40.8271L1034.81 54.9693L1014.4 75.3827L1000.26 61.2406L986.116 47.0984L1006.53 26.685L1020.67 40.8271Z" fill="#FAFAFA" mask="url(#path-155-inside-57_6_528)"/>
<mask id="path-157-inside-58_6_528" fill="white">
<path d="M1020.67 20.4131L1000.26 20.4131L1020.67 -0.000343323V20.4131Z"/>
</mask>
<path d="M1020.67 20.4131L1000.26 20.4131L1020.67 -0.000343323V20.4131Z" fill="#FAFAFA"/>
<path d="M1000.26 20.4131V40.4131L951.974 40.4131L986.116 6.27095L1000.26 20.4131ZM1020.67 20.4131H1040.67V40.4131H1020.67V20.4131ZM1020.67 -0.000343323L1006.53 -14.1425L1040.67 -48.2846V-0.000343323H1020.67ZM1000.26 20.4131V0.413086L1020.67 0.413086V20.4131V40.4131H1000.26V20.4131ZM1020.67 20.4131L1000.67 20.4131V-0.000343323L1020.67 -0.000343323H1040.67V20.4131H1020.67ZM1000.26 20.4131L986.116 6.27095L1006.53 -14.1425L1020.67 -0.000343323L1034.81 14.1418L1014.4 34.5552L1000.26 20.4131Z" fill="#FAFAFA" mask="url(#path-157-inside-58_6_528)"/>
<mask id="path-159-inside-59_6_528" fill="white">
<path d="M1000.26 40.8271H979.846L1000.26 20.4137V40.8271Z"/>
</mask>
<path d="M1000.26 40.8271H979.846L1000.26 20.4137V40.8271Z" fill="#FAFAFA"/>
<path d="M979.846 40.8271V60.8271L931.561 60.8271L965.704 26.685L979.846 40.8271ZM1000.26 40.8271L1020.26 40.8271V60.8271H1000.26V40.8271ZM1000.26 20.4137L986.117 6.27158L1020.26 -27.8706V20.4137H1000.26ZM979.846 40.8271V20.8271L1000.26 20.8271V40.8271V60.8271H979.846V40.8271ZM1000.26 40.8271H980.259V20.4137L1000.26 20.4137H1020.26V40.8271L1000.26 40.8271ZM979.846 40.8271L965.704 26.685L986.117 6.27158L1000.26 20.4137L1014.4 34.5559L993.988 54.9693L979.846 40.8271Z" fill="#FAFAFA" mask="url(#path-159-inside-59_6_528)"/>
<rect x="984.949" y="96.964" width="10.2067" height="10.2067" transform="rotate(-90 984.949 96.964)" fill="#FAFAFA" stroke="#FAFAFA" stroke-width="10.2067"/>
<rect x="1005.36" y="117.377" width="10.2067" height="10.2067" transform="rotate(-90 1005.36 117.377)" fill="#FAFAFA" stroke="#FAFAFA" stroke-width="10.2067"/>
<mask id="path-163-inside-60_6_528" fill="white">
<path d="M979.844 81.6533L1000.26 81.6533L979.844 61.2399L979.844 81.6533Z"/>
</mask>
<path d="M979.844 81.6533L1000.26 81.6533L979.844 61.2399L979.844 81.6533Z" fill="#FAFAFA"/>
<path d="M1000.26 81.6533L1000.26 101.653L1048.54 101.653L1014.4 67.5112L1000.26 81.6533ZM979.844 81.6533L959.844 81.6533L959.844 101.653L979.844 101.653L979.844 81.6533ZM979.844 61.2399L993.987 47.0978L959.844 12.9556L959.844 61.2399L979.844 61.2399ZM1000.26 81.6533L1000.26 61.6533L979.844 61.6533L979.844 81.6533L979.844 101.653L1000.26 101.653L1000.26 81.6533ZM979.844 81.6533L999.844 81.6533L999.844 61.2399L979.844 61.2399L959.844 61.2399L959.844 81.6533L979.844 81.6533ZM1000.26 81.6533L1014.4 67.5112L993.987 47.0978L979.844 61.2399L965.702 75.382L986.116 95.7955L1000.26 81.6533Z" fill="#FAFAFA" mask="url(#path-163-inside-60_6_528)"/>
<mask id="path-165-inside-61_6_528" fill="white">
<path d="M1000.26 102.067L1020.67 102.067L1000.26 81.654L1000.26 102.067Z"/>
</mask>
<path d="M1000.26 102.067L1020.67 102.067L1000.26 81.654L1000.26 102.067Z" fill="#FAFAFA"/>
<path d="M1020.67 102.067L1020.67 122.067L1068.96 122.067L1034.81 87.9252L1020.67 102.067ZM1000.26 102.067L980.258 102.067L980.258 122.067L1000.26 122.067L1000.26 102.067ZM1000.26 81.654L1014.4 67.5118L980.258 33.3697L980.258 81.654L1000.26 81.654ZM1020.67 102.067L1020.67 82.0674L1000.26 82.0674L1000.26 102.067L1000.26 122.067L1020.67 122.067L1020.67 102.067ZM1000.26 102.067L1020.26 102.067L1020.26 81.654L1000.26 81.654L980.258 81.654L980.258 102.067L1000.26 102.067ZM1020.67 102.067L1034.81 87.9252L1014.4 67.5118L1000.26 81.654L986.116 95.7961L1006.53 116.21L1020.67 102.067Z" fill="#FAFAFA" mask="url(#path-165-inside-61_6_528)"/>
<mask id="path-167-inside-62_6_528" fill="white">
<path d="M1020.67 122.481H1000.26L1020.67 142.895V122.481Z"/>
</mask>
<path d="M1020.67 122.481H1000.26L1020.67 142.895V122.481Z" fill="#FAFAFA"/>
<path d="M1000.26 122.481V102.481H951.974L986.116 136.624L1000.26 122.481ZM1020.67 122.481H1040.67V102.481H1020.67V122.481ZM1020.67 142.895L1006.53 157.037L1040.67 191.179V142.895H1020.67ZM1000.26 122.481V142.481H1020.67V122.481V102.481H1000.26V122.481ZM1020.67 122.481H1000.67V142.895H1020.67H1040.67V122.481H1020.67ZM1000.26 122.481L986.116 136.624L1006.53 157.037L1020.67 142.895L1034.81 128.753L1014.4 108.339L1000.26 122.481Z" fill="#FAFAFA" mask="url(#path-167-inside-62_6_528)"/>
<mask id="path-169-inside-63_6_528" fill="white">
<path d="M1000.26 102.067H979.846L1000.26 122.481V102.067Z"/>
</mask>
<path d="M1000.26 102.067H979.846L1000.26 122.481V102.067Z" fill="#FAFAFA"/>
<path d="M979.846 102.067V82.0674H931.561L965.704 116.21L979.846 102.067ZM1000.26 102.067H1020.26V82.0674H1000.26V102.067ZM1000.26 122.481L986.117 136.623L1020.26 170.765V122.481H1000.26ZM979.846 102.067V122.067H1000.26V102.067V82.0674H979.846V102.067ZM1000.26 102.067H980.259V122.481H1000.26H1020.26V102.067H1000.26ZM979.846 102.067L965.704 116.21L986.117 136.623L1000.26 122.481L1014.4 108.339L993.988 87.9252L979.846 102.067Z" fill="#FAFAFA" mask="url(#path-169-inside-63_6_528)"/>
<mask id="path-171-inside-64_6_528" fill="white">
<path d="M979.845 81.6533H959.432L979.845 102.067V81.6533Z"/>
</mask>
<path d="M979.845 81.6533H959.432L979.845 102.067V81.6533Z" fill="#FAFAFA"/>
<path d="M959.432 81.6533V61.6533L911.147 61.6533L945.29 95.7955L959.432 81.6533ZM979.845 81.6533H999.845V61.6533H979.845V81.6533ZM979.845 102.067L965.703 116.209L999.845 150.351V102.067H979.845ZM959.432 81.6533V101.653H979.845V81.6533V61.6533H959.432V81.6533ZM979.845 81.6533H959.845V102.067H979.845H999.845V81.6533H979.845ZM959.432 81.6533L945.29 95.7955L965.703 116.209L979.845 102.067L993.987 87.9246L973.574 67.5112L959.432 81.6533Z" fill="#FAFAFA" mask="url(#path-171-inside-64_6_528)"/>
<mask id="path-173-inside-65_6_528" fill="white">
<path d="M979.846 61.2406L979.846 40.8271L959.432 61.2406L979.846 61.2406Z"/>
</mask>
<path d="M979.846 61.2406L979.846 40.8271L959.432 61.2406L979.846 61.2406Z" fill="#FAFAFA"/>
<path d="M979.846 40.8271L999.846 40.8271L999.846 -7.45712L965.704 26.685L979.846 40.8271ZM979.846 61.2406L979.846 81.2406L999.846 81.2406L999.846 61.2406L979.846 61.2406ZM959.432 61.2406L945.29 47.0984L911.148 81.2406L959.432 81.2406L959.432 61.2406ZM979.846 40.8271L959.846 40.8271L959.846 61.2406L979.846 61.2406L999.846 61.2406L999.846 40.8271L979.846 40.8271ZM979.846 61.2406L979.846 41.2406L959.432 41.2406L959.432 61.2406L959.432 81.2406L979.846 81.2406L979.846 61.2406ZM979.846 40.8271L965.704 26.685L945.29 47.0984L959.432 61.2406L973.574 75.3827L993.988 54.9693L979.846 40.8271Z" fill="#FAFAFA" mask="url(#path-173-inside-65_6_528)"/>
<rect x="597.094" y="137.791" width="10.2067" height="30.6201" transform="rotate(-90 597.094 137.791)" fill="#FAFAFA" stroke="#FAFAFA" stroke-width="10.2067"/>
<rect x="597.094" y="15.3107" width="10.2067" height="30.6201" transform="rotate(-90 597.094 15.3107)" fill="#FAFAFA" stroke="#FAFAFA" stroke-width="10.2067"/>
<mask id="path-177-inside-66_6_528" fill="white">
<path d="M591.991 20.4141L612.404 20.4141L591.991 40.8275L591.991 20.4141Z"/>
</mask>
<path d="M591.991 20.4141L612.404 20.4141L591.991 40.8275L591.991 20.4141Z" fill="#FAFAFA"/>
<path d="M612.404 20.4141L612.404 0.414062L660.689 0.414058L626.546 34.5562L612.404 20.4141ZM591.991 20.4141L571.991 20.4141L571.991 0.414066L591.991 0.414064L591.991 20.4141ZM591.991 40.8275L606.133 54.9696L571.991 89.1118L571.991 40.8275L591.991 40.8275ZM612.404 20.4141L612.404 40.4141L591.991 40.4141L591.991 20.4141L591.991 0.414064L612.404 0.414062L612.404 20.4141ZM591.991 20.4141L611.991 20.4141L611.991 40.8275L591.991 40.8275L571.991 40.8275L571.991 20.4141L591.991 20.4141ZM612.404 20.4141L626.546 34.5562L606.133 54.9696L591.991 40.8275L577.849 26.6854L598.262 6.27193L612.404 20.4141Z" fill="#FAFAFA" mask="url(#path-177-inside-66_6_528)"/>
<mask id="path-179-inside-67_6_528" fill="white">
<path d="M591.99 122.481L591.99 102.067L612.404 122.481L591.99 122.481Z"/>
</mask>
<path d="M591.99 122.481L591.99 102.067L612.404 122.481L591.99 122.481Z" fill="#FAFAFA"/>
<path d="M591.99 102.067L571.99 102.067L571.99 53.7831L606.132 87.9252L591.99 102.067ZM591.99 122.481L591.99 142.481L571.99 142.481L571.99 122.481L591.99 122.481ZM612.404 122.481L626.546 108.339L660.688 142.481L612.404 142.481L612.404 122.481ZM591.99 102.067L611.99 102.067L611.99 122.481L591.99 122.481L571.99 122.481L571.99 102.067L591.99 102.067ZM591.99 122.481L591.99 102.481L612.404 102.481L612.404 122.481L612.404 142.481L591.99 142.481L591.99 122.481ZM591.99 102.067L606.132 87.9252L626.546 108.339L612.404 122.481L598.262 136.623L577.848 116.21L591.99 102.067Z" fill="#FAFAFA" mask="url(#path-179-inside-67_6_528)"/>
<mask id="path-181-inside-68_6_528" fill="white">
<path d="M632.817 122.481L653.23 122.481L632.817 142.895L632.817 122.481Z"/>
</mask>
<path d="M632.817 122.481L653.23 122.481L632.817 142.895L632.817 122.481Z" fill="#FAFAFA"/>
<path d="M653.23 122.481L653.23 102.481L701.515 102.481L667.373 136.624L653.23 122.481ZM632.817 122.481L612.817 122.481L612.817 102.481L632.817 102.481L632.817 122.481ZM632.817 142.895L646.959 157.037L612.817 191.179L612.817 142.895L632.817 142.895ZM653.23 122.481L653.23 142.481L632.817 142.481L632.817 122.481L632.817 102.481L653.23 102.481L653.23 122.481ZM632.817 122.481L652.817 122.481L652.817 142.895L632.817 142.895L612.817 142.895L612.817 122.481L632.817 122.481ZM653.23 122.481L667.373 136.624L646.959 157.037L632.817 142.895L618.675 128.753L639.088 108.339L653.23 122.481Z" fill="#FAFAFA" mask="url(#path-181-inside-68_6_528)"/>
<mask id="path-183-inside-69_6_528" fill="white">
<path d="M632.816 20.4144V0.000976562L653.23 20.4144L632.816 20.4144Z"/>
</mask>
<path d="M632.816 20.4144V0.000976562L653.23 20.4144L632.816 20.4144Z" fill="#FAFAFA"/>
<path d="M632.816 0.000976562L612.816 0.000976801V-48.2833L646.959 -14.1412L632.816 0.000976562ZM632.816 20.4144V40.4144L612.816 40.4144V20.4144L632.816 20.4144ZM653.23 20.4144L667.372 6.27227L701.514 40.4144L653.23 40.4144V20.4144ZM632.816 0.000976562L652.816 0.000976324V20.4144L632.816 20.4144L612.816 20.4144V0.000976801L632.816 0.000976562ZM632.816 20.4144V0.414406L653.23 0.414406V20.4144V40.4144L632.816 40.4144V20.4144ZM632.816 0.000976562L646.959 -14.1412L667.372 6.27227L653.23 20.4144L639.088 34.5565L618.674 14.1431L632.816 0.000976562Z" fill="#FAFAFA" mask="url(#path-183-inside-69_6_528)"/>
<rect x="586.887" y="117.378" width="10.2067" height="91.8604" transform="rotate(180 586.887 117.378)" fill="#FAFAFA" stroke="#FAFAFA" stroke-width="10.2067"/>
<mask id="path-186-inside-70_6_528" fill="white">
<path d="M591.99 122.481L591.99 142.895L571.577 122.481L591.99 122.481Z"/>
</mask>
<path d="M591.99 122.481L591.99 142.895L571.577 122.481L591.99 122.481Z" fill="#FAFAFA"/>
<path d="M591.99 142.895L611.99 142.895L611.99 191.179L577.848 157.037L591.99 142.895ZM591.99 122.481L591.99 102.481L611.99 102.481L611.99 122.481L591.99 122.481ZM571.577 122.481L557.435 136.623L523.293 102.481L571.577 102.481L571.577 122.481ZM591.99 142.895L571.99 142.895L571.99 122.481L591.99 122.481L611.99 122.481L611.99 142.895L591.99 142.895ZM591.99 122.481L591.99 142.481L571.577 142.481L571.577 122.481L571.577 102.481L591.99 102.481L591.99 122.481ZM591.99 142.895L577.848 157.037L557.435 136.623L571.577 122.481L585.719 108.339L606.132 128.752L591.99 142.895Z" fill="#FAFAFA" mask="url(#path-186-inside-70_6_528)"/>
<mask id="path-188-inside-71_6_528" fill="white">
<path d="M591.99 20.4141L571.576 20.4141L591.99 0.00063324V20.4141Z"/>
</mask>
<path d="M591.99 20.4141L571.576 20.4141L591.99 0.00063324V20.4141Z" fill="#FAFAFA"/>
<path d="M571.576 20.4141V40.4141L523.292 40.4141L557.434 6.27193L571.576 20.4141ZM591.99 20.4141L611.99 20.4141V40.4141L591.99 40.4141V20.4141ZM591.99 0.00063324L577.847 -14.1415L611.99 -48.2836V0.00063324L591.99 0.00063324ZM571.576 20.4141V0.414062L591.99 0.414063V20.4141V40.4141H571.576V20.4141ZM591.99 20.4141L571.99 20.4141V0.00063324L591.99 0.00063324L611.99 0.00063324V20.4141L591.99 20.4141ZM571.576 20.4141L557.434 6.27193L577.847 -14.1415L591.99 0.00063324L606.132 14.1428L585.718 34.5562L571.576 20.4141Z" fill="#FAFAFA" mask="url(#path-188-inside-71_6_528)"/>
<mask id="path-190-inside-72_6_528" fill="white">
<path d="M469.51 122.481V102.067L449.096 122.481L469.51 122.481Z"/>
</mask>
<path d="M469.51 122.481V102.067L449.096 122.481L469.51 122.481Z" fill="#FAFAFA"/>
<path d="M469.51 102.067L489.51 102.067V53.7831L455.368 87.9252L469.51 102.067ZM469.51 122.481V142.481L489.51 142.481V122.481L469.51 122.481ZM449.096 122.481L434.954 108.339L400.812 142.481L449.096 142.481V122.481ZM469.51 102.067L449.51 102.067V122.481L469.51 122.481L489.51 122.481V102.067L469.51 102.067ZM469.51 122.481V102.481L449.096 102.481V122.481V142.481L469.51 142.481V122.481ZM469.51 102.067L455.368 87.9252L434.954 108.339L449.096 122.481L463.238 136.623L483.652 116.21L469.51 102.067Z" fill="#FAFAFA" mask="url(#path-190-inside-72_6_528)"/>
<rect x="831.848" y="5.10336" width="10.2067" height="30.6201" transform="rotate(90 831.848 5.10336)" fill="#FAFAFA" stroke="#FAFAFA" stroke-width="10.2067"/>
<rect x="852.26" y="25.5174" width="91.8605" height="10.2067" transform="rotate(90 852.26 25.5174)" fill="#FAFAFA" stroke="#FAFAFA" stroke-width="10.2067"/>
<rect x="791.022" y="117.378" width="10.2067" height="91.8604" transform="rotate(180 791.022 117.378)" fill="#FAFAFA" stroke="#FAFAFA" stroke-width="10.2067"/>
<mask id="path-195-inside-73_6_528" fill="white">
<path d="M796.125 20.4134L796.125 0L775.712 20.4134L796.125 20.4134Z"/>
</mask>
<path d="M796.125 20.4134L796.125 0L775.712 20.4134L796.125 20.4134Z" fill="#FAFAFA"/>
<path d="M796.125 0L816.125 -8.74228e-07L816.125 -48.2843L781.983 -14.1421L796.125 0ZM796.125 20.4134L796.125 40.4134L816.125 40.4134L816.125 20.4134L796.125 20.4134ZM775.712 20.4134L761.569 6.2713L727.427 40.4134L775.712 40.4134L775.712 20.4134ZM796.125 0L776.125 8.74228e-07L776.125 20.4134L796.125 20.4134L816.125 20.4134L816.125 -8.74228e-07L796.125 0ZM796.125 20.4134L796.125 0.413429L775.712 0.41343L775.712 20.4134L775.712 40.4134L796.125 40.4134L796.125 20.4134ZM796.125 0L781.983 -14.1421L761.569 6.2713L775.712 20.4134L789.854 34.5556L810.267 14.1421L796.125 0Z" fill="#FAFAFA" mask="url(#path-195-inside-73_6_528)"/>
<mask id="path-197-inside-74_6_528" fill="white">
<path d="M836.95 20.4131L857.363 20.4131L836.95 -0.000341538L836.95 20.4131Z"/>
</mask>
<path d="M836.95 20.4131L857.363 20.4131L836.95 -0.000341538L836.95 20.4131Z" fill="#FAFAFA"/>
<path d="M857.363 20.4131L857.363 40.4131L905.648 40.4131L871.505 6.27095L857.363 20.4131ZM836.95 20.4131L816.95 20.4131L816.95 40.4131L836.95 40.4131L836.95 20.4131ZM836.95 -0.000341538L851.092 -14.1425L816.95 -48.2846L816.95 -0.00033979L836.95 -0.000341538ZM857.363 20.4131L857.363 0.413086L836.95 0.413088L836.95 20.4131L836.95 40.4131L857.363 40.4131L857.363 20.4131ZM836.95 20.4131L856.95 20.4131L856.95 -0.000343287L836.95 -0.000341538L816.95 -0.00033979L816.95 20.4131L836.95 20.4131ZM857.363 20.4131L871.505 6.27095L851.092 -14.1425L836.95 -0.000341538L822.808 14.1418L843.221 34.5552L857.363 20.4131Z" fill="#FAFAFA" mask="url(#path-197-inside-74_6_528)"/>
<mask id="path-199-inside-75_6_528" fill="white">
<path d="M836.951 122.481V142.895L857.365 122.481L836.951 122.481Z"/>
</mask>
<path d="M836.951 122.481V142.895L857.365 122.481L836.951 122.481Z" fill="#FAFAFA"/>
<path d="M836.951 142.895L816.951 142.895V191.179L851.093 157.037L836.951 142.895ZM836.951 122.481V102.481L816.951 102.481V122.481L836.951 122.481ZM857.365 122.481L871.507 136.623L905.649 102.481L857.365 102.481V122.481ZM836.951 142.895L856.951 142.895V122.481L836.951 122.481L816.951 122.481V142.895L836.951 142.895ZM836.951 122.481V142.481L857.365 142.481V122.481V102.481L836.951 102.481V122.481ZM836.951 142.895L851.093 157.037L871.507 136.623L857.365 122.481L843.222 108.339L822.809 128.752L836.951 142.895Z" fill="#FAFAFA" mask="url(#path-199-inside-75_6_528)"/>
<mask id="path-201-inside-76_6_528" fill="white">
<path d="M796.125 122.481L796.125 142.895L775.712 122.481L796.125 122.481Z"/>
</mask>
<path d="M796.125 122.481L796.125 142.895L775.712 122.481L796.125 122.481Z" fill="#FAFAFA"/>
<path d="M796.125 142.895L816.125 142.895L816.125 191.179L781.983 157.037L796.125 142.895ZM796.125 122.481L796.125 102.481L816.125 102.481L816.125 122.481L796.125 122.481ZM775.712 122.481L761.569 136.623L727.427 102.481L775.712 102.481L775.712 122.481ZM796.125 142.895L776.125 142.895L776.125 122.481L796.125 122.481L816.125 122.481L816.125 142.895L796.125 142.895ZM796.125 122.481L796.125 142.481L775.712 142.481L775.712 122.481L775.712 102.481L796.125 102.481L796.125 122.481ZM796.125 142.895L781.983 157.037L761.569 136.623L775.712 122.481L789.854 108.339L810.267 128.752L796.125 142.895Z" fill="#FAFAFA" mask="url(#path-201-inside-76_6_528)"/>
<mask id="path-203-inside-77_6_528" fill="white">
<path d="M836.951 20.4131L816.537 20.4131L836.951 40.8265V20.4131Z"/>
</mask>
<path d="M836.951 20.4131L816.537 20.4131L836.951 40.8265V20.4131Z" fill="#FAFAFA"/>
<path d="M816.537 20.4131V0.413086L768.253 0.413086L802.395 34.5552L816.537 20.4131ZM836.951 20.4131L856.951 20.4131V0.413086L836.951 0.413086V20.4131ZM836.951 40.8265L822.808 54.9687L856.951 89.1108V40.8265L836.951 40.8265ZM816.537 20.4131V40.4131H836.951V20.4131V0.413086L816.537 0.413086V20.4131ZM836.951 20.4131L816.951 20.4131V40.8265H836.951L856.951 40.8265V20.4131L836.951 20.4131ZM816.537 20.4131L802.395 34.5552L822.808 54.9687L836.951 40.8265L851.093 26.6844L830.679 6.27095L816.537 20.4131Z" fill="#FAFAFA" mask="url(#path-203-inside-77_6_528)"/>
<mask id="path-205-inside-78_6_528" fill="white">
<path d="M796.125 20.4137L796.125 40.8271L816.538 20.4137L796.125 20.4137Z"/>
</mask>
<path d="M796.125 20.4137L796.125 40.8271L816.538 20.4137L796.125 20.4137Z" fill="#FAFAFA"/>
<path d="M796.125 40.8271L776.125 40.8271L776.125 89.1114L810.267 54.9693L796.125 40.8271ZM796.125 20.4137L796.125 0.413719L776.125 0.41372L776.125 20.4137L796.125 20.4137ZM816.538 20.4137L830.681 34.5559L864.823 0.413716L816.538 0.413718L816.538 20.4137ZM796.125 40.8271L816.125 40.8271L816.125 20.4137L796.125 20.4137L776.125 20.4137L776.125 40.8271L796.125 40.8271ZM796.125 20.4137L796.125 40.4137L816.538 40.4137L816.538 20.4137L816.538 0.413718L796.125 0.413719L796.125 20.4137ZM796.125 40.8271L810.267 54.9693L830.681 34.5559L816.538 20.4137L802.396 6.27158L781.983 26.685L796.125 40.8271Z" fill="#FAFAFA" mask="url(#path-205-inside-78_6_528)"/>
<mask id="path-207-inside-79_6_528" fill="white">
<path d="M326.615 102.068L306.201 102.068L326.615 122.482L326.615 102.068Z"/>
</mask>
<path d="M326.615 102.068L306.201 102.068L326.615 122.482L326.615 102.068Z" fill="#FAFAFA"/>
<path d="M306.201 102.068L306.201 82.0684L257.917 82.0684L292.059 116.21L306.201 102.068ZM326.615 102.068L346.615 102.068L346.615 82.0684L326.615 82.0684L326.615 102.068ZM326.615 122.482L312.472 136.624L346.615 170.766L346.615 122.482L326.615 122.482ZM306.201 102.068L306.201 122.068L326.615 122.068L326.615 102.068L326.615 82.0684L306.201 82.0684L306.201 102.068ZM326.615 102.068L306.615 102.068L306.615 122.482L326.615 122.482L346.615 122.482L346.615 102.068L326.615 102.068ZM306.201 102.068L292.059 116.21L312.472 136.624L326.615 122.482L340.757 108.34L320.343 87.9262L306.201 102.068Z" fill="#FAFAFA" mask="url(#path-207-inside-79_6_528)"/>
<mask id="path-209-inside-80_6_528" fill="white">
<path d="M306.202 81.6553L285.789 81.6553L306.202 102.069L306.202 81.6553Z"/>
</mask>
<path d="M306.202 81.6553L285.789 81.6553L306.202 102.069L306.202 81.6553Z" fill="#FAFAFA"/>
<path d="M285.789 81.6553L285.789 61.6553L237.505 61.6553L271.647 95.7974L285.789 81.6553ZM306.202 81.6553L326.202 81.6553L326.202 61.6553L306.202 61.6553L306.202 81.6553ZM306.202 102.069L292.06 116.211L326.202 150.353L326.202 102.069L306.202 102.069ZM285.789 81.6553L285.789 101.655L306.202 101.655L306.202 81.6553L306.202 61.6553L285.789 61.6553L285.789 81.6553ZM306.202 81.6553L286.202 81.6553L286.202 102.069L306.202 102.069L326.202 102.069L326.202 81.6553L306.202 81.6553ZM285.789 81.6553L271.647 95.7974L292.06 116.211L306.202 102.069L320.345 87.9266L299.931 67.5131L285.789 81.6553Z" fill="#FAFAFA" mask="url(#path-209-inside-80_6_528)"/>
<mask id="path-211-inside-81_6_528" fill="white">
<path d="M326.614 102.068L347.027 102.068L326.614 81.6549L326.614 102.068Z"/>
</mask>
<path d="M326.614 102.068L347.027 102.068L326.614 81.6549L326.614 102.068Z" fill="#FAFAFA"/>
<path d="M347.027 102.068L347.027 122.068L395.312 122.068L361.169 87.9262L347.027 102.068ZM326.614 102.068L306.614 102.068L306.614 122.068L326.614 122.068L326.614 102.068ZM326.614 81.6549L340.756 67.5128L306.614 33.3707L306.614 81.6549L326.614 81.6549ZM347.027 102.068L347.027 82.0684L326.614 82.0684L326.614 102.068L326.614 122.068L347.027 122.068L347.027 102.068ZM326.614 102.068L346.614 102.068L346.614 81.6549L326.614 81.6549L306.614 81.6549L306.614 102.068L326.614 102.068ZM347.027 102.068L361.169 87.9262L340.756 67.5128L326.614 81.6549L312.472 95.7971L332.885 116.21L347.027 102.068Z" fill="#FAFAFA" mask="url(#path-211-inside-81_6_528)"/>
<mask id="path-213-inside-82_6_528" fill="white">
<path d="M306.202 81.6553L326.615 81.6553L306.202 61.2418L306.202 81.6553Z"/>
</mask>
<path d="M306.202 81.6553L326.615 81.6553L306.202 61.2418L306.202 81.6553Z" fill="#FAFAFA"/>
<path d="M326.615 81.6553L326.615 101.655L374.9 101.655L340.757 67.5131L326.615 81.6553ZM306.202 81.6553L286.202 81.6553L286.202 101.655L306.202 101.655L306.202 81.6553ZM306.202 61.2418L320.344 47.0997L286.202 12.9576L286.202 61.2418L306.202 61.2418ZM326.615 81.6553L326.615 61.6553L306.202 61.6553L306.202 81.6553L306.202 101.655L326.615 101.655L326.615 81.6553ZM306.202 81.6553L326.202 81.6553L326.202 61.2418L306.202 61.2418L286.202 61.2418L286.202 81.6553L306.202 81.6553ZM326.615 81.6553L340.757 67.5131L320.344 47.0997L306.202 61.2418L292.06 75.384L312.473 95.7974L326.615 81.6553Z" fill="#FAFAFA" mask="url(#path-213-inside-82_6_528)"/>
<mask id="path-215-inside-83_6_528" fill="white">
<path d="M326.615 40.8285L326.615 20.415L306.202 40.8285L326.615 40.8285Z"/>
</mask>
<path d="M326.615 40.8285L326.615 20.415L306.202 40.8285L326.615 40.8285Z" fill="#FAFAFA"/>
<path d="M326.615 20.415L346.615 20.415L346.615 -27.8692L312.473 6.27291L326.615 20.415ZM326.615 40.8285L326.615 60.8285L346.615 60.8285L346.615 40.8285L326.615 40.8285ZM306.202 40.8285L292.06 26.6863L257.918 60.8285L306.202 60.8285L306.202 40.8285ZM326.615 20.415L306.615 20.415L306.615 40.8285L326.615 40.8285L346.615 40.8285L346.615 20.415L326.615 20.415ZM326.615 40.8285L326.615 20.8285L306.202 20.8285L306.202 40.8285L306.202 60.8285L326.615 60.8285L326.615 40.8285ZM326.615 20.415L312.473 6.27291L292.06 26.6863L306.202 40.8285L320.344 54.9706L340.757 34.5572L326.615 20.415Z" fill="#FAFAFA" mask="url(#path-215-inside-83_6_528)"/>
<mask id="path-217-inside-84_6_528" fill="white">
<path d="M81.6549 20.415L102.068 20.415L81.6549 0.00160802L81.6549 20.415Z"/>
</mask>
<path d="M81.6549 20.415L102.068 20.415L81.6549 0.00160802L81.6549 20.415Z" fill="#FAFAFA"/>
<path d="M102.068 20.415L102.068 40.415L150.353 40.415L116.21 6.2729L102.068 20.415ZM81.6549 20.415L61.6549 20.415L61.6549 40.415L81.6549 40.415L81.6549 20.415ZM81.6549 0.00160802L95.7971 -14.1405L61.6549 -48.2827L61.6549 0.00160627L81.6549 0.00160802ZM102.068 20.415L102.068 0.415039L81.6549 0.415037L81.6549 20.415L81.6549 40.415L102.068 40.415L102.068 20.415ZM81.6549 20.415L101.655 20.415L101.655 0.00160977L81.6549 0.00160802L61.6549 0.00160627L61.6549 20.415L81.6549 20.415ZM102.068 20.415L116.21 6.2729L95.7971 -14.1405L81.6549 0.00160802L67.5128 14.1437L87.9262 34.5572L102.068 20.415Z" fill="#FAFAFA" mask="url(#path-217-inside-84_6_528)"/>
<mask id="path-219-inside-85_6_528" fill="white">
<path d="M122.481 61.2422L142.895 61.2422L122.481 40.8288L122.481 61.2422Z"/>
</mask>
<path d="M122.481 61.2422L142.895 61.2422L122.481 40.8288L122.481 61.2422Z" fill="#FAFAFA"/>
<path d="M142.895 61.2422L142.895 81.2422L191.179 81.2422L157.037 47.1001L142.895 61.2422ZM122.481 61.2422L102.481 61.2422L102.481 81.2422L122.481 81.2422L122.481 61.2422ZM122.481 40.8288L136.623 26.6866L102.481 -7.45552L102.481 40.8288L122.481 40.8288ZM142.895 61.2422L142.895 41.2422L122.481 41.2422L122.481 61.2422L122.481 81.2422L142.895 81.2422L142.895 61.2422ZM122.481 61.2422L142.481 61.2422L142.481 40.8288L122.481 40.8288L102.481 40.8288L102.481 61.2422L122.481 61.2422ZM142.895 61.2422L157.037 47.1001L136.623 26.6866L122.481 40.8288L108.339 54.9709L128.752 75.3843L142.895 61.2422Z" fill="#FAFAFA" mask="url(#path-219-inside-85_6_528)"/>
<mask id="path-221-inside-86_6_528" fill="white">
<path d="M122.48 81.6549L122.48 102.068L142.894 81.6549L122.48 81.6549Z"/>
</mask>
<path d="M122.48 81.6549L122.48 102.068L142.894 81.6549L122.48 81.6549Z" fill="#FAFAFA"/>
<path d="M122.48 102.068L102.48 102.068L102.48 150.353L136.623 116.21L122.48 102.068ZM122.48 81.6549L122.48 61.6549L102.48 61.6549L102.48 81.6549L122.48 81.6549ZM142.894 81.6549L157.036 95.7971L191.178 61.6549L142.894 61.6549L142.894 81.6549ZM122.48 102.068L142.48 102.068L142.48 81.6549L122.48 81.6549L102.48 81.6549L102.48 102.068L122.48 102.068ZM122.48 81.6549L122.48 101.655L142.894 101.655L142.894 81.6549L142.894 61.6549L122.48 61.6549L122.48 81.6549ZM122.48 102.068L136.623 116.21L157.036 95.7971L142.894 81.6549L128.752 67.5128L108.338 87.9262L122.48 102.068Z" fill="#FAFAFA" mask="url(#path-221-inside-86_6_528)"/>
<mask id="path-223-inside-87_6_528" fill="white">
<path d="M40.8262 122.482L40.8262 142.896L61.2396 122.482L40.8262 122.482Z"/>
</mask>
<path d="M40.8262 122.482L40.8262 142.896L61.2396 122.482L40.8262 122.482Z" fill="#FAFAFA"/>
<path d="M40.8262 142.896L20.8262 142.896L20.8262 191.18L54.9683 157.038L40.8262 142.896ZM40.8262 122.482L40.8262 102.482L20.8262 102.482L20.8262 122.482L40.8262 122.482ZM61.2396 122.482L75.3817 136.624L109.524 102.482L61.2396 102.482L61.2396 122.482ZM40.8262 142.896L60.8262 142.896L60.8262 122.482L40.8262 122.482L20.8262 122.482L20.8262 142.896L40.8262 142.896ZM40.8262 122.482L40.8262 142.482L61.2396 142.482L61.2396 122.482L61.2396 102.482L40.8262 102.482L40.8262 122.482ZM40.8262 142.896L54.9683 157.038L75.3817 136.624L61.2396 122.482L47.0975 108.34L26.684 128.753L40.8262 142.896Z" fill="#FAFAFA" mask="url(#path-223-inside-87_6_528)"/>
<mask id="path-225-inside-88_6_528" fill="white">
<path d="M40.8268 102.068L61.2402 102.068L40.8268 81.6549L40.8268 102.068Z"/>
</mask>
<path d="M40.8268 102.068L61.2402 102.068L40.8268 81.6549L40.8268 102.068Z" fill="#FAFAFA"/>
<path d="M61.2402 102.068L61.2402 122.068L109.525 122.068L75.3824 87.9262L61.2402 102.068ZM40.8268 102.068L20.8268 102.068L20.8268 122.068L40.8268 122.068L40.8268 102.068ZM40.8268 81.6549L54.9689 67.5128L20.8268 33.3707L20.8268 81.6549L40.8268 81.6549ZM61.2402 102.068L61.2402 82.0684L40.8268 82.0684L40.8268 102.068L40.8268 122.068L61.2402 122.068L61.2402 102.068ZM40.8268 102.068L60.8268 102.068L60.8268 81.6549L40.8268 81.6549L20.8268 81.6549L20.8268 102.068L40.8268 102.068ZM61.2402 102.068L75.3824 87.9262L54.9689 67.5128L40.8268 81.6549L26.6847 95.7971L47.0981 116.21L61.2402 102.068Z" fill="#FAFAFA" mask="url(#path-225-inside-88_6_528)"/>
<rect x="-5.10336" y="-5.10336" width="10.2067" height="10.2067" transform="matrix(-4.37114e-08 -1 -1 4.37114e-08 51.0335 51.0355)" fill="#FAFAFA" stroke="#FAFAFA" stroke-width="10.2067"/>
<rect x="-5.10336" y="-5.10336" width="10.2067" height="10.2067" transform="matrix(-4.37114e-08 -1 -1 4.37114e-08 71.4476 71.4486)" fill="#FAFAFA" stroke="#FAFAFA" stroke-width="10.2067"/>
<rect x="-5.10336" y="-5.10336" width="10.2067" height="10.2067" transform="matrix(-4.37114e-08 -1 -1 4.37114e-08 91.8616 91.8616)" fill="#FAFAFA" stroke="#FAFAFA" stroke-width="10.2067"/>
<mask id="path-230-inside-89_6_528" fill="white">
<path d="M61.2396 61.2422H40.8262L61.2396 81.6556V61.2422Z"/>
</mask>
<path d="M61.2396 61.2422H40.8262L61.2396 81.6556V61.2422Z" fill="#FAFAFA"/>
<path d="M40.8262 61.2422V41.2422H-7.4581L26.684 75.3843L40.8262 61.2422ZM61.2396 61.2422H81.2396V41.2422H61.2396V61.2422ZM61.2396 81.6556L47.0975 95.7978L81.2396 129.94V81.6556H61.2396ZM40.8262 61.2422V81.2422H61.2396V61.2422V41.2422H40.8262V61.2422ZM61.2396 61.2422H41.2396V81.6556H61.2396H81.2396V61.2422H61.2396ZM40.8262 61.2422L26.684 75.3843L47.0975 95.7978L61.2396 81.6556L75.3817 67.5135L54.9683 47.1001L40.8262 61.2422Z" fill="#FAFAFA" mask="url(#path-230-inside-89_6_528)"/>
<mask id="path-232-inside-90_6_528" fill="white">
<path d="M81.6537 81.6553H61.2402L81.6537 102.069V81.6553Z"/>
</mask>
<path d="M81.6537 81.6553H61.2402L81.6537 102.069V81.6553Z" fill="#FAFAFA"/>
<path d="M61.2402 81.6553V61.6553H12.956L47.0981 95.7974L61.2402 81.6553ZM81.6537 81.6553H101.654V61.6553H81.6537V81.6553ZM81.6537 102.069L67.5115 116.211L101.654 150.353V102.069H81.6537ZM61.2402 81.6553V101.655H81.6537V81.6553V61.6553H61.2402V81.6553ZM81.6537 81.6553H61.6537V102.069H81.6537H101.654V81.6553H81.6537ZM61.2402 81.6553L47.0981 95.7974L67.5115 116.211L81.6537 102.069L95.7958 87.9266L75.3824 67.5131L61.2402 81.6553Z" fill="#FAFAFA" mask="url(#path-232-inside-90_6_528)"/>
<mask id="path-234-inside-91_6_528" fill="white">
<path d="M81.6549 81.6553L102.068 81.6553L81.6549 61.2418L81.6549 81.6553Z"/>
</mask>
<path d="M81.6549 81.6553L102.068 81.6553L81.6549 61.2418L81.6549 81.6553Z" fill="#FAFAFA"/>
<path d="M102.068 81.6553L102.068 101.655L150.353 101.655L116.21 67.5131L102.068 81.6553ZM81.6549 81.6553L61.6549 81.6553L61.6549 101.655L81.6549 101.655L81.6549 81.6553ZM81.6549 61.2418L95.7971 47.0997L61.6549 12.9576L61.6549 61.2418L81.6549 61.2418ZM102.068 81.6553L102.068 61.6553L81.6549 61.6553L81.6549 81.6553L81.6549 101.655L102.068 101.655L102.068 81.6553ZM81.6549 81.6553L101.655 81.6553L101.655 61.2418L81.6549 61.2418L61.6549 61.2418L61.6549 81.6553L81.6549 81.6553ZM102.068 81.6553L116.21 67.5131L95.7971 47.0997L81.6549 61.2418L67.5128 75.384L87.9262 95.7974L102.068 81.6553Z" fill="#FAFAFA" mask="url(#path-234-inside-91_6_528)"/>
<mask id="path-236-inside-92_6_528" fill="white">
<path d="M61.2409 61.2422L81.6543 61.2422L61.2409 40.8288L61.2409 61.2422Z"/>
</mask>
<path d="M61.2409 61.2422L81.6543 61.2422L61.2409 40.8288L61.2409 61.2422Z" fill="#FAFAFA"/>
<path d="M81.6543 61.2422L81.6543 81.2422L129.939 81.2422L95.7964 47.1001L81.6543 61.2422ZM61.2409 61.2422L41.2409 61.2422L41.2409 81.2422L61.2409 81.2422L61.2409 61.2422ZM61.2409 40.8288L75.383 26.6866L41.2409 -7.45551L41.2409 40.8288L61.2409 40.8288ZM81.6543 61.2422L81.6543 41.2422L61.2409 41.2422L61.2409 61.2422L61.2409 81.2422L81.6543 81.2422L81.6543 61.2422ZM61.2409 61.2422L81.2409 61.2422L81.2409 40.8288L61.2409 40.8288L41.2409 40.8288L41.2409 61.2422L61.2409 61.2422ZM81.6543 61.2422L95.7964 47.1001L75.383 26.6866L61.2409 40.8288L47.0987 54.9709L67.5122 75.3843L81.6543 61.2422Z" fill="#FAFAFA" mask="url(#path-236-inside-92_6_528)"/>
</g>
<defs>
<clipPath id="clip0_6_528">
<rect width="1021" height="143" fill="white"/>
</clipPath>
</defs>
</svg>
