<svg width="1197" height="100" viewBox="0 0 1197 100" fill="none" xmlns="http://www.w3.org/2000/svg">
<rect y="62" width="1196.86" height="10" fill="#FAFAFA"/>
<path d="M330.439 83L341.143 49.4H349.015L338.311 83H330.439ZM314.311 76.424L315.751 69.224H348.391L346.951 76.424H314.311ZM318.007 83L328.711 49.4H336.583L325.879 83H318.007ZM318.631 63.176L320.071 55.976H352.711L351.271 63.176H318.631Z" fill="black"/>
<path d="M363.657 83L365.049 76.04L379.113 65.24C380.137 64.44 380.921 63.752 381.465 63.176C382.041 62.6 382.441 62.056 382.665 61.544C382.889 61.032 383.001 60.52 383.001 60.008C383.001 59.272 382.713 58.68 382.137 58.232C381.593 57.784 380.857 57.56 379.929 57.56C378.937 57.56 377.977 57.848 377.049 58.424C376.153 58.968 375.337 59.752 374.601 60.776L367.065 56.12C368.377 53.848 370.313 52.04 372.873 50.696C375.465 49.32 378.393 48.632 381.657 48.632C384.153 48.632 386.377 49.048 388.329 49.88C390.313 50.712 391.865 51.848 392.985 53.288C394.105 54.728 394.665 56.376 394.665 58.232C394.665 59.608 394.409 60.936 393.897 62.216C393.417 63.464 392.585 64.744 391.401 66.056C390.249 67.336 388.665 68.744 386.649 70.28L376.281 78.152L374.937 74.216H392.361L390.585 83H363.657Z" fill="black"/>
<path d="M408.892 83.768C406.268 83.768 403.98 83.256 402.028 82.232C400.076 81.176 398.556 79.672 397.468 77.72C396.412 75.768 395.884 73.4 395.884 70.616C395.884 67.448 396.332 64.536 397.228 61.88C398.124 59.192 399.388 56.856 401.02 54.872C402.652 52.888 404.572 51.352 406.78 50.264C409.02 49.176 411.452 48.632 414.076 48.632C416.7 48.632 418.988 49.144 420.94 50.168C422.892 51.192 424.396 52.696 425.452 54.68C426.54 56.632 427.084 59 427.084 61.784C427.084 64.952 426.636 67.88 425.74 70.568C424.844 73.224 423.58 75.544 421.948 77.528C420.316 79.512 418.38 81.048 416.14 82.136C413.932 83.224 411.516 83.768 408.892 83.768ZM410.044 74.696C411.036 74.696 411.884 74.264 412.588 73.4C413.324 72.504 413.916 71.384 414.364 70.04C414.844 68.696 415.196 67.32 415.42 65.912C415.644 64.472 415.756 63.192 415.756 62.072C415.756 60.408 415.484 59.272 414.94 58.664C414.428 58.024 413.756 57.704 412.924 57.704C411.932 57.704 411.068 58.152 410.332 59.048C409.628 59.912 409.036 61.016 408.556 62.36C408.108 63.704 407.772 65.096 407.548 66.536C407.324 67.944 407.212 69.208 407.212 70.328C407.212 71.992 407.484 73.144 408.028 73.784C408.572 74.392 409.244 74.696 410.044 74.696Z" fill="black"/>
<path d="M425.626 83L427.018 76.04L441.082 65.24C442.106 64.44 442.89 63.752 443.434 63.176C444.01 62.6 444.41 62.056 444.634 61.544C444.858 61.032 444.97 60.52 444.97 60.008C444.97 59.272 444.682 58.68 444.106 58.232C443.562 57.784 442.826 57.56 441.898 57.56C440.906 57.56 439.946 57.848 439.018 58.424C438.122 58.968 437.306 59.752 436.57 60.776L429.034 56.12C430.346 53.848 432.282 52.04 434.842 50.696C437.434 49.32 440.362 48.632 443.626 48.632C446.122 48.632 448.346 49.048 450.298 49.88C452.282 50.712 453.834 51.848 454.954 53.288C456.074 54.728 456.634 56.376 456.634 58.232C456.634 59.608 456.378 60.936 455.866 62.216C455.386 63.464 454.554 64.744 453.37 66.056C452.218 67.336 450.634 68.744 448.618 70.28L438.25 78.152L436.906 74.216H454.33L452.554 83H425.626Z" fill="black"/>
<path d="M472.109 83.768C469.325 83.768 466.845 83.256 464.669 82.232C462.493 81.208 460.781 79.688 459.533 77.672C458.317 75.656 457.709 73.144 457.709 70.136C457.709 68.184 457.965 66.2 458.477 64.184C459.021 62.136 459.853 60.184 460.973 58.328C462.093 56.472 463.501 54.824 465.197 53.384C466.925 51.912 468.957 50.76 471.293 49.928C473.661 49.064 476.349 48.632 479.357 48.632C481.437 48.632 483.421 48.872 485.309 49.352C487.229 49.8 488.765 50.44 489.917 51.272L484.781 59.048C483.885 58.44 482.941 58.024 481.949 57.8C480.957 57.544 479.885 57.416 478.733 57.416C477.677 57.416 476.717 57.544 475.853 57.8C474.989 58.024 474.221 58.376 473.549 58.856C472.877 59.304 472.285 59.864 471.773 60.536C471.293 61.176 470.877 61.912 470.525 62.744C470.205 63.544 469.949 64.424 469.757 65.384C469.661 65.864 469.597 66.344 469.565 66.824C469.533 67.272 469.501 67.736 469.469 68.216L467.117 66.824C467.853 65.576 468.669 64.552 469.565 63.752C470.461 62.92 471.469 62.296 472.589 61.88C473.709 61.464 474.973 61.256 476.381 61.256C478.173 61.256 479.869 61.624 481.469 62.36C483.069 63.096 484.365 64.184 485.357 65.624C486.381 67.064 486.893 68.84 486.893 70.952C486.893 73.544 486.253 75.8 484.973 77.72C483.725 79.64 481.981 81.128 479.741 82.184C477.533 83.24 474.989 83.768 472.109 83.768ZM472.061 75.944C473.085 75.944 473.965 75.608 474.701 74.936C475.437 74.232 475.805 73.288 475.805 72.104C475.805 71.176 475.517 70.44 474.941 69.896C474.397 69.352 473.629 69.08 472.637 69.08C471.933 69.08 471.293 69.24 470.717 69.56C470.173 69.848 469.725 70.28 469.373 70.856C469.053 71.4 468.893 72.056 468.893 72.824C468.893 73.432 469.005 73.976 469.229 74.456C469.485 74.904 469.853 75.272 470.333 75.56C470.813 75.816 471.389 75.944 472.061 75.944Z" fill="black"/>
<path d="M485.832 90.68L492.552 77.192L493.704 83.48C491.944 83.48 490.504 82.952 489.384 81.896C488.296 80.808 487.752 79.432 487.752 77.768C487.752 75.752 488.408 74.136 489.72 72.92C491.064 71.704 492.68 71.096 494.568 71.096C496.36 71.096 497.784 71.624 498.84 72.68C499.928 73.736 500.472 75.112 500.472 76.808C500.472 77.704 500.296 78.552 499.944 79.352C499.624 80.152 499.048 81.16 498.216 82.376L492.552 90.68H485.832Z" fill="black"/>
<path d="M517.393 83L524.113 49.4H539.041C543.553 49.4 547.025 50.376 549.457 52.328C551.921 54.28 553.153 57.016 553.153 60.536C553.153 63.352 552.449 65.832 551.041 67.976C549.665 70.12 547.697 71.784 545.137 72.968C542.609 74.152 539.617 74.744 536.161 74.744H525.313L531.361 69.8L528.721 83H517.393ZM531.073 71.144L527.089 66.008H536.737C538.305 66.008 539.521 65.624 540.385 64.856C541.249 64.056 541.681 62.952 541.681 61.544C541.681 60.328 541.297 59.464 540.529 58.952C539.793 58.408 538.769 58.136 537.457 58.136H528.673L534.721 52.856L531.073 71.144Z" fill="black"/>
<path d="M552.596 83L559.316 49.4H574.388C578.836 49.4 582.276 50.376 584.708 52.328C587.14 54.248 588.356 56.952 588.356 60.44C588.356 63.256 587.652 65.72 586.244 67.832C584.868 69.944 582.9 71.592 580.34 72.776C577.812 73.96 574.82 74.552 571.364 74.552H560.516L566.564 69.8L563.924 83H552.596ZM573.14 83L566.228 70.76H577.892L584.9 83H573.14ZM566.276 71.144L562.292 66.008H571.94C573.508 66.008 574.724 65.624 575.588 64.856C576.452 64.056 576.884 62.952 576.884 61.544C576.884 60.328 576.5 59.464 575.732 58.952C574.996 58.408 573.972 58.136 572.66 58.136H563.876L569.924 52.856L566.276 71.144Z" fill="black"/>
<path d="M607.274 83.768C603.786 83.768 600.762 83.128 598.202 81.848C595.674 80.568 593.706 78.808 592.298 76.568C590.922 74.296 590.234 71.688 590.234 68.744C590.234 65.768 590.746 63.064 591.77 60.632C592.826 58.168 594.298 56.04 596.186 54.248C598.074 52.456 600.314 51.08 602.906 50.12C605.498 49.128 608.33 48.632 611.402 48.632C614.89 48.632 617.898 49.272 620.426 50.552C622.986 51.832 624.954 53.608 626.33 55.88C627.738 58.12 628.442 60.712 628.442 63.656C628.442 66.632 627.914 69.352 626.858 71.816C625.834 74.248 624.378 76.36 622.49 78.152C620.602 79.944 618.362 81.336 615.77 82.328C613.178 83.288 610.346 83.768 607.274 83.768ZM608.234 74.6C609.642 74.6 610.874 74.328 611.93 73.784C613.018 73.24 613.946 72.488 614.714 71.528C615.482 70.568 616.058 69.48 616.442 68.264C616.826 67.016 617.018 65.704 617.018 64.328C617.018 63.016 616.746 61.88 616.202 60.92C615.69 59.928 614.938 59.16 613.946 58.616C612.986 58.072 611.818 57.8 610.442 57.8C609.066 57.8 607.834 58.072 606.746 58.616C605.658 59.16 604.73 59.912 603.962 60.872C603.194 61.832 602.618 62.936 602.234 64.184C601.85 65.4 601.658 66.696 601.658 68.072C601.658 69.352 601.914 70.488 602.426 71.48C602.97 72.472 603.722 73.24 604.682 73.784C605.674 74.328 606.858 74.6 608.234 74.6Z" fill="black"/>
<path d="M637.658 83.768C634.842 83.768 632.41 83.336 630.362 82.472C628.346 81.608 626.714 80.312 625.466 78.584L632.714 71.72C633.45 72.776 634.234 73.576 635.066 74.12C635.93 74.632 636.858 74.888 637.85 74.888C638.938 74.888 639.818 74.568 640.49 73.928C641.194 73.288 641.658 72.376 641.882 71.192L644.522 57.944H633.098L634.826 49.4H657.434L653.21 70.52C652.57 73.752 651.578 76.344 650.234 78.296C648.89 80.216 647.162 81.608 645.05 82.472C642.97 83.336 640.506 83.768 637.658 83.768Z" fill="black"/>
<path d="M670.501 61.88H685.477L683.845 70.04H668.869L670.501 61.88ZM668.725 74.456H685.573L683.845 83H655.909L662.629 49.4H689.941L688.213 57.944H672.037L668.725 74.456Z" fill="black"/>
<path d="M707.309 83.768C703.853 83.768 700.829 83.144 698.237 81.896C695.645 80.616 693.629 78.856 692.189 76.616C690.781 74.344 690.077 71.72 690.077 68.744C690.077 65.8 690.589 63.096 691.613 60.632C692.669 58.168 694.141 56.04 696.029 54.248C697.917 52.456 700.157 51.08 702.749 50.12C705.341 49.128 708.189 48.632 711.293 48.632C714.525 48.632 717.389 49.208 719.885 50.36C722.381 51.512 724.237 53.176 725.453 55.352L717.293 61.736C716.589 60.488 715.677 59.528 714.557 58.856C713.437 58.152 712.109 57.8 710.573 57.8C709.229 57.8 707.997 58.056 706.877 58.568C705.789 59.048 704.845 59.752 704.045 60.68C703.245 61.576 702.621 62.648 702.173 63.896C701.725 65.144 701.501 66.52 701.501 68.024C701.501 69.336 701.789 70.488 702.365 71.48C702.941 72.472 703.741 73.24 704.765 73.784C705.821 74.328 707.037 74.6 708.413 74.6C709.725 74.6 711.005 74.296 712.253 73.688C713.533 73.08 714.749 72.088 715.901 70.712L722.573 77.096C720.525 79.592 718.237 81.336 715.709 82.328C713.213 83.288 710.413 83.768 707.309 83.768Z" fill="black"/>
<path d="M730.986 83L735.93 58.184H726.09L727.866 49.4H758.874L757.098 58.184H747.258L742.314 83H730.986Z" fill="black"/>
<path d="M769.487 83L776.207 49.4H785.519L798.143 69.848H794.207L798.287 49.4H809.327L802.607 83H793.295L780.671 62.552H784.607L780.527 83H769.487Z" fill="black"/>
<path d="M822.657 61.88H837.633L836.001 70.04H821.025L822.657 61.88ZM820.881 74.456H837.729L836.001 83H808.065L814.785 49.4H842.097L840.369 57.944H824.193L820.881 74.456Z" fill="black"/>
<path d="M851.93 76.088L853.61 63.368L868.586 49.4H881.594L864.362 65.048L856.682 71.672L851.93 76.088ZM840.362 83L847.082 49.4H858.218L851.498 83H840.362ZM863.066 83L854.954 69.944L863.354 62.36L875.69 83H863.066Z" fill="black"/>
<path d="M497.998 72C498.301 72.1952 498.581 72.4213 498.84 72.6797C499.928 73.7356 500.472 75.1118 500.472 76.8076C500.472 77.7035 500.296 78.5517 499.944 79.3516C499.624 80.1516 499.048 81.16 498.216 82.376L492.552 90.6797H485.832L489.969 82.376C489.765 82.2299 489.569 82.0706 489.384 81.8955C488.296 80.8076 487.752 79.4314 487.752 77.7676C487.752 75.7519 488.408 74.1358 489.72 72.9199C490.118 72.5593 490.542 72.2537 490.988 72H497.998ZM425.208 72C424.366 74.0663 423.28 75.9094 421.948 77.5283C420.316 79.5121 418.38 81.0478 416.141 82.1357C413.933 83.2237 411.516 83.7675 408.893 83.7676C406.269 83.7676 403.98 83.2563 402.028 82.2324C400.076 81.1764 398.557 79.6717 397.469 77.7197C396.592 76.0997 396.081 74.1932 395.932 72H407.33C407.458 72.792 407.691 73.3869 408.028 73.7842C408.572 74.392 409.244 74.6962 410.044 74.6963C411.036 74.6963 411.884 74.2641 412.588 73.4004C412.931 72.9828 413.241 72.5149 413.521 72H425.208ZM486.855 72C486.704 74.1567 486.077 76.0632 484.973 77.7197C483.725 79.6396 481.981 81.1276 479.741 82.1836C477.533 83.2396 474.989 83.7675 472.109 83.7676C469.325 83.7676 466.845 83.2564 464.669 82.2324C462.493 81.2084 460.781 79.6879 459.533 77.6719C458.578 76.0876 458 74.1969 457.795 72H468.962C468.916 72.2586 468.893 72.5335 468.893 72.8242C468.893 73.4321 469.006 73.9761 469.229 74.4561C469.485 74.9039 469.853 75.2716 470.333 75.5596C470.813 75.8156 471.39 75.9443 472.062 75.9443C473.085 75.9442 473.965 75.6074 474.701 74.9355C475.437 74.2316 475.805 73.2874 475.805 72.1035C475.805 72.0687 475.802 72.0343 475.801 72H486.855ZM626.777 72C625.758 74.3544 624.329 76.4058 622.489 78.1523C620.601 79.9442 618.361 81.3362 615.77 82.3281C613.178 83.2881 610.345 83.7676 607.273 83.7676C603.786 83.7676 600.762 83.1275 598.202 81.8477C595.674 80.5677 593.706 78.8082 592.298 76.5684C591.453 75.1726 590.868 73.6494 590.542 72H602.748C603.255 72.7435 603.897 73.3397 604.682 73.7842C605.674 74.3281 606.858 74.5996 608.233 74.5996C609.641 74.5996 610.874 74.3282 611.93 73.7842C612.832 73.3332 613.622 72.737 614.304 72H626.777ZM652.88 72C652.247 74.5526 651.366 76.6516 650.234 78.2959C648.89 80.2159 647.162 81.6077 645.05 82.4717C642.97 83.3356 640.506 83.7676 637.658 83.7676C634.842 83.7676 632.41 83.3356 630.362 82.4717C628.346 81.6077 626.714 80.312 625.466 78.584L632.418 72H632.917C633.594 72.918 634.31 73.6255 635.066 74.1201C635.93 74.6319 636.858 74.8876 637.85 74.8877C638.938 74.8877 639.818 74.5677 640.49 73.9277C641.025 73.4419 641.42 72.7992 641.678 72H652.88ZM722.573 77.0957C720.525 79.5917 718.237 81.3361 715.709 82.3281C713.213 83.288 710.413 83.7676 707.31 83.7676C703.854 83.7676 700.829 83.1435 698.237 81.8955C695.646 80.6156 693.629 78.856 692.189 76.6162C691.319 75.212 690.718 73.6731 690.386 72H702.707C703.245 72.7435 703.929 73.3397 704.766 73.7842C705.822 74.3281 707.037 74.5996 708.413 74.5996C709.725 74.5996 711.006 74.2965 712.254 73.6885C713.092 73.2906 713.901 72.7268 714.684 72H717.248L722.573 77.0957ZM346.951 76.4238H340.406L338.312 83H330.439L332.534 76.4238H327.974L325.879 83H318.007L320.102 76.4238H314.312L315.196 72H347.836L346.951 76.4238ZM381.466 74.2158H392.361L390.585 83H363.657L365.049 76.04L370.311 72H384.385L381.466 74.2158ZM443.435 74.2158H454.33L452.554 83H425.626L427.018 76.04L432.279 72H446.354L443.435 74.2158ZM546.93 72C546.368 72.3521 545.771 72.6746 545.137 72.9678C542.609 74.1517 539.617 74.7441 536.161 74.7441H530.372L528.721 83H517.393L519.593 72H546.93ZM581.819 72C581.35 72.2773 580.857 72.537 580.34 72.7764C580.001 72.9349 579.654 73.0814 579.299 73.2188L584.9 83H573.14L568.369 74.5518H565.614L563.924 83H552.596L554.796 72H581.819ZM668.725 74.4561H685.572L683.845 83H655.908L658.108 72H669.217L668.725 74.4561ZM742.313 83H730.985L733.177 72H744.505L742.313 83ZM780.526 83H769.486L771.687 72H782.721L780.526 83ZM802.606 83H793.295L786.504 72H804.807L802.606 83ZM820.881 74.4561H837.729L836.001 83H808.064L810.265 72H821.373L820.881 74.4561ZM875.689 83H863.065L856.267 72.0566L853.097 75.002L851.498 83H840.361L842.562 72H869.115L875.689 83ZM334.488 55.9756H339.049L341.144 49.4004H349.016L346.921 55.9756H352.711L351.507 62H318.866L320.071 55.9756H326.616L328.711 49.4004H336.583L334.488 55.9756ZM381.657 48.6318C384.153 48.6318 386.377 49.0479 388.329 49.8799C390.313 50.7119 391.865 51.8481 392.985 53.2881C394.105 54.728 394.665 56.3765 394.665 58.2324C394.665 59.5314 394.434 60.7865 393.978 62H382.423C382.518 61.845 382.6 61.6934 382.665 61.5439C382.889 61.0319 383.001 60.5198 383.001 60.0078C383.001 59.2719 382.713 58.6804 382.137 58.2324C381.593 57.7844 380.857 57.5596 379.929 57.5596C378.937 57.5597 377.977 57.8479 377.049 58.4238C376.153 58.9678 375.338 59.7524 374.602 60.7764L367.065 56.1201C368.377 53.8482 370.313 52.0403 372.873 50.6963C375.465 49.3203 378.393 48.6318 381.657 48.6318ZM414.076 48.6318C416.7 48.6318 418.988 49.144 420.94 50.168C422.892 51.1919 424.396 52.6959 425.452 54.6797C426.54 56.6317 427.084 59.0002 427.084 61.7842C427.084 61.8562 427.082 61.9282 427.082 62H415.754C415.746 60.3753 415.476 59.2633 414.94 58.6641C414.428 58.0241 413.756 57.7041 412.924 57.7041C411.932 57.7042 411.068 58.152 410.332 59.0479C409.692 59.8333 409.146 60.8179 408.691 62H397.189C397.203 61.9601 397.215 61.9197 397.229 61.8799C398.125 59.192 399.389 56.856 401.021 54.8721C402.652 52.8881 404.572 51.3517 406.78 50.2637C409.02 49.1757 411.452 48.6319 414.076 48.6318ZM443.626 48.6318C446.122 48.6318 448.346 49.0479 450.298 49.8799C452.282 50.7119 453.834 51.8481 454.954 53.2881C456.074 54.728 456.634 56.3765 456.634 58.2324C456.634 59.5314 456.403 60.7865 455.946 62H444.392C444.487 61.845 444.568 61.6934 444.634 61.5439C444.858 61.0319 444.97 60.5198 444.97 60.0078C444.97 59.2719 444.681 58.6804 444.105 58.2324C443.561 57.7844 442.825 57.5596 441.897 57.5596C440.906 57.5597 439.945 57.8479 439.018 58.4238C438.122 58.9678 437.306 59.7524 436.57 60.7764L429.034 56.1201C430.346 53.8482 432.282 52.0403 434.842 50.6963C437.434 49.3203 440.362 48.6318 443.626 48.6318ZM479.357 48.6318C481.437 48.6319 483.421 48.8717 485.309 49.3516C487.229 49.7996 488.765 50.4405 489.917 51.2725L484.781 59.0479C483.885 58.4399 482.941 58.0238 481.949 57.7998C480.957 57.5438 479.885 57.416 478.733 57.416C477.678 57.416 476.717 57.5439 475.854 57.7998C474.99 58.0238 474.221 58.3764 473.549 58.8564C472.877 59.3044 472.285 59.8643 471.773 60.5361C471.442 60.9782 471.142 61.4664 470.871 62H459.182C459.662 60.7371 460.258 59.5128 460.973 58.3281C462.093 56.4721 463.501 54.8238 465.197 53.3838C466.925 51.9119 468.957 50.7597 471.293 49.9277C473.661 49.0637 476.349 48.6318 479.357 48.6318ZM476.381 61.2559C477.852 61.2559 479.258 61.5041 480.6 62H472.289C472.388 61.959 472.488 61.9175 472.589 61.8799C473.709 61.4639 474.973 61.2559 476.381 61.2559ZM539.041 49.4004C543.553 49.4004 547.025 50.3761 549.457 52.3281C551.921 54.2801 553.153 57.0162 553.153 60.5361C553.153 61.0346 553.13 61.5226 553.086 62H541.664C541.675 61.8517 541.681 61.6997 541.681 61.5439C541.681 60.3282 541.297 59.4642 540.529 58.9521C539.793 58.4082 538.769 58.1358 537.457 58.1357H533.668L532.897 62H521.593L524.113 49.4004H539.041ZM574.388 49.4004C578.836 49.4004 582.276 50.3761 584.708 52.3281C587.14 54.2481 588.356 56.9525 588.356 60.4404C588.356 60.9729 588.331 61.4927 588.28 62H576.867C576.878 61.8517 576.884 61.6997 576.884 61.5439C576.884 60.3282 576.5 59.4642 575.732 58.9521C574.996 58.4082 573.972 58.1358 572.66 58.1357H568.871L568.101 62H556.796L559.316 49.4004H574.388ZM611.401 48.6318C614.889 48.6318 617.898 49.2718 620.426 50.5518C622.986 51.8318 624.954 53.6079 626.33 55.8799C627.468 57.69 628.145 59.7302 628.363 62H616.673C616.549 61.6185 616.394 61.2578 616.202 60.9199C615.69 59.9279 614.937 59.1602 613.945 58.6162C612.985 58.0723 611.817 57.7998 610.441 57.7998C609.066 57.7998 607.834 58.0723 606.746 58.6162C605.658 59.1602 604.73 59.9121 603.962 60.8721C603.677 61.2282 603.419 61.6042 603.187 62H591.258C591.411 61.5349 591.581 61.0786 591.77 60.6318C592.826 58.1679 594.298 56.04 596.186 54.248C598.073 52.4561 600.313 51.0801 602.905 50.1201C605.497 49.1281 608.329 48.6319 611.401 48.6318ZM654.914 62H643.714L644.522 57.9443H633.098L634.826 49.4004H657.434L654.914 62ZM688.213 57.9443H672.036L671.247 61.8799H685.477L685.452 62H660.108L662.629 49.4004H689.94L688.213 57.9443ZM711.293 48.6318C714.525 48.6318 717.39 49.2084 719.886 50.3604C722.381 51.5123 724.237 53.1759 725.453 55.3516L717.293 61.7363C716.589 60.4885 715.677 59.5284 714.558 58.8564C713.438 58.1524 712.109 57.7998 710.573 57.7998C709.229 57.7998 707.997 58.0564 706.877 58.5684C705.789 59.0483 704.846 59.752 704.046 60.6797C703.685 61.0835 703.362 61.5247 703.073 62H691.106C691.259 61.5361 691.427 61.0798 691.613 60.6318C692.669 58.1679 694.141 56.04 696.029 54.248C697.917 52.4561 700.157 51.0801 702.749 50.1201C705.341 49.1282 708.189 48.6319 711.293 48.6318ZM757.098 58.1836H747.258L746.497 62H735.169L735.93 58.1836H726.09L727.866 49.4004H758.874L757.098 58.1836ZM793.298 62H773.687L776.207 49.4004H785.519L793.298 62ZM806.807 62H795.772L798.287 49.4004H809.327L806.807 62ZM840.369 57.9443H824.192L823.403 61.8799H837.633L837.608 62H812.265L814.785 49.4004H842.097L840.369 57.9443ZM855.84 61.2871L868.586 49.4004H881.594L867.718 62H844.562L847.082 49.4004H858.218L855.84 61.2871Z" fill="#FAFAFA"/>
<rect y="28.3906" width="1196.86" height="15" fill="#FAFAFA"/>
<path d="M84.5969 28.5824H99.5729L97.9409 36.7424H82.9649L84.5969 28.5824ZM82.8209 41.1584H99.6689L97.9409 49.7024H70.0049L76.7249 16.1024H104.037L102.309 24.6464H86.1329L82.8209 41.1584Z" fill="black"/>
<path d="M102.302 49.7024L109.022 16.1024H118.238L127.214 38.0384H122.318L139.598 16.1024H149.246L142.622 49.7024H132.302L135.806 31.6544L137.438 31.5584L125.822 46.6784H120.83L114.302 31.5104L116.222 31.6544L112.622 49.7024H102.302Z" fill="black"/>
<path d="M167.011 50.4704C163.523 50.4704 160.499 49.8304 157.939 48.5504C155.411 47.2704 153.443 45.5104 152.035 43.2704C150.659 40.9984 149.971 38.3904 149.971 35.4464C149.971 32.4704 150.483 29.7664 151.507 27.3344C152.563 24.8704 154.035 22.7424 155.923 20.9504C157.811 19.1584 160.051 17.7824 162.643 16.8224C165.235 15.8304 168.067 15.3344 171.139 15.3344C174.627 15.3344 177.635 15.9744 180.163 17.2544C182.723 18.5344 184.691 20.3104 186.067 22.5824C187.475 24.8224 188.179 27.4144 188.179 30.3584C188.179 33.3344 187.651 36.0544 186.595 38.5184C185.571 40.9504 184.115 43.0624 182.227 44.8544C180.339 46.6464 178.099 48.0384 175.507 49.0304C172.915 49.9904 170.083 50.4704 167.011 50.4704ZM167.971 41.3024C169.379 41.3024 170.611 41.0304 171.667 40.4864C172.755 39.9424 173.683 39.1904 174.451 38.2304C175.219 37.2704 175.795 36.1824 176.179 34.9664C176.563 33.7184 176.755 32.4064 176.755 31.0304C176.755 29.7184 176.483 28.5824 175.939 27.6224C175.427 26.6304 174.675 25.8624 173.683 25.3184C172.723 24.7744 171.555 24.5024 170.179 24.5024C168.803 24.5024 167.571 24.7744 166.483 25.3184C165.395 25.8624 164.467 26.6144 163.699 27.5744C162.931 28.5344 162.355 29.6384 161.971 30.8864C161.587 32.1024 161.395 33.3984 161.395 34.7744C161.395 36.0544 161.651 37.1904 162.163 38.1824C162.707 39.1744 163.459 39.9424 164.419 40.4864C165.411 41.0304 166.595 41.3024 167.971 41.3024Z" fill="black"/>
<path d="M195.613 49.7024L200.557 24.8864H190.717L192.493 16.1024H223.501L221.725 24.8864H211.885L206.941 49.7024H195.613Z" fill="black"/>
<path d="M219.724 49.7024L226.444 16.1024H237.772L231.052 49.7024H219.724Z" fill="black"/>
<path d="M255.417 50.4704C251.929 50.4704 248.905 49.8304 246.345 48.5504C243.817 47.2704 241.849 45.5104 240.441 43.2704C239.065 40.9984 238.377 38.3904 238.377 35.4464C238.377 32.4704 238.889 29.7664 239.913 27.3344C240.969 24.8704 242.441 22.7424 244.329 20.9504C246.217 19.1584 248.457 17.7824 251.049 16.8224C253.641 15.8304 256.473 15.3344 259.545 15.3344C263.033 15.3344 266.041 15.9744 268.569 17.2544C271.129 18.5344 273.097 20.3104 274.473 22.5824C275.881 24.8224 276.585 27.4144 276.585 30.3584C276.585 33.3344 276.057 36.0544 275.001 38.5184C273.977 40.9504 272.521 43.0624 270.633 44.8544C268.745 46.6464 266.505 48.0384 263.913 49.0304C261.321 49.9904 258.489 50.4704 255.417 50.4704ZM256.377 41.3024C257.785 41.3024 259.017 41.0304 260.073 40.4864C261.161 39.9424 262.089 39.1904 262.857 38.2304C263.625 37.2704 264.201 36.1824 264.585 34.9664C264.969 33.7184 265.161 32.4064 265.161 31.0304C265.161 29.7184 264.889 28.5824 264.345 27.6224C263.833 26.6304 263.081 25.8624 262.089 25.3184C261.129 24.7744 259.961 24.5024 258.585 24.5024C257.209 24.5024 255.977 24.7744 254.889 25.3184C253.801 25.8624 252.873 26.6144 252.105 27.5744C251.337 28.5344 250.761 29.6384 250.377 30.8864C249.993 32.1024 249.801 33.3984 249.801 34.7744C249.801 36.0544 250.057 37.1904 250.569 38.1824C251.113 39.1744 251.865 39.9424 252.825 40.4864C253.817 41.0304 255.001 41.3024 256.377 41.3024Z" fill="black"/>
<path d="M277.192 49.7024L283.912 16.1024H293.224L305.848 36.5504H301.912L305.992 16.1024H317.032L310.312 49.7024H301L288.376 29.2544H292.312L288.232 49.7024H277.192Z" fill="black"/>
<path d="M312.123 49.7024L333.531 16.1024H344.667L352.635 49.7024H341.355L335.931 21.3344H340.346L324.075 49.7024H312.123ZM322.011 43.8464L326.523 35.6864H341.979L343.227 43.8464H322.011Z" fill="black"/>
<path d="M354.442 49.7024L361.162 16.1024H372.49L367.546 40.9184H382.714L380.938 49.7024H354.442Z" fill="black"/>
<path d="M398.458 49.7024L405.178 16.1024H414.394L423.37 38.0384H418.474L435.754 16.1024H445.402L438.778 49.7024H428.458L431.962 31.6544L433.594 31.5584L421.978 46.6784H416.986L410.458 31.5104L412.378 31.6544L408.778 49.7024H398.458Z" fill="black"/>
<path d="M461.199 50.4704C457.711 50.4704 454.799 49.8144 452.463 48.5024C450.127 47.1584 448.463 45.3024 447.471 42.9344C446.511 40.5344 446.351 37.7504 446.991 34.5824L450.687 16.1024H462.015L458.367 34.3904C458.143 35.5744 458.063 36.5984 458.127 37.4624C458.191 38.3264 458.399 39.0464 458.751 39.6224C459.135 40.1984 459.647 40.6304 460.287 40.9184C460.927 41.1744 461.695 41.3024 462.591 41.3024C463.679 41.3024 464.607 41.0784 465.375 40.6304C466.175 40.1824 466.831 39.4464 467.343 38.4224C467.887 37.3984 468.319 36.0544 468.639 34.3904L472.287 16.1024H483.423L479.631 35.0624C478.639 40.0864 476.607 43.9104 473.535 46.5344C470.463 49.1584 466.351 50.4704 461.199 50.4704Z" fill="black"/>
<path d="M495.24 50.4704C493.255 50.4704 491.352 50.3264 489.527 50.0384C487.703 49.7504 486.04 49.3504 484.536 48.8384C483.064 48.2944 481.784 47.7024 480.695 47.0624L485.064 38.7104C486.311 39.4144 487.56 40.0064 488.807 40.4864C490.087 40.9344 491.352 41.2704 492.6 41.4944C493.88 41.7184 495.144 41.8304 496.392 41.8304C497.384 41.8304 498.199 41.7504 498.84 41.5904C499.512 41.4304 500.008 41.2064 500.328 40.9184C500.68 40.5984 500.855 40.2464 500.855 39.8624C500.855 39.3504 500.568 38.9344 499.992 38.6144C499.416 38.2944 498.647 38.0064 497.688 37.7504C496.759 37.4944 495.72 37.2384 494.568 36.9824C493.448 36.6944 492.312 36.3424 491.16 35.9264C490.008 35.4784 488.952 34.9184 487.992 34.2464C487.064 33.5744 486.311 32.7264 485.736 31.7024C485.16 30.6784 484.872 29.4304 484.872 27.9584C484.872 25.3984 485.544 23.1744 486.888 21.2864C488.264 19.3984 490.215 17.9424 492.743 16.9184C495.303 15.8624 498.344 15.3344 501.863 15.3344C504.359 15.3344 506.68 15.5904 508.824 16.1024C511 16.5824 512.872 17.2864 514.44 18.2144L510.359 26.4704C509.016 25.6384 507.544 25.0144 505.944 24.5984C504.376 24.1824 502.776 23.9744 501.144 23.9744C500.056 23.9744 499.143 24.0864 498.408 24.3104C497.672 24.5024 497.112 24.7744 496.728 25.1264C496.376 25.4784 496.199 25.8464 496.199 26.2304C496.199 26.7424 496.488 27.1744 497.064 27.5264C497.639 27.8464 498.408 28.1344 499.368 28.3904C500.328 28.6144 501.368 28.8704 502.488 29.1584C503.64 29.4144 504.776 29.7504 505.896 30.1664C507.048 30.5504 508.104 31.0784 509.064 31.7504C510.023 32.3904 510.792 33.2224 511.368 34.2464C511.944 35.2384 512.232 36.4704 512.232 37.9424C512.232 40.4384 511.544 42.6304 510.168 44.5184C508.792 46.3744 506.824 47.8304 504.264 48.8864C501.736 49.9424 498.728 50.4704 495.24 50.4704Z" fill="black"/>
<path d="M513.442 49.7024L520.162 16.1024H531.49L524.77 49.7024H513.442Z" fill="black"/>
<path d="M549.328 50.4704C545.872 50.4704 542.848 49.8464 540.256 48.5984C537.664 47.3184 535.648 45.5584 534.208 43.3184C532.8 41.0464 532.096 38.4224 532.096 35.4464C532.096 32.5024 532.608 29.7984 533.632 27.3344C534.688 24.8704 536.16 22.7424 538.048 20.9504C539.936 19.1584 542.176 17.7824 544.768 16.8224C547.36 15.8304 550.208 15.3344 553.312 15.3344C556.544 15.3344 559.408 15.9104 561.904 17.0624C564.4 18.2144 566.256 19.8784 567.472 22.0544L559.312 28.4384C558.608 27.1904 557.696 26.2304 556.576 25.5584C555.456 24.8544 554.128 24.5024 552.592 24.5024C551.248 24.5024 550.016 24.7584 548.896 25.2704C547.808 25.7504 546.864 26.4544 546.064 27.3824C545.264 28.2784 544.64 29.3504 544.192 30.5984C543.744 31.8464 543.52 33.2224 543.52 34.7264C543.52 36.0384 543.808 37.1904 544.384 38.1824C544.96 39.1744 545.76 39.9424 546.784 40.4864C547.84 41.0304 549.056 41.3024 550.432 41.3024C551.744 41.3024 553.024 40.9984 554.272 40.3904C555.552 39.7824 556.768 38.7904 557.92 37.4144L564.592 43.7984C562.544 46.2944 560.256 48.0384 557.728 49.0304C555.232 49.9904 552.432 50.4704 549.328 50.4704Z" fill="black"/>
<path d="M587.629 49.7024L592.573 24.8864H582.733L584.509 16.1024H615.517L613.741 24.8864H603.901L598.957 49.7024H587.629Z" fill="black"/>
<path d="M611.739 49.7024L618.459 16.1024H633.531C637.979 16.1024 641.419 17.0784 643.851 19.0304C646.283 20.9504 647.499 23.6544 647.499 27.1424C647.499 29.9584 646.795 32.4224 645.387 34.5344C644.011 36.6464 642.043 38.2944 639.483 39.4784C636.955 40.6624 633.963 41.2544 630.507 41.2544H619.659L625.707 36.5024L623.067 49.7024H611.739ZM632.283 49.7024L625.371 37.4624H637.035L644.043 49.7024H632.283ZM625.419 37.8464L621.435 32.7104H631.083C632.651 32.7104 633.867 32.3264 634.731 31.5584C635.595 30.7584 636.027 29.6544 636.027 28.2464C636.027 27.0304 635.643 26.1664 634.875 25.6544C634.139 25.1104 633.115 24.8384 631.803 24.8384H623.019L629.067 19.5584L625.419 37.8464Z" fill="black"/>
<path d="M643.857 49.7024L665.265 16.1024H676.401L684.369 49.7024H673.089L667.665 21.3344H672.081L655.809 49.7024H643.857ZM653.745 43.8464L658.257 35.6864H673.713L674.961 43.8464H653.745Z" fill="black"/>
<path d="M704.812 50.4704C701.356 50.4704 698.332 49.8464 695.74 48.5984C693.148 47.3184 691.132 45.5584 689.692 43.3184C688.284 41.0464 687.58 38.4224 687.58 35.4464C687.58 32.5024 688.092 29.7984 689.116 27.3344C690.172 24.8704 691.644 22.7424 693.532 20.9504C695.42 19.1584 697.66 17.7824 700.252 16.8224C702.844 15.8304 705.692 15.3344 708.796 15.3344C712.028 15.3344 714.892 15.9104 717.388 17.0624C719.884 18.2144 721.74 19.8784 722.956 22.0544L714.796 28.4384C714.092 27.1904 713.18 26.2304 712.06 25.5584C710.94 24.8544 709.612 24.5024 708.076 24.5024C706.732 24.5024 705.5 24.7584 704.38 25.2704C703.292 25.7504 702.348 26.4544 701.548 27.3824C700.748 28.2784 700.124 29.3504 699.676 30.5984C699.228 31.8464 699.004 33.2224 699.004 34.7264C699.004 36.0384 699.292 37.1904 699.868 38.1824C700.444 39.1744 701.244 39.9424 702.268 40.4864C703.324 41.0304 704.54 41.3024 705.916 41.3024C707.228 41.3024 708.508 40.9984 709.756 40.3904C711.036 39.7824 712.252 38.7904 713.404 37.4144L720.076 43.7984C718.028 46.2944 715.74 48.0384 713.212 49.0304C710.716 49.9904 707.916 50.4704 704.812 50.4704Z" fill="black"/>
<path d="M732.995 42.7904L734.675 30.0704L749.651 16.1024H762.659L745.427 31.7504L737.747 38.3744L732.995 42.7904ZM721.427 49.7024L728.147 16.1024H739.283L732.563 49.7024H721.427ZM744.131 49.7024L736.019 36.6464L744.419 29.0624L756.755 49.7024H744.131Z" fill="black"/>
<path d="M770.771 50.4704C768.787 50.4704 766.883 50.3264 765.059 50.0384C763.235 49.7504 761.571 49.3504 760.067 48.8384C758.595 48.2944 757.315 47.7024 756.227 47.0624L760.595 38.7104C761.843 39.4144 763.091 40.0064 764.339 40.4864C765.619 40.9344 766.883 41.2704 768.131 41.4944C769.411 41.7184 770.675 41.8304 771.923 41.8304C772.915 41.8304 773.731 41.7504 774.371 41.5904C775.043 41.4304 775.539 41.2064 775.859 40.9184C776.211 40.5984 776.387 40.2464 776.387 39.8624C776.387 39.3504 776.099 38.9344 775.523 38.6144C774.947 38.2944 774.179 38.0064 773.219 37.7504C772.291 37.4944 771.251 37.2384 770.099 36.9824C768.979 36.6944 767.843 36.3424 766.691 35.9264C765.539 35.4784 764.483 34.9184 763.523 34.2464C762.595 33.5744 761.843 32.7264 761.267 31.7024C760.691 30.6784 760.403 29.4304 760.403 27.9584C760.403 25.3984 761.075 23.1744 762.419 21.2864C763.795 19.3984 765.747 17.9424 768.275 16.9184C770.835 15.8624 773.875 15.3344 777.395 15.3344C779.891 15.3344 782.211 15.5904 784.355 16.1024C786.531 16.5824 788.403 17.2864 789.971 18.2144L785.891 26.4704C784.547 25.6384 783.075 25.0144 781.475 24.5984C779.907 24.1824 778.307 23.9744 776.675 23.9744C775.587 23.9744 774.675 24.0864 773.939 24.3104C773.203 24.5024 772.643 24.7744 772.259 25.1264C771.907 25.4784 771.731 25.8464 771.731 26.2304C771.731 26.7424 772.019 27.1744 772.595 27.5264C773.171 27.8464 773.939 28.1344 774.899 28.3904C775.859 28.6144 776.899 28.8704 778.019 29.1584C779.171 29.4144 780.307 29.7504 781.427 30.1664C782.579 30.5504 783.635 31.0784 784.595 31.7504C785.555 32.3904 786.323 33.2224 786.899 34.2464C787.475 35.2384 787.763 36.4704 787.763 37.9424C787.763 40.4384 787.075 42.6304 785.699 44.5184C784.323 46.3744 782.355 47.8304 779.795 48.8864C777.267 49.9424 774.259 50.4704 770.771 50.4704Z" fill="black"/>
<path d="M803.364 49.7024L810.084 16.1024H825.156C829.604 16.1024 833.044 17.0784 835.476 19.0304C837.908 20.9504 839.124 23.6544 839.124 27.1424C839.124 29.9584 838.42 32.4224 837.012 34.5344C835.636 36.6464 833.668 38.2944 831.108 39.4784C828.58 40.6624 825.588 41.2544 822.132 41.2544H811.284L817.332 36.5024L814.692 49.7024H803.364ZM823.908 49.7024L816.996 37.4624H828.66L835.668 49.7024H823.908ZM817.044 37.8464L813.06 32.7104H822.708C824.276 32.7104 825.492 32.3264 826.356 31.5584C827.22 30.7584 827.652 29.6544 827.652 28.2464C827.652 27.0304 827.268 26.1664 826.5 25.6544C825.764 25.1104 824.74 24.8384 823.428 24.8384H814.644L820.692 19.5584L817.044 37.8464Z" fill="black"/>
<path d="M835.482 49.7024L856.89 16.1024H868.026L875.994 49.7024H864.714L859.29 21.3344H863.706L847.434 49.7024H835.482ZM845.37 43.8464L849.882 35.6864H865.338L866.586 43.8464H845.37Z" fill="black"/>
<path d="M883.41 49.7024L888.354 24.8864H878.514L880.29 16.1024H911.298L909.522 24.8864H899.682L894.738 49.7024H883.41Z" fill="black"/>
<path d="M907.521 49.7024L914.24 16.1024H925.568L918.849 49.7024H907.521Z" fill="black"/>
<path d="M924.302 49.7024L931.022 16.1024H940.334L952.958 36.5504H949.022L953.102 16.1024H964.142L957.422 49.7024H948.11L935.486 29.2544H939.422L935.342 49.7024H924.302Z" fill="black"/>
<path d="M981.984 50.4704C978.528 50.4704 975.504 49.8464 972.912 48.5984C970.32 47.3184 968.304 45.5584 966.864 43.3184C965.456 41.0464 964.752 38.4224 964.752 35.4464C964.752 32.5024 965.264 29.7984 966.288 27.3344C967.344 24.8704 968.832 22.7424 970.752 20.9504C972.672 19.1584 974.944 17.7824 977.568 16.8224C980.224 15.8304 983.152 15.3344 986.352 15.3344C989.872 15.3344 992.896 15.8944 995.424 17.0144C997.984 18.1024 1000.05 19.7344 1001.62 21.9104L993.504 28.1984C992.416 26.7904 991.264 25.8304 990.048 25.3184C988.832 24.7744 987.424 24.5024 985.824 24.5024C984.352 24.5024 983.024 24.7584 981.84 25.2704C980.656 25.7504 979.632 26.4544 978.768 27.3824C977.936 28.2784 977.296 29.3504 976.848 30.5984C976.4 31.8464 976.176 33.2224 976.176 34.7264C976.176 36.0384 976.464 37.1904 977.04 38.1824C977.648 39.1744 978.496 39.9424 979.584 40.4864C980.704 41.0304 982.032 41.3024 983.568 41.3024C984.848 41.3024 986.128 41.0944 987.408 40.6784C988.688 40.2304 990 39.4784 991.344 38.4224L995.616 46.4864C993.856 47.7664 991.808 48.7584 989.472 49.4624C987.136 50.1344 984.64 50.4704 981.984 50.4704ZM986.112 44.7584L988.656 31.9904H998.496L995.616 46.4864L986.112 44.7584Z" fill="black"/>
<path d="M1014.16 49.7024L1020.88 16.1024H1032.21L1027.27 40.9184H1042.43L1040.66 49.7024H1014.16Z" fill="black"/>
<path d="M1043.79 49.7024L1050.51 16.1024H1061.83L1055.11 49.7024H1043.79Z" fill="black"/>
<path d="M1073.91 50.4704C1071.93 50.4704 1070.02 50.3264 1068.2 50.0384C1066.38 49.7504 1064.71 49.3504 1063.21 48.8384C1061.74 48.2944 1060.46 47.7024 1059.37 47.0624L1063.74 38.7104C1064.98 39.4144 1066.23 40.0064 1067.48 40.4864C1068.76 40.9344 1070.02 41.2704 1071.27 41.4944C1072.55 41.7184 1073.82 41.8304 1075.06 41.8304C1076.06 41.8304 1076.87 41.7504 1077.51 41.5904C1078.18 41.4304 1078.68 41.2064 1079 40.9184C1079.35 40.5984 1079.53 40.2464 1079.53 39.8624C1079.53 39.3504 1079.24 38.9344 1078.66 38.6144C1078.09 38.2944 1077.32 38.0064 1076.36 37.7504C1075.43 37.4944 1074.39 37.2384 1073.24 36.9824C1072.12 36.6944 1070.98 36.3424 1069.83 35.9264C1068.68 35.4784 1067.62 34.9184 1066.66 34.2464C1065.74 33.5744 1064.98 32.7264 1064.41 31.7024C1063.83 30.6784 1063.54 29.4304 1063.54 27.9584C1063.54 25.3984 1064.22 23.1744 1065.56 21.2864C1066.94 19.3984 1068.89 17.9424 1071.42 16.9184C1073.98 15.8624 1077.02 15.3344 1080.54 15.3344C1083.03 15.3344 1085.35 15.5904 1087.5 16.1024C1089.67 16.5824 1091.54 17.2864 1093.11 18.2144L1089.03 26.4704C1087.69 25.6384 1086.22 25.0144 1084.62 24.5984C1083.05 24.1824 1081.45 23.9744 1079.82 23.9744C1078.73 23.9744 1077.82 24.0864 1077.08 24.3104C1076.34 24.5024 1075.78 24.7744 1075.4 25.1264C1075.05 25.4784 1074.87 25.8464 1074.87 26.2304C1074.87 26.7424 1075.16 27.1744 1075.74 27.5264C1076.31 27.8464 1077.08 28.1344 1078.04 28.3904C1079 28.6144 1080.04 28.8704 1081.16 29.1584C1082.31 29.4144 1083.45 29.7504 1084.57 30.1664C1085.72 30.5504 1086.78 31.0784 1087.74 31.7504C1088.7 32.3904 1089.46 33.2224 1090.04 34.2464C1090.62 35.2384 1090.9 36.4704 1090.9 37.9424C1090.9 40.4384 1090.22 42.6304 1088.84 44.5184C1087.46 46.3744 1085.5 47.8304 1082.94 48.8864C1080.41 49.9424 1077.4 50.4704 1073.91 50.4704Z" fill="black"/>
<path d="M1098.94 49.7024L1103.89 24.8864H1094.05L1095.82 16.1024H1126.83L1125.05 24.8864H1115.21L1110.27 49.7024H1098.94Z" fill="black"/>
<path d="M183.611 43.3911C183.179 43.9003 182.717 44.3881 182.227 44.854C180.339 46.646 178.099 48.0388 175.507 49.0308C172.915 49.9907 170.083 50.4702 167.011 50.4702C163.523 50.4702 160.499 49.8302 157.939 48.5503C155.457 47.2936 153.517 45.5732 152.114 43.3911H183.611ZM272.018 43.3911C271.585 43.9003 271.124 44.3881 270.633 44.854C268.745 46.646 266.505 48.0388 263.913 49.0308C261.321 49.9907 258.489 50.4702 255.417 50.4702C251.929 50.4702 248.906 49.8302 246.346 48.5503C243.864 47.2936 241.923 45.5732 240.521 43.3911H272.018ZM476.343 43.3911C475.531 44.5817 474.595 45.6297 473.535 46.5347C470.463 49.1586 466.351 50.4702 461.199 50.4702C457.711 50.4702 454.799 49.8145 452.463 48.5025C450.279 47.2461 448.683 45.5422 447.674 43.3911H476.343ZM510.887 43.3911C510.672 43.778 510.433 44.1539 510.168 44.5181C508.792 46.3741 506.824 47.8303 504.264 48.8863C501.736 49.9422 498.728 50.4702 495.24 50.4702C493.256 50.4702 491.352 50.3266 489.528 50.0386C487.704 49.7506 486.04 49.3504 484.536 48.8384C483.064 48.2944 481.784 47.702 480.696 47.062L482.616 43.3911H510.887ZM564.592 43.7984C562.544 46.2943 560.256 48.0388 557.728 49.0308C555.232 49.9906 552.432 50.4702 549.328 50.4702C545.872 50.4702 542.848 49.8462 540.256 48.5982C537.692 47.3321 535.693 45.5963 534.256 43.3911H564.166L564.592 43.7984ZM720.076 43.7984C718.028 46.2942 715.741 48.0388 713.213 49.0308C710.717 49.9908 707.916 50.4702 704.812 50.4702C701.357 50.4702 698.332 49.8462 695.74 48.5982C693.177 47.3321 691.177 45.5963 689.74 43.3911H719.65L720.076 43.7984ZM786.418 43.3911C786.204 43.778 785.965 44.1539 785.699 44.5181C784.323 46.3741 782.355 47.8303 779.795 48.8863C777.267 49.9422 774.259 50.4702 770.771 50.4702C768.788 50.4702 766.883 50.3266 765.06 50.0386C763.236 49.7506 761.571 49.3504 760.067 48.8384C758.595 48.2944 757.315 47.702 756.228 47.062L758.147 43.3911H786.418ZM995.616 46.4868L995.283 46.7232C993.599 47.8894 991.663 48.8024 989.473 49.4624C987.137 50.1344 984.64 50.4702 981.984 50.4702C978.528 50.4702 975.504 49.8462 972.912 48.5982C970.348 47.3321 968.349 45.5963 966.912 43.3911H996.231L995.616 46.4868ZM1089.56 43.3911C1089.34 43.778 1089.11 44.1539 1088.84 44.5181C1087.46 46.3741 1085.5 47.8303 1082.94 48.8863C1080.41 49.9422 1077.4 50.4702 1073.91 50.4702C1071.93 50.4702 1070.02 50.3266 1068.2 50.0386C1066.38 49.7506 1064.71 49.3504 1063.21 48.8384C1061.74 48.2944 1060.46 47.702 1059.37 47.062L1061.29 43.3911H1089.56ZM97.9414 49.7027H70.0049L71.2676 43.3911H99.2178L97.9414 49.7027ZM112.622 49.7027H102.302L103.564 43.3911H113.881L112.622 49.7027ZM142.622 49.7027H132.302L133.527 43.3911H143.866L142.622 49.7027ZM206.941 49.7027H195.613L196.871 43.3911H208.199L206.941 49.7027ZM231.052 49.7027H219.724L220.986 43.3911H232.314L231.052 49.7027ZM288.232 49.7027H277.192L278.455 43.3911H289.491L288.232 49.7027ZM310.312 49.7027H301.001L297.104 43.3911H311.575L310.312 49.7027ZM352.635 49.7027H341.354L340.234 43.8462H327.435L324.075 49.7027H312.123L316.145 43.3911H351.138L352.635 49.7027ZM380.938 49.7027H354.442L355.705 43.3911H382.215L380.938 49.7027ZM408.778 49.7027H398.458L399.721 43.3911H410.037L408.778 49.7027ZM438.778 49.7027H428.458L429.684 43.3911H440.022L438.778 49.7027ZM524.771 49.7027H513.442L514.705 43.3911H526.033L524.771 49.7027ZM598.957 49.7027H587.63L588.887 43.3911H600.215L598.957 49.7027ZM623.067 49.7027H611.739L613.002 43.3911H624.33L623.067 49.7027ZM684.369 49.7027H673.089L671.969 43.8462H659.169L655.81 49.7027H632.283L628.72 43.3911H640.431L643.955 49.5484L647.878 43.3911H682.872L684.369 49.7027ZM732.563 49.7027H721.427L722.689 43.3911H733.825L732.563 49.7027ZM756.755 49.7027H744.131L740.21 43.3911H752.982L756.755 49.7027ZM814.692 49.7027H803.364L804.627 43.3911H815.955L814.692 49.7027ZM875.994 49.7027H864.714L863.594 43.8462H850.794L847.435 49.7027H823.908L820.345 43.3911H832.056L835.58 49.5484L839.503 43.3911H874.497L875.994 49.7027ZM894.738 49.7027H883.411L884.668 43.3911H895.996L894.738 49.7027ZM918.849 49.7027H907.521L908.783 43.3911H920.111L918.849 49.7027ZM935.342 49.7027H924.302L925.564 43.3911H936.601L935.342 49.7027ZM957.422 49.7027H948.11L944.214 43.3911H958.685L957.422 49.7027ZM1040.66 49.7027H1014.16L1015.42 43.3911H1041.93L1040.66 49.7027ZM1055.11 49.7027H1043.79L1045.05 43.3911H1056.38L1055.11 49.7027ZM1110.27 49.7027H1098.94L1100.2 43.3911H1111.53L1110.27 49.7027ZM125.822 46.6783H120.83L119.415 43.3911H128.348L125.822 46.6783ZM421.979 46.6783H416.986L415.571 43.3911H424.504L421.979 46.6783ZM102.31 24.646H86.1328L85.3818 28.3911H74.2676L76.7256 16.1021H104.037L102.31 24.646ZM123.267 28.3911H106.564L109.022 16.1021H118.238L123.267 28.3911ZM146.823 28.3911H129.917L139.598 16.1021H149.246L146.823 28.3911ZM171.139 15.3345C174.627 15.3345 177.635 15.9744 180.163 17.2544C182.723 18.5344 184.691 20.3106 186.067 22.5826C187.153 24.3094 187.818 26.2459 188.066 28.3911H176.302C176.198 28.1236 176.078 27.8673 175.939 27.6226C175.427 26.6306 174.675 25.8629 173.683 25.3189C172.723 24.7749 171.555 24.5025 170.179 24.5025C168.803 24.5025 167.571 24.775 166.483 25.3189C165.395 25.8629 164.467 26.6147 163.699 27.5747C163.49 27.836 163.297 28.1086 163.116 28.3911H151.103C151.228 28.0337 151.361 27.6809 151.507 27.3345C152.563 24.8706 154.035 22.7427 155.923 20.9507C157.811 19.1588 160.051 17.7828 162.643 16.8228C165.234 15.8308 168.067 15.3345 171.139 15.3345ZM221.726 24.8863H211.886L211.188 28.3911H199.859L200.558 24.8863H190.718L192.494 16.1021H223.502L221.726 24.8863ZM235.314 28.3911H223.986L226.444 16.1021H237.772L235.314 28.3911ZM259.545 15.3345C263.033 15.3345 266.041 15.9744 268.569 17.2544C271.129 18.5344 273.098 20.3106 274.474 22.5826C275.559 24.3094 276.224 26.2459 276.473 28.3911H264.708C264.605 28.1236 264.484 27.8673 264.346 27.6226C263.834 26.6306 263.081 25.8629 262.089 25.3189C261.129 24.7749 259.961 24.5025 258.585 24.5025C257.209 24.5025 255.978 24.775 254.89 25.3189C253.802 25.8629 252.873 26.6147 252.105 27.5747C251.896 27.836 251.703 28.1086 251.522 28.3911H239.509C239.634 28.0337 239.767 27.6809 239.913 27.3345C240.969 24.8706 242.441 22.7427 244.329 20.9507C246.217 19.1588 248.457 17.7828 251.049 16.8228C253.641 15.8308 256.473 15.3345 259.545 15.3345ZM300.812 28.3911H281.455L283.913 16.1021H293.225L300.812 28.3911ZM314.575 28.3911H303.541L305.993 16.1021H317.033L314.575 28.3911ZM347.581 28.3911H337.279L337.034 27.1079L336.299 28.3911H325.701L333.531 16.1021H344.667L347.581 28.3911ZM370.043 28.3911H358.705L361.163 16.1021H372.491L370.043 28.3911ZM419.423 28.3911H402.721L405.179 16.1021H414.395L419.423 28.3911ZM442.979 28.3911H426.073L435.754 16.1021H445.402L442.979 28.3911ZM459.564 28.3911H448.229L450.688 16.1021H462.016L459.564 28.3911ZM480.965 28.3911H469.836L472.287 16.1021H483.423L480.965 28.3911ZM501.864 15.3345C504.36 15.3345 506.68 15.5901 508.824 16.1021C511 16.582 512.872 17.2865 514.439 18.2144L510.36 26.4702C509.016 25.6383 507.544 25.0142 505.944 24.5982C504.376 24.1822 502.776 23.9742 501.144 23.9742C500.056 23.9742 499.144 24.0862 498.408 24.3101C497.672 24.5021 497.112 24.7745 496.728 25.1265C496.376 25.4783 496.2 25.8462 496.2 26.23C496.2 26.742 496.488 27.1749 497.063 27.5269C497.639 27.8469 498.408 28.1342 499.368 28.3902C499.369 28.3905 499.371 28.3908 499.372 28.3911H484.883C484.877 28.2491 484.872 28.105 484.872 27.9585C484.872 25.3986 485.544 23.1746 486.888 21.2867C488.264 19.3987 490.216 17.9425 492.744 16.9185C495.304 15.8625 498.344 15.3345 501.864 15.3345ZM529.033 28.3911H517.705L520.163 16.1021H531.491L529.033 28.3911ZM553.312 15.3345C556.544 15.3346 559.408 15.9101 561.904 17.062C564.4 18.214 566.256 19.8784 567.472 22.0542L559.372 28.3911H559.285C558.585 27.1662 557.682 26.2216 556.576 25.5581C555.456 24.8541 554.128 24.5025 552.592 24.5025C551.248 24.5025 550.016 24.7582 548.896 25.2701C547.809 25.75 546.864 26.4545 546.064 27.3824C545.784 27.6967 545.525 28.0335 545.288 28.3911H533.231C533.355 28.0344 533.488 27.6817 533.632 27.3345C534.688 24.8706 536.16 22.7427 538.048 20.9507C539.936 19.1588 542.176 17.7828 544.768 16.8228C547.36 15.8308 550.208 15.3345 553.312 15.3345ZM613.741 24.8863H603.901L603.203 28.3911H591.875L592.573 24.8863H582.733L584.51 16.1021H615.518L613.741 24.8863ZM633.531 16.1021C637.979 16.1021 641.42 17.0788 643.852 19.0308C646.283 20.9507 647.5 23.6543 647.5 27.1421C647.5 27.5664 647.482 27.9829 647.45 28.3911H636.024C636.025 28.3433 636.027 28.2952 636.027 28.2466C636.027 27.0308 635.644 26.1669 634.876 25.6548C634.14 25.1108 633.116 24.8384 631.804 24.8384H628.015L627.306 28.3911H616.002L618.46 16.1021H633.531ZM679.315 28.3911H669.014L668.769 27.1079L668.033 28.3911H657.436L665.266 16.1021H676.401L679.315 28.3911ZM708.797 15.3345C712.029 15.3346 714.893 15.9101 717.389 17.062C719.885 18.214 721.74 19.8784 722.956 22.0542L714.856 28.3911H714.77C714.069 27.1662 713.166 26.2216 712.061 25.5581C710.941 24.8541 709.612 24.5025 708.076 24.5025C706.732 24.5025 705.501 24.7582 704.381 25.2701C703.293 25.75 702.349 26.4545 701.549 27.3824C701.268 27.6967 701.01 28.0335 700.772 28.3911H688.716C688.84 28.0344 688.972 27.6817 689.116 27.3345C690.172 24.8706 691.644 22.7427 693.532 20.9507C695.42 19.1588 697.66 17.7828 700.252 16.8228C702.844 15.8308 705.693 15.3345 708.797 15.3345ZM736.905 27.9898L749.651 16.1021H762.659L749.125 28.3911H725.689L728.147 16.1021H739.283L736.905 27.9898ZM777.396 15.3345C779.891 15.3345 782.212 15.5901 784.355 16.1021C786.531 16.582 788.403 17.2865 789.971 18.2144L785.892 26.4702C784.548 25.6383 783.075 25.0142 781.476 24.5982C779.908 24.1822 778.307 23.9742 776.675 23.9742C775.587 23.9742 774.675 24.0862 773.939 24.3101C773.203 24.5021 772.643 24.7745 772.259 25.1265C771.907 25.4783 771.732 25.8462 771.731 26.23C771.731 26.742 772.019 27.1749 772.595 27.5269C773.171 27.8469 773.939 28.1342 774.899 28.3902C774.901 28.3905 774.902 28.3908 774.903 28.3911H760.414C760.408 28.2491 760.403 28.105 760.403 27.9585C760.403 25.3986 761.075 23.1746 762.419 21.2867C763.795 19.3987 765.747 17.9425 768.275 16.9185C770.835 15.8625 773.876 15.3345 777.396 15.3345ZM825.156 16.1021C829.604 16.1021 833.045 17.0788 835.477 19.0308C837.908 20.9507 839.125 23.6543 839.125 27.1421C839.125 27.5664 839.107 27.9829 839.075 28.3911H827.649C827.65 28.3433 827.652 28.2952 827.652 28.2466C827.652 27.0308 827.269 26.1669 826.501 25.6548C825.765 25.1108 824.741 24.8384 823.429 24.8384H819.64L818.931 28.3911H807.627L810.085 16.1021H825.156ZM870.94 28.3911H860.639L860.394 27.1079L859.658 28.3911H849.061L856.891 16.1021H868.026L870.94 28.3911ZM909.522 24.8863H899.683L898.984 28.3911H887.656L888.354 24.8863H878.515L880.291 16.1021H911.299L909.522 24.8863ZM923.111 28.3911H911.783L914.241 16.1021H925.569L923.111 28.3911ZM947.921 28.3911H928.564L931.022 16.1021H940.334L947.921 28.3911ZM961.685 28.3911H950.65L953.103 16.1021H964.143L961.685 28.3911ZM986.353 15.3345C989.872 15.3345 992.896 15.8944 995.424 17.0142C997.984 18.1022 1000.05 19.7347 1001.62 21.9107L993.504 28.1988C992.416 26.7908 991.264 25.8309 990.048 25.3189C988.832 24.7749 987.424 24.5025 985.824 24.5025C984.352 24.5025 983.024 24.7581 981.84 25.2701C980.656 25.75 979.632 26.4545 978.769 27.3824C978.477 27.6967 978.209 28.0335 977.965 28.3911H965.888C966.012 28.0344 966.144 27.6817 966.288 27.3345C967.344 24.8706 968.832 22.7427 970.752 20.9507C972.672 19.1587 974.944 17.7828 977.568 16.8228C980.224 15.8308 983.153 15.3345 986.353 15.3345ZM1029.76 28.3911H1018.42L1020.88 16.1021H1032.21L1029.76 28.3911ZM1059.38 28.3911H1048.05L1050.51 16.1021H1061.83L1059.38 28.3911ZM1080.54 15.3345C1083.03 15.3345 1085.35 15.5901 1087.5 16.1021C1089.67 16.582 1091.54 17.2865 1093.11 18.2144L1089.03 26.4702C1087.69 25.6383 1086.22 25.0142 1084.62 24.5982C1083.05 24.1822 1081.45 23.9742 1079.82 23.9742C1078.73 23.9742 1077.82 24.0862 1077.08 24.3101C1076.34 24.5021 1075.78 24.7745 1075.4 25.1265C1075.05 25.4783 1074.87 25.8462 1074.87 26.23C1074.87 26.742 1075.16 27.1749 1075.74 27.5269C1076.31 27.8469 1077.08 28.1342 1078.04 28.3902C1078.04 28.3905 1078.04 28.3908 1078.04 28.3911H1063.55C1063.55 28.2491 1063.54 28.105 1063.54 27.9585C1063.54 25.3986 1064.22 23.1746 1065.56 21.2867C1066.94 19.3987 1068.89 17.9425 1071.42 16.9185C1073.98 15.8625 1077.02 15.3345 1080.54 15.3345ZM1125.05 24.8863H1115.21L1114.52 28.3911H1103.19L1103.89 24.8863H1094.05L1095.82 16.1021H1126.83L1125.05 24.8863Z" fill="#FAFAFA"/>
</svg>
