<svg width="1920" height="100" viewBox="0 0 1920 100" fill="none" xmlns="http://www.w3.org/2000/svg">
<rect y="62" width="1920" height="10" fill="#FAFAFA"/>
<path d="M694.439 83L705.143 49.4H713.015L702.311 83H694.439ZM678.311 76.424L679.751 69.224H712.391L710.951 76.424H678.311ZM682.007 83L692.711 49.4H700.583L689.879 83H682.007ZM682.631 63.176L684.071 55.976H716.711L715.271 63.176H682.631Z" fill="#0D0D0D"/>
<path d="M727.657 83L729.049 76.04L743.113 65.24C744.137 64.44 744.921 63.752 745.465 63.176C746.041 62.6 746.441 62.056 746.665 61.544C746.889 61.032 747.001 60.52 747.001 60.008C747.001 59.272 746.713 58.68 746.137 58.232C745.593 57.784 744.857 57.56 743.929 57.56C742.937 57.56 741.977 57.848 741.049 58.424C740.153 58.968 739.337 59.752 738.601 60.776L731.065 56.12C732.377 53.848 734.313 52.04 736.873 50.696C739.465 49.32 742.393 48.632 745.657 48.632C748.153 48.632 750.377 49.048 752.329 49.88C754.313 50.712 755.865 51.848 756.985 53.288C758.105 54.728 758.665 56.376 758.665 58.232C758.665 59.608 758.409 60.936 757.897 62.216C757.417 63.464 756.585 64.744 755.401 66.056C754.249 67.336 752.665 68.744 750.649 70.28L740.281 78.152L738.937 74.216H756.361L754.585 83H727.657Z" fill="#0D0D0D"/>
<path d="M772.892 83.768C770.268 83.768 767.98 83.256 766.028 82.232C764.076 81.176 762.556 79.672 761.468 77.72C760.412 75.768 759.884 73.4 759.884 70.616C759.884 67.448 760.332 64.536 761.228 61.88C762.124 59.192 763.388 56.856 765.02 54.872C766.652 52.888 768.572 51.352 770.78 50.264C773.02 49.176 775.452 48.632 778.076 48.632C780.7 48.632 782.988 49.144 784.94 50.168C786.892 51.192 788.396 52.696 789.452 54.68C790.54 56.632 791.084 59 791.084 61.784C791.084 64.952 790.636 67.88 789.74 70.568C788.844 73.224 787.58 75.544 785.948 77.528C784.316 79.512 782.38 81.048 780.14 82.136C777.932 83.224 775.516 83.768 772.892 83.768ZM774.044 74.696C775.036 74.696 775.884 74.264 776.588 73.4C777.324 72.504 777.916 71.384 778.364 70.04C778.844 68.696 779.196 67.32 779.42 65.912C779.644 64.472 779.756 63.192 779.756 62.072C779.756 60.408 779.484 59.272 778.94 58.664C778.428 58.024 777.756 57.704 776.924 57.704C775.932 57.704 775.068 58.152 774.332 59.048C773.628 59.912 773.036 61.016 772.556 62.36C772.108 63.704 771.772 65.096 771.548 66.536C771.324 67.944 771.212 69.208 771.212 70.328C771.212 71.992 771.484 73.144 772.028 73.784C772.572 74.392 773.244 74.696 774.044 74.696Z" fill="#0D0D0D"/>
<path d="M789.626 83L791.018 76.04L805.082 65.24C806.106 64.44 806.89 63.752 807.434 63.176C808.01 62.6 808.41 62.056 808.634 61.544C808.858 61.032 808.97 60.52 808.97 60.008C808.97 59.272 808.682 58.68 808.106 58.232C807.562 57.784 806.826 57.56 805.898 57.56C804.906 57.56 803.946 57.848 803.018 58.424C802.122 58.968 801.306 59.752 800.57 60.776L793.034 56.12C794.346 53.848 796.282 52.04 798.842 50.696C801.434 49.32 804.362 48.632 807.626 48.632C810.122 48.632 812.346 49.048 814.298 49.88C816.282 50.712 817.834 51.848 818.954 53.288C820.074 54.728 820.634 56.376 820.634 58.232C820.634 59.608 820.378 60.936 819.866 62.216C819.386 63.464 818.554 64.744 817.37 66.056C816.218 67.336 814.634 68.744 812.618 70.28L802.25 78.152L800.906 74.216H818.33L816.554 83H789.626Z" fill="#0D0D0D"/>
<path d="M836.109 83.768C833.325 83.768 830.845 83.256 828.669 82.232C826.493 81.208 824.781 79.688 823.533 77.672C822.317 75.656 821.709 73.144 821.709 70.136C821.709 68.184 821.965 66.2 822.477 64.184C823.021 62.136 823.853 60.184 824.973 58.328C826.093 56.472 827.501 54.824 829.197 53.384C830.925 51.912 832.957 50.76 835.293 49.928C837.661 49.064 840.349 48.632 843.357 48.632C845.437 48.632 847.421 48.872 849.309 49.352C851.229 49.8 852.765 50.44 853.917 51.272L848.781 59.048C847.885 58.44 846.941 58.024 845.949 57.8C844.957 57.544 843.885 57.416 842.733 57.416C841.677 57.416 840.717 57.544 839.853 57.8C838.989 58.024 838.221 58.376 837.549 58.856C836.877 59.304 836.285 59.864 835.773 60.536C835.293 61.176 834.877 61.912 834.525 62.744C834.205 63.544 833.949 64.424 833.757 65.384C833.661 65.864 833.597 66.344 833.565 66.824C833.533 67.272 833.501 67.736 833.469 68.216L831.117 66.824C831.853 65.576 832.669 64.552 833.565 63.752C834.461 62.92 835.469 62.296 836.589 61.88C837.709 61.464 838.973 61.256 840.381 61.256C842.173 61.256 843.869 61.624 845.469 62.36C847.069 63.096 848.365 64.184 849.357 65.624C850.381 67.064 850.893 68.84 850.893 70.952C850.893 73.544 850.253 75.8 848.973 77.72C847.725 79.64 845.981 81.128 843.741 82.184C841.533 83.24 838.989 83.768 836.109 83.768ZM836.061 75.944C837.085 75.944 837.965 75.608 838.701 74.936C839.437 74.232 839.805 73.288 839.805 72.104C839.805 71.176 839.517 70.44 838.941 69.896C838.397 69.352 837.629 69.08 836.637 69.08C835.933 69.08 835.293 69.24 834.717 69.56C834.173 69.848 833.725 70.28 833.373 70.856C833.053 71.4 832.893 72.056 832.893 72.824C832.893 73.432 833.005 73.976 833.229 74.456C833.485 74.904 833.853 75.272 834.333 75.56C834.813 75.816 835.389 75.944 836.061 75.944Z" fill="#0D0D0D"/>
<path d="M849.832 90.68L856.552 77.192L857.704 83.48C855.944 83.48 854.504 82.952 853.384 81.896C852.296 80.808 851.752 79.432 851.752 77.768C851.752 75.752 852.408 74.136 853.72 72.92C855.064 71.704 856.68 71.096 858.568 71.096C860.36 71.096 861.784 71.624 862.84 72.68C863.928 73.736 864.472 75.112 864.472 76.808C864.472 77.704 864.296 78.552 863.944 79.352C863.624 80.152 863.048 81.16 862.216 82.376L856.552 90.68H849.832Z" fill="#0D0D0D"/>
<path d="M881.393 83L888.113 49.4H903.041C907.553 49.4 911.025 50.376 913.457 52.328C915.921 54.28 917.153 57.016 917.153 60.536C917.153 63.352 916.449 65.832 915.041 67.976C913.665 70.12 911.697 71.784 909.137 72.968C906.609 74.152 903.617 74.744 900.161 74.744H889.313L895.361 69.8L892.721 83H881.393ZM895.073 71.144L891.089 66.008H900.737C902.305 66.008 903.521 65.624 904.385 64.856C905.249 64.056 905.681 62.952 905.681 61.544C905.681 60.328 905.297 59.464 904.529 58.952C903.793 58.408 902.769 58.136 901.457 58.136H892.673L898.721 52.856L895.073 71.144Z" fill="#0D0D0D"/>
<path d="M916.596 83L923.316 49.4H938.388C942.836 49.4 946.276 50.376 948.708 52.328C951.14 54.248 952.356 56.952 952.356 60.44C952.356 63.256 951.652 65.72 950.244 67.832C948.868 69.944 946.9 71.592 944.34 72.776C941.812 73.96 938.82 74.552 935.364 74.552H924.516L930.564 69.8L927.924 83H916.596ZM937.14 83L930.228 70.76H941.892L948.9 83H937.14ZM930.276 71.144L926.292 66.008H935.94C937.508 66.008 938.724 65.624 939.588 64.856C940.452 64.056 940.884 62.952 940.884 61.544C940.884 60.328 940.5 59.464 939.732 58.952C938.996 58.408 937.972 58.136 936.66 58.136H927.876L933.924 52.856L930.276 71.144Z" fill="#0D0D0D"/>
<path d="M971.274 83.768C967.786 83.768 964.762 83.128 962.202 81.848C959.674 80.568 957.706 78.808 956.298 76.568C954.922 74.296 954.234 71.688 954.234 68.744C954.234 65.768 954.746 63.064 955.77 60.632C956.826 58.168 958.298 56.04 960.186 54.248C962.074 52.456 964.314 51.08 966.906 50.12C969.498 49.128 972.33 48.632 975.402 48.632C978.89 48.632 981.898 49.272 984.426 50.552C986.986 51.832 988.954 53.608 990.33 55.88C991.738 58.12 992.442 60.712 992.442 63.656C992.442 66.632 991.914 69.352 990.858 71.816C989.834 74.248 988.378 76.36 986.49 78.152C984.602 79.944 982.362 81.336 979.77 82.328C977.178 83.288 974.346 83.768 971.274 83.768ZM972.234 74.6C973.642 74.6 974.874 74.328 975.93 73.784C977.018 73.24 977.946 72.488 978.714 71.528C979.482 70.568 980.058 69.48 980.442 68.264C980.826 67.016 981.018 65.704 981.018 64.328C981.018 63.016 980.746 61.88 980.202 60.92C979.69 59.928 978.938 59.16 977.946 58.616C976.986 58.072 975.818 57.8 974.442 57.8C973.066 57.8 971.834 58.072 970.746 58.616C969.658 59.16 968.73 59.912 967.962 60.872C967.194 61.832 966.618 62.936 966.234 64.184C965.85 65.4 965.658 66.696 965.658 68.072C965.658 69.352 965.914 70.488 966.426 71.48C966.97 72.472 967.722 73.24 968.682 73.784C969.674 74.328 970.858 74.6 972.234 74.6Z" fill="#0D0D0D"/>
<path d="M1001.66 83.768C998.842 83.768 996.41 83.336 994.362 82.472C992.346 81.608 990.714 80.312 989.466 78.584L996.714 71.72C997.45 72.776 998.234 73.576 999.066 74.12C999.93 74.632 1000.86 74.888 1001.85 74.888C1002.94 74.888 1003.82 74.568 1004.49 73.928C1005.19 73.288 1005.66 72.376 1005.88 71.192L1008.52 57.944H997.098L998.826 49.4H1021.43L1017.21 70.52C1016.57 73.752 1015.58 76.344 1014.23 78.296C1012.89 80.216 1011.16 81.608 1009.05 82.472C1006.97 83.336 1004.51 83.768 1001.66 83.768Z" fill="#0D0D0D"/>
<path d="M1034.5 61.88H1049.48L1047.84 70.04H1032.87L1034.5 61.88ZM1032.72 74.456H1049.57L1047.84 83H1019.91L1026.63 49.4H1053.94L1052.21 57.944H1036.04L1032.72 74.456Z" fill="#0D0D0D"/>
<path d="M1071.31 83.768C1067.85 83.768 1064.83 83.144 1062.24 81.896C1059.65 80.616 1057.63 78.856 1056.19 76.616C1054.78 74.344 1054.08 71.72 1054.08 68.744C1054.08 65.8 1054.59 63.096 1055.61 60.632C1056.67 58.168 1058.14 56.04 1060.03 54.248C1061.92 52.456 1064.16 51.08 1066.75 50.12C1069.34 49.128 1072.19 48.632 1075.29 48.632C1078.53 48.632 1081.39 49.208 1083.89 50.36C1086.38 51.512 1088.24 53.176 1089.45 55.352L1081.29 61.736C1080.59 60.488 1079.68 59.528 1078.56 58.856C1077.44 58.152 1076.11 57.8 1074.57 57.8C1073.23 57.8 1072 58.056 1070.88 58.568C1069.79 59.048 1068.85 59.752 1068.05 60.68C1067.25 61.576 1066.62 62.648 1066.17 63.896C1065.73 65.144 1065.5 66.52 1065.5 68.024C1065.5 69.336 1065.79 70.488 1066.37 71.48C1066.94 72.472 1067.74 73.24 1068.77 73.784C1069.82 74.328 1071.04 74.6 1072.41 74.6C1073.73 74.6 1075.01 74.296 1076.25 73.688C1077.53 73.08 1078.75 72.088 1079.9 70.712L1086.57 77.096C1084.53 79.592 1082.24 81.336 1079.71 82.328C1077.21 83.288 1074.41 83.768 1071.31 83.768Z" fill="#0D0D0D"/>
<path d="M1094.99 83L1099.93 58.184H1090.09L1091.87 49.4H1122.87L1121.1 58.184H1111.26L1106.31 83H1094.99Z" fill="#0D0D0D"/>
<path d="M1133.49 83L1140.21 49.4H1149.52L1162.14 69.848H1158.21L1162.29 49.4H1173.33L1166.61 83H1157.29L1144.67 62.552H1148.61L1144.53 83H1133.49Z" fill="#0D0D0D"/>
<path d="M1186.66 61.88H1201.63L1200 70.04H1185.02L1186.66 61.88ZM1184.88 74.456H1201.73L1200 83H1172.06L1178.78 49.4H1206.1L1204.37 57.944H1188.19L1184.88 74.456Z" fill="#0D0D0D"/>
<path d="M1215.93 76.088L1217.61 63.368L1232.59 49.4H1245.59L1228.36 65.048L1220.68 71.672L1215.93 76.088ZM1204.36 83L1211.08 49.4H1222.22L1215.5 83H1204.36ZM1227.07 83L1218.95 69.944L1227.35 62.36L1239.69 83H1227.07Z" fill="#0D0D0D"/>
<path d="M861.998 72C862.301 72.1952 862.581 72.4213 862.84 72.6797C863.928 73.7356 864.472 75.1118 864.472 76.8076C864.472 77.7035 864.296 78.5517 863.944 79.3516C863.624 80.1516 863.048 81.16 862.216 82.376L856.552 90.6797H849.832L853.969 82.376C853.765 82.2299 853.569 82.0706 853.384 81.8955C852.296 80.8076 851.752 79.4314 851.752 77.7676C851.752 75.7519 852.408 74.1358 853.72 72.9199C854.118 72.5593 854.542 72.2537 854.988 72H861.998ZM789.208 72C788.366 74.0663 787.28 75.9094 785.948 77.5283C784.316 79.5121 782.38 81.0478 780.141 82.1357C777.933 83.2237 775.516 83.7675 772.893 83.7676C770.269 83.7676 767.98 83.2563 766.028 82.2324C764.076 81.1764 762.557 79.6717 761.469 77.7197C760.592 76.0997 760.081 74.1932 759.932 72H771.33C771.458 72.792 771.691 73.3869 772.028 73.7842C772.572 74.392 773.244 74.6962 774.044 74.6963C775.036 74.6963 775.884 74.2641 776.588 73.4004C776.931 72.9828 777.241 72.5149 777.521 72H789.208ZM850.855 72C850.704 74.1567 850.077 76.0632 848.973 77.7197C847.725 79.6396 845.981 81.1276 843.741 82.1836C841.533 83.2396 838.989 83.7675 836.109 83.7676C833.325 83.7676 830.845 83.2564 828.669 82.2324C826.493 81.2084 824.781 79.6879 823.533 77.6719C822.578 76.0876 822 74.1969 821.795 72H832.962C832.916 72.2586 832.893 72.5335 832.893 72.8242C832.893 73.4321 833.006 73.9761 833.229 74.4561C833.485 74.9039 833.853 75.2716 834.333 75.5596C834.813 75.8156 835.39 75.9443 836.062 75.9443C837.085 75.9442 837.965 75.6074 838.701 74.9355C839.437 74.2316 839.805 73.2874 839.805 72.1035C839.805 72.0687 839.802 72.0343 839.801 72H850.855ZM990.777 72C989.758 74.3544 988.329 76.4058 986.489 78.1523C984.601 79.9442 982.361 81.3362 979.77 82.3281C977.178 83.2881 974.345 83.7676 971.273 83.7676C967.786 83.7676 964.762 83.1275 962.202 81.8477C959.674 80.5677 957.706 78.8082 956.298 76.5684C955.453 75.1726 954.868 73.6494 954.542 72H966.748C967.255 72.7435 967.897 73.3397 968.682 73.7842C969.674 74.3281 970.858 74.5996 972.233 74.5996C973.641 74.5996 974.874 74.3282 975.93 73.7842C976.832 73.3332 977.622 72.737 978.304 72H990.777ZM1016.88 72C1016.25 74.5526 1015.37 76.6516 1014.23 78.2959C1012.89 80.2159 1011.16 81.6077 1009.05 82.4717C1006.97 83.3356 1004.51 83.7676 1001.66 83.7676C998.842 83.7676 996.41 83.3356 994.362 82.4717C992.346 81.6077 990.714 80.312 989.466 78.584L996.418 72H996.917C997.594 72.918 998.31 73.6255 999.066 74.1201C999.93 74.6319 1000.86 74.8876 1001.85 74.8877C1002.94 74.8877 1003.82 74.5677 1004.49 73.9277C1005.02 73.4419 1005.42 72.7992 1005.68 72H1016.88ZM1086.57 77.0957C1084.53 79.5917 1082.24 81.3361 1079.71 82.3281C1077.21 83.288 1074.41 83.7676 1071.31 83.7676C1067.85 83.7676 1064.83 83.1435 1062.24 81.8955C1059.65 80.6156 1057.63 78.856 1056.19 76.6162C1055.32 75.212 1054.72 73.6731 1054.39 72H1066.71C1067.24 72.7435 1067.93 73.3397 1068.77 73.7842C1069.82 74.3281 1071.04 74.5996 1072.41 74.5996C1073.73 74.5996 1075.01 74.2965 1076.25 73.6885C1077.09 73.2906 1077.9 72.7268 1078.68 72H1081.25L1086.57 77.0957ZM710.951 76.4238H704.406L702.312 83H694.439L696.534 76.4238H691.974L689.879 83H682.007L684.102 76.4238H678.312L679.196 72H711.836L710.951 76.4238ZM745.466 74.2158H756.361L754.585 83H727.657L729.049 76.04L734.311 72H748.385L745.466 74.2158ZM807.435 74.2158H818.33L816.554 83H789.626L791.018 76.04L796.279 72H810.354L807.435 74.2158ZM910.93 72C910.368 72.3521 909.771 72.6746 909.137 72.9678C906.609 74.1517 903.617 74.7441 900.161 74.7441H894.372L892.721 83H881.393L883.593 72H910.93ZM945.819 72C945.35 72.2773 944.857 72.537 944.34 72.7764C944.001 72.9349 943.654 73.0814 943.299 73.2188L948.9 83H937.14L932.369 74.5518H929.614L927.924 83H916.596L918.796 72H945.819ZM1032.72 74.4561H1049.57L1047.84 83H1019.91L1022.11 72H1033.22L1032.72 74.4561ZM1106.31 83H1094.99L1097.18 72H1108.5L1106.31 83ZM1144.53 83H1133.49L1135.69 72H1146.72L1144.53 83ZM1166.61 83H1157.29L1150.5 72H1168.81L1166.61 83ZM1184.88 74.4561H1201.73L1200 83H1172.06L1174.26 72H1185.37L1184.88 74.4561ZM1239.69 83H1227.07L1220.27 72.0566L1217.1 75.002L1215.5 83H1204.36L1206.56 72H1233.12L1239.69 83ZM698.488 55.9756H703.049L705.144 49.4004H713.016L710.921 55.9756H716.711L715.507 62H682.866L684.071 55.9756H690.616L692.711 49.4004H700.583L698.488 55.9756ZM745.657 48.6318C748.153 48.6318 750.377 49.0479 752.329 49.8799C754.313 50.7119 755.865 51.8481 756.985 53.2881C758.105 54.728 758.665 56.3765 758.665 58.2324C758.665 59.5314 758.434 60.7865 757.978 62H746.423C746.518 61.845 746.6 61.6934 746.665 61.5439C746.889 61.0319 747.001 60.5198 747.001 60.0078C747.001 59.2719 746.713 58.6804 746.137 58.2324C745.593 57.7844 744.857 57.5596 743.929 57.5596C742.937 57.5597 741.977 57.8479 741.049 58.4238C740.153 58.9678 739.338 59.7524 738.602 60.7764L731.065 56.1201C732.377 53.8482 734.313 52.0403 736.873 50.6963C739.465 49.3203 742.393 48.6318 745.657 48.6318ZM778.076 48.6318C780.7 48.6318 782.988 49.144 784.94 50.168C786.892 51.1919 788.396 52.6959 789.452 54.6797C790.54 56.6317 791.084 59.0002 791.084 61.7842C791.084 61.8562 791.082 61.9282 791.082 62H779.754C779.746 60.3753 779.476 59.2633 778.94 58.6641C778.428 58.0241 777.756 57.7041 776.924 57.7041C775.932 57.7042 775.068 58.152 774.332 59.0479C773.692 59.8333 773.146 60.8179 772.691 62H761.189C761.203 61.9601 761.215 61.9197 761.229 61.8799C762.125 59.192 763.389 56.856 765.021 54.8721C766.652 52.8881 768.572 51.3517 770.78 50.2637C773.02 49.1757 775.452 48.6319 778.076 48.6318ZM807.626 48.6318C810.122 48.6318 812.346 49.0479 814.298 49.8799C816.282 50.7119 817.834 51.8481 818.954 53.2881C820.074 54.728 820.634 56.3765 820.634 58.2324C820.634 59.5314 820.403 60.7865 819.946 62H808.392C808.487 61.845 808.568 61.6934 808.634 61.5439C808.858 61.0319 808.97 60.5198 808.97 60.0078C808.97 59.2719 808.681 58.6804 808.105 58.2324C807.561 57.7844 806.825 57.5596 805.897 57.5596C804.906 57.5597 803.945 57.8479 803.018 58.4238C802.122 58.9678 801.306 59.7524 800.57 60.7764L793.034 56.1201C794.346 53.8482 796.282 52.0403 798.842 50.6963C801.434 49.3203 804.362 48.6318 807.626 48.6318ZM843.357 48.6318C845.437 48.6319 847.421 48.8717 849.309 49.3516C851.229 49.7996 852.765 50.4405 853.917 51.2725L848.781 59.0479C847.885 58.4399 846.941 58.0238 845.949 57.7998C844.957 57.5438 843.885 57.416 842.733 57.416C841.678 57.416 840.717 57.5439 839.854 57.7998C838.99 58.0238 838.221 58.3764 837.549 58.8564C836.877 59.3044 836.285 59.8643 835.773 60.5361C835.442 60.9782 835.142 61.4664 834.871 62H823.182C823.662 60.7371 824.258 59.5128 824.973 58.3281C826.093 56.4721 827.501 54.8238 829.197 53.3838C830.925 51.9119 832.957 50.7597 835.293 49.9277C837.661 49.0637 840.349 48.6318 843.357 48.6318ZM840.381 61.2559C841.852 61.2559 843.258 61.5041 844.6 62H836.289C836.388 61.959 836.488 61.9175 836.589 61.8799C837.709 61.4639 838.973 61.2559 840.381 61.2559ZM903.041 49.4004C907.553 49.4004 911.025 50.3761 913.457 52.3281C915.921 54.2801 917.153 57.0162 917.153 60.5361C917.153 61.0346 917.13 61.5226 917.086 62H905.664C905.675 61.8517 905.681 61.6997 905.681 61.5439C905.681 60.3282 905.297 59.4642 904.529 58.9521C903.793 58.4082 902.769 58.1358 901.457 58.1357H897.668L896.897 62H885.593L888.113 49.4004H903.041ZM938.388 49.4004C942.836 49.4004 946.276 50.3761 948.708 52.3281C951.14 54.2481 952.356 56.9525 952.356 60.4404C952.356 60.9729 952.331 61.4927 952.28 62H940.867C940.878 61.8517 940.884 61.6997 940.884 61.5439C940.884 60.3282 940.5 59.4642 939.732 58.9521C938.996 58.4082 937.972 58.1358 936.66 58.1357H932.871L932.101 62H920.796L923.316 49.4004H938.388ZM975.401 48.6318C978.889 48.6318 981.898 49.2718 984.426 50.5518C986.986 51.8318 988.954 53.6079 990.33 55.8799C991.468 57.69 992.145 59.7302 992.363 62H980.673C980.549 61.6185 980.394 61.2578 980.202 60.9199C979.69 59.9279 978.937 59.1602 977.945 58.6162C976.985 58.0723 975.817 57.7998 974.441 57.7998C973.066 57.7998 971.834 58.0723 970.746 58.6162C969.658 59.1602 968.73 59.9121 967.962 60.8721C967.677 61.2282 967.419 61.6042 967.187 62H955.258C955.411 61.5349 955.581 61.0786 955.77 60.6318C956.826 58.1679 958.298 56.04 960.186 54.248C962.073 52.4561 964.313 51.0801 966.905 50.1201C969.497 49.1281 972.329 48.6319 975.401 48.6318ZM1018.91 62H1007.71L1008.52 57.9443H997.098L998.826 49.4004H1021.43L1018.91 62ZM1052.21 57.9443H1036.04L1035.25 61.8799H1049.48L1049.45 62H1024.11L1026.63 49.4004H1053.94L1052.21 57.9443ZM1075.29 48.6318C1078.52 48.6318 1081.39 49.2084 1083.89 50.3604C1086.38 51.5123 1088.24 53.1759 1089.45 55.3516L1081.29 61.7363C1080.59 60.4885 1079.68 59.5284 1078.56 58.8564C1077.44 58.1524 1076.11 57.7998 1074.57 57.7998C1073.23 57.7998 1072 58.0564 1070.88 58.5684C1069.79 59.0483 1068.85 59.752 1068.05 60.6797C1067.69 61.0835 1067.36 61.5247 1067.07 62H1055.11C1055.26 61.5361 1055.43 61.0798 1055.61 60.6318C1056.67 58.1679 1058.14 56.04 1060.03 54.248C1061.92 52.4561 1064.16 51.0801 1066.75 50.1201C1069.34 49.1282 1072.19 48.6319 1075.29 48.6318ZM1121.1 58.1836H1111.26L1110.5 62H1099.17L1099.93 58.1836H1090.09L1091.87 49.4004H1122.87L1121.1 58.1836ZM1157.3 62H1137.69L1140.21 49.4004H1149.52L1157.3 62ZM1170.81 62H1159.77L1162.29 49.4004H1173.33L1170.81 62ZM1204.37 57.9443H1188.19L1187.4 61.8799H1201.63L1201.61 62H1176.26L1178.79 49.4004H1206.1L1204.37 57.9443ZM1219.84 61.2871L1232.59 49.4004H1245.59L1231.72 62H1208.56L1211.08 49.4004H1222.22L1219.84 61.2871Z" fill="#FAFAFA"/>
<rect y="28.3906" width="1920" height="15" fill="#FAFAFA"/>
<path d="M448.597 28.5824H463.573L461.941 36.7424H446.965L448.597 28.5824ZM446.821 41.1584H463.669L461.941 49.7024H434.005L440.725 16.1024H468.037L466.309 24.6464H450.133L446.821 41.1584Z" fill="black"/>
<path d="M466.302 49.7024L473.022 16.1024H482.238L491.214 38.0384H486.318L503.598 16.1024H513.246L506.622 49.7024H496.302L499.806 31.6544L501.438 31.5584L489.822 46.6784H484.83L478.302 31.5104L480.222 31.6544L476.622 49.7024H466.302Z" fill="black"/>
<path d="M531.011 50.4704C527.523 50.4704 524.499 49.8304 521.939 48.5504C519.411 47.2704 517.443 45.5104 516.035 43.2704C514.659 40.9984 513.971 38.3904 513.971 35.4464C513.971 32.4704 514.483 29.7664 515.507 27.3344C516.563 24.8704 518.035 22.7424 519.923 20.9504C521.811 19.1584 524.051 17.7824 526.643 16.8224C529.235 15.8304 532.067 15.3344 535.139 15.3344C538.627 15.3344 541.635 15.9744 544.163 17.2544C546.723 18.5344 548.691 20.3104 550.067 22.5824C551.475 24.8224 552.179 27.4144 552.179 30.3584C552.179 33.3344 551.651 36.0544 550.595 38.5184C549.571 40.9504 548.115 43.0624 546.227 44.8544C544.339 46.6464 542.099 48.0384 539.507 49.0304C536.915 49.9904 534.083 50.4704 531.011 50.4704ZM531.971 41.3024C533.379 41.3024 534.611 41.0304 535.667 40.4864C536.755 39.9424 537.683 39.1904 538.451 38.2304C539.219 37.2704 539.795 36.1824 540.179 34.9664C540.563 33.7184 540.755 32.4064 540.755 31.0304C540.755 29.7184 540.483 28.5824 539.939 27.6224C539.427 26.6304 538.675 25.8624 537.683 25.3184C536.723 24.7744 535.555 24.5024 534.179 24.5024C532.803 24.5024 531.571 24.7744 530.483 25.3184C529.395 25.8624 528.467 26.6144 527.699 27.5744C526.931 28.5344 526.355 29.6384 525.971 30.8864C525.587 32.1024 525.395 33.3984 525.395 34.7744C525.395 36.0544 525.651 37.1904 526.163 38.1824C526.707 39.1744 527.459 39.9424 528.419 40.4864C529.411 41.0304 530.595 41.3024 531.971 41.3024Z" fill="black"/>
<path d="M559.613 49.7024L564.557 24.8864H554.717L556.493 16.1024H587.501L585.725 24.8864H575.885L570.941 49.7024H559.613Z" fill="black"/>
<path d="M583.724 49.7024L590.444 16.1024H601.772L595.052 49.7024H583.724Z" fill="black"/>
<path d="M619.417 50.4704C615.929 50.4704 612.905 49.8304 610.345 48.5504C607.817 47.2704 605.849 45.5104 604.441 43.2704C603.065 40.9984 602.377 38.3904 602.377 35.4464C602.377 32.4704 602.889 29.7664 603.913 27.3344C604.969 24.8704 606.441 22.7424 608.329 20.9504C610.217 19.1584 612.457 17.7824 615.049 16.8224C617.641 15.8304 620.473 15.3344 623.545 15.3344C627.033 15.3344 630.041 15.9744 632.569 17.2544C635.129 18.5344 637.097 20.3104 638.473 22.5824C639.881 24.8224 640.585 27.4144 640.585 30.3584C640.585 33.3344 640.057 36.0544 639.001 38.5184C637.977 40.9504 636.521 43.0624 634.633 44.8544C632.745 46.6464 630.505 48.0384 627.913 49.0304C625.321 49.9904 622.489 50.4704 619.417 50.4704ZM620.377 41.3024C621.785 41.3024 623.017 41.0304 624.073 40.4864C625.161 39.9424 626.089 39.1904 626.857 38.2304C627.625 37.2704 628.201 36.1824 628.585 34.9664C628.969 33.7184 629.161 32.4064 629.161 31.0304C629.161 29.7184 628.889 28.5824 628.345 27.6224C627.833 26.6304 627.081 25.8624 626.089 25.3184C625.129 24.7744 623.961 24.5024 622.585 24.5024C621.209 24.5024 619.977 24.7744 618.889 25.3184C617.801 25.8624 616.873 26.6144 616.105 27.5744C615.337 28.5344 614.761 29.6384 614.377 30.8864C613.993 32.1024 613.801 33.3984 613.801 34.7744C613.801 36.0544 614.057 37.1904 614.569 38.1824C615.113 39.1744 615.865 39.9424 616.825 40.4864C617.817 41.0304 619.001 41.3024 620.377 41.3024Z" fill="black"/>
<path d="M641.192 49.7024L647.912 16.1024H657.224L669.848 36.5504H665.912L669.992 16.1024H681.032L674.312 49.7024H665L652.376 29.2544H656.312L652.232 49.7024H641.192Z" fill="black"/>
<path d="M676.123 49.7024L697.531 16.1024H708.667L716.635 49.7024H705.355L699.931 21.3344H704.346L688.075 49.7024H676.123ZM686.011 43.8464L690.523 35.6864H705.979L707.227 43.8464H686.011Z" fill="black"/>
<path d="M718.442 49.7024L725.162 16.1024H736.49L731.546 40.9184H746.714L744.938 49.7024H718.442Z" fill="black"/>
<path d="M762.458 49.7024L769.178 16.1024H778.394L787.37 38.0384H782.474L799.754 16.1024H809.402L802.778 49.7024H792.458L795.962 31.6544L797.594 31.5584L785.978 46.6784H780.986L774.458 31.5104L776.378 31.6544L772.778 49.7024H762.458Z" fill="black"/>
<path d="M825.199 50.4704C821.711 50.4704 818.799 49.8144 816.463 48.5024C814.127 47.1584 812.463 45.3024 811.471 42.9344C810.511 40.5344 810.351 37.7504 810.991 34.5824L814.687 16.1024H826.015L822.367 34.3904C822.143 35.5744 822.063 36.5984 822.127 37.4624C822.191 38.3264 822.399 39.0464 822.751 39.6224C823.135 40.1984 823.647 40.6304 824.287 40.9184C824.927 41.1744 825.695 41.3024 826.591 41.3024C827.679 41.3024 828.607 41.0784 829.375 40.6304C830.175 40.1824 830.831 39.4464 831.343 38.4224C831.887 37.3984 832.319 36.0544 832.639 34.3904L836.287 16.1024H847.423L843.631 35.0624C842.639 40.0864 840.607 43.9104 837.535 46.5344C834.463 49.1584 830.351 50.4704 825.199 50.4704Z" fill="black"/>
<path d="M859.24 50.4704C857.255 50.4704 855.352 50.3264 853.527 50.0384C851.703 49.7504 850.04 49.3504 848.536 48.8384C847.064 48.2944 845.784 47.7024 844.695 47.0624L849.064 38.7104C850.311 39.4144 851.56 40.0064 852.807 40.4864C854.087 40.9344 855.352 41.2704 856.6 41.4944C857.88 41.7184 859.144 41.8304 860.392 41.8304C861.384 41.8304 862.199 41.7504 862.84 41.5904C863.512 41.4304 864.008 41.2064 864.328 40.9184C864.68 40.5984 864.855 40.2464 864.855 39.8624C864.855 39.3504 864.568 38.9344 863.992 38.6144C863.416 38.2944 862.647 38.0064 861.688 37.7504C860.759 37.4944 859.72 37.2384 858.568 36.9824C857.448 36.6944 856.312 36.3424 855.16 35.9264C854.008 35.4784 852.952 34.9184 851.992 34.2464C851.064 33.5744 850.311 32.7264 849.736 31.7024C849.16 30.6784 848.872 29.4304 848.872 27.9584C848.872 25.3984 849.544 23.1744 850.888 21.2864C852.264 19.3984 854.215 17.9424 856.743 16.9184C859.303 15.8624 862.344 15.3344 865.863 15.3344C868.359 15.3344 870.68 15.5904 872.824 16.1024C875 16.5824 876.872 17.2864 878.44 18.2144L874.359 26.4704C873.016 25.6384 871.544 25.0144 869.944 24.5984C868.376 24.1824 866.776 23.9744 865.144 23.9744C864.056 23.9744 863.143 24.0864 862.408 24.3104C861.672 24.5024 861.112 24.7744 860.728 25.1264C860.376 25.4784 860.199 25.8464 860.199 26.2304C860.199 26.7424 860.488 27.1744 861.064 27.5264C861.639 27.8464 862.408 28.1344 863.368 28.3904C864.328 28.6144 865.368 28.8704 866.488 29.1584C867.64 29.4144 868.776 29.7504 869.896 30.1664C871.048 30.5504 872.104 31.0784 873.064 31.7504C874.023 32.3904 874.792 33.2224 875.368 34.2464C875.944 35.2384 876.232 36.4704 876.232 37.9424C876.232 40.4384 875.544 42.6304 874.168 44.5184C872.792 46.3744 870.824 47.8304 868.264 48.8864C865.736 49.9424 862.728 50.4704 859.24 50.4704Z" fill="black"/>
<path d="M877.442 49.7024L884.162 16.1024H895.49L888.77 49.7024H877.442Z" fill="black"/>
<path d="M913.328 50.4704C909.872 50.4704 906.848 49.8464 904.256 48.5984C901.664 47.3184 899.648 45.5584 898.208 43.3184C896.8 41.0464 896.096 38.4224 896.096 35.4464C896.096 32.5024 896.608 29.7984 897.632 27.3344C898.688 24.8704 900.16 22.7424 902.048 20.9504C903.936 19.1584 906.176 17.7824 908.768 16.8224C911.36 15.8304 914.208 15.3344 917.312 15.3344C920.544 15.3344 923.408 15.9104 925.904 17.0624C928.4 18.2144 930.256 19.8784 931.472 22.0544L923.312 28.4384C922.608 27.1904 921.696 26.2304 920.576 25.5584C919.456 24.8544 918.128 24.5024 916.592 24.5024C915.248 24.5024 914.016 24.7584 912.896 25.2704C911.808 25.7504 910.864 26.4544 910.064 27.3824C909.264 28.2784 908.64 29.3504 908.192 30.5984C907.744 31.8464 907.52 33.2224 907.52 34.7264C907.52 36.0384 907.808 37.1904 908.384 38.1824C908.96 39.1744 909.76 39.9424 910.784 40.4864C911.84 41.0304 913.056 41.3024 914.432 41.3024C915.744 41.3024 917.024 40.9984 918.272 40.3904C919.552 39.7824 920.768 38.7904 921.92 37.4144L928.592 43.7984C926.544 46.2944 924.256 48.0384 921.728 49.0304C919.232 49.9904 916.432 50.4704 913.328 50.4704Z" fill="black"/>
<path d="M951.629 49.7024L956.573 24.8864H946.733L948.509 16.1024H979.517L977.741 24.8864H967.901L962.957 49.7024H951.629Z" fill="black"/>
<path d="M975.739 49.7024L982.459 16.1024H997.531C1001.98 16.1024 1005.42 17.0784 1007.85 19.0304C1010.28 20.9504 1011.5 23.6544 1011.5 27.1424C1011.5 29.9584 1010.8 32.4224 1009.39 34.5344C1008.01 36.6464 1006.04 38.2944 1003.48 39.4784C1000.96 40.6624 997.963 41.2544 994.507 41.2544H983.659L989.707 36.5024L987.067 49.7024H975.739ZM996.283 49.7024L989.371 37.4624H1001.04L1008.04 49.7024H996.283ZM989.419 37.8464L985.435 32.7104H995.083C996.651 32.7104 997.867 32.3264 998.731 31.5584C999.595 30.7584 1000.03 29.6544 1000.03 28.2464C1000.03 27.0304 999.643 26.1664 998.875 25.6544C998.139 25.1104 997.115 24.8384 995.803 24.8384H987.019L993.067 19.5584L989.419 37.8464Z" fill="black"/>
<path d="M1007.86 49.7024L1029.26 16.1024H1040.4L1048.37 49.7024H1037.09L1031.66 21.3344H1036.08L1019.81 49.7024H1007.86ZM1017.74 43.8464L1022.26 35.6864H1037.71L1038.96 43.8464H1017.74Z" fill="black"/>
<path d="M1068.81 50.4704C1065.36 50.4704 1062.33 49.8464 1059.74 48.5984C1057.15 47.3184 1055.13 45.5584 1053.69 43.3184C1052.28 41.0464 1051.58 38.4224 1051.58 35.4464C1051.58 32.5024 1052.09 29.7984 1053.12 27.3344C1054.17 24.8704 1055.64 22.7424 1057.53 20.9504C1059.42 19.1584 1061.66 17.7824 1064.25 16.8224C1066.84 15.8304 1069.69 15.3344 1072.8 15.3344C1076.03 15.3344 1078.89 15.9104 1081.39 17.0624C1083.88 18.2144 1085.74 19.8784 1086.96 22.0544L1078.8 28.4384C1078.09 27.1904 1077.18 26.2304 1076.06 25.5584C1074.94 24.8544 1073.61 24.5024 1072.08 24.5024C1070.73 24.5024 1069.5 24.7584 1068.38 25.2704C1067.29 25.7504 1066.35 26.4544 1065.55 27.3824C1064.75 28.2784 1064.12 29.3504 1063.68 30.5984C1063.23 31.8464 1063 33.2224 1063 34.7264C1063 36.0384 1063.29 37.1904 1063.87 38.1824C1064.44 39.1744 1065.24 39.9424 1066.27 40.4864C1067.32 41.0304 1068.54 41.3024 1069.92 41.3024C1071.23 41.3024 1072.51 40.9984 1073.76 40.3904C1075.04 39.7824 1076.25 38.7904 1077.4 37.4144L1084.08 43.7984C1082.03 46.2944 1079.74 48.0384 1077.21 49.0304C1074.72 49.9904 1071.92 50.4704 1068.81 50.4704Z" fill="black"/>
<path d="M1096.99 42.7904L1098.67 30.0704L1113.65 16.1024H1126.66L1109.43 31.7504L1101.75 38.3744L1096.99 42.7904ZM1085.43 49.7024L1092.15 16.1024H1103.28L1096.56 49.7024H1085.43ZM1108.13 49.7024L1100.02 36.6464L1108.42 29.0624L1120.75 49.7024H1108.13Z" fill="black"/>
<path d="M1134.77 50.4704C1132.79 50.4704 1130.88 50.3264 1129.06 50.0384C1127.23 49.7504 1125.57 49.3504 1124.07 48.8384C1122.59 48.2944 1121.31 47.7024 1120.23 47.0624L1124.59 38.7104C1125.84 39.4144 1127.09 40.0064 1128.34 40.4864C1129.62 40.9344 1130.88 41.2704 1132.13 41.4944C1133.41 41.7184 1134.67 41.8304 1135.92 41.8304C1136.91 41.8304 1137.73 41.7504 1138.37 41.5904C1139.04 41.4304 1139.54 41.2064 1139.86 40.9184C1140.21 40.5984 1140.39 40.2464 1140.39 39.8624C1140.39 39.3504 1140.1 38.9344 1139.52 38.6144C1138.95 38.2944 1138.18 38.0064 1137.22 37.7504C1136.29 37.4944 1135.25 37.2384 1134.1 36.9824C1132.98 36.6944 1131.84 36.3424 1130.69 35.9264C1129.54 35.4784 1128.48 34.9184 1127.52 34.2464C1126.59 33.5744 1125.84 32.7264 1125.27 31.7024C1124.69 30.6784 1124.4 29.4304 1124.4 27.9584C1124.4 25.3984 1125.07 23.1744 1126.42 21.2864C1127.79 19.3984 1129.75 17.9424 1132.27 16.9184C1134.83 15.8624 1137.87 15.3344 1141.39 15.3344C1143.89 15.3344 1146.21 15.5904 1148.35 16.1024C1150.53 16.5824 1152.4 17.2864 1153.97 18.2144L1149.89 26.4704C1148.55 25.6384 1147.07 25.0144 1145.47 24.5984C1143.91 24.1824 1142.31 23.9744 1140.67 23.9744C1139.59 23.9744 1138.67 24.0864 1137.94 24.3104C1137.2 24.5024 1136.64 24.7744 1136.26 25.1264C1135.91 25.4784 1135.73 25.8464 1135.73 26.2304C1135.73 26.7424 1136.02 27.1744 1136.59 27.5264C1137.17 27.8464 1137.94 28.1344 1138.9 28.3904C1139.86 28.6144 1140.9 28.8704 1142.02 29.1584C1143.17 29.4144 1144.31 29.7504 1145.43 30.1664C1146.58 30.5504 1147.63 31.0784 1148.59 31.7504C1149.55 32.3904 1150.32 33.2224 1150.9 34.2464C1151.47 35.2384 1151.76 36.4704 1151.76 37.9424C1151.76 40.4384 1151.07 42.6304 1149.7 44.5184C1148.32 46.3744 1146.35 47.8304 1143.79 48.8864C1141.27 49.9424 1138.26 50.4704 1134.77 50.4704Z" fill="black"/>
<path d="M1167.36 49.7024L1174.08 16.1024H1189.16C1193.6 16.1024 1197.04 17.0784 1199.48 19.0304C1201.91 20.9504 1203.12 23.6544 1203.12 27.1424C1203.12 29.9584 1202.42 32.4224 1201.01 34.5344C1199.64 36.6464 1197.67 38.2944 1195.11 39.4784C1192.58 40.6624 1189.59 41.2544 1186.13 41.2544H1175.28L1181.33 36.5024L1178.69 49.7024H1167.36ZM1187.91 49.7024L1181 37.4624H1192.66L1199.67 49.7024H1187.91ZM1181.04 37.8464L1177.06 32.7104H1186.71C1188.28 32.7104 1189.49 32.3264 1190.36 31.5584C1191.22 30.7584 1191.65 29.6544 1191.65 28.2464C1191.65 27.0304 1191.27 26.1664 1190.5 25.6544C1189.76 25.1104 1188.74 24.8384 1187.43 24.8384H1178.64L1184.69 19.5584L1181.04 37.8464Z" fill="black"/>
<path d="M1199.48 49.7024L1220.89 16.1024H1232.03L1239.99 49.7024H1228.71L1223.29 21.3344H1227.71L1211.43 49.7024H1199.48ZM1209.37 43.8464L1213.88 35.6864H1229.34L1230.59 43.8464H1209.37Z" fill="black"/>
<path d="M1247.41 49.7024L1252.35 24.8864H1242.51L1244.29 16.1024H1275.3L1273.52 24.8864H1263.68L1258.74 49.7024H1247.41Z" fill="black"/>
<path d="M1271.52 49.7024L1278.24 16.1024H1289.57L1282.85 49.7024H1271.52Z" fill="black"/>
<path d="M1288.3 49.7024L1295.02 16.1024H1304.33L1316.96 36.5504H1313.02L1317.1 16.1024H1328.14L1321.42 49.7024H1312.11L1299.49 29.2544H1303.42L1299.34 49.7024H1288.3Z" fill="black"/>
<path d="M1345.98 50.4704C1342.53 50.4704 1339.5 49.8464 1336.91 48.5984C1334.32 47.3184 1332.3 45.5584 1330.86 43.3184C1329.46 41.0464 1328.75 38.4224 1328.75 35.4464C1328.75 32.5024 1329.26 29.7984 1330.29 27.3344C1331.34 24.8704 1332.83 22.7424 1334.75 20.9504C1336.67 19.1584 1338.94 17.7824 1341.57 16.8224C1344.22 15.8304 1347.15 15.3344 1350.35 15.3344C1353.87 15.3344 1356.9 15.8944 1359.42 17.0144C1361.98 18.1024 1364.05 19.7344 1365.62 21.9104L1357.5 28.1984C1356.42 26.7904 1355.26 25.8304 1354.05 25.3184C1352.83 24.7744 1351.42 24.5024 1349.82 24.5024C1348.35 24.5024 1347.02 24.7584 1345.84 25.2704C1344.66 25.7504 1343.63 26.4544 1342.77 27.3824C1341.94 28.2784 1341.3 29.3504 1340.85 30.5984C1340.4 31.8464 1340.18 33.2224 1340.18 34.7264C1340.18 36.0384 1340.46 37.1904 1341.04 38.1824C1341.65 39.1744 1342.5 39.9424 1343.58 40.4864C1344.7 41.0304 1346.03 41.3024 1347.57 41.3024C1348.85 41.3024 1350.13 41.0944 1351.41 40.6784C1352.69 40.2304 1354 39.4784 1355.34 38.4224L1359.62 46.4864C1357.86 47.7664 1355.81 48.7584 1353.47 49.4624C1351.14 50.1344 1348.64 50.4704 1345.98 50.4704ZM1350.11 44.7584L1352.66 31.9904H1362.5L1359.62 46.4864L1350.11 44.7584Z" fill="black"/>
<path d="M1378.16 49.7024L1384.88 16.1024H1396.21L1391.27 40.9184H1406.43L1404.66 49.7024H1378.16Z" fill="black"/>
<path d="M1407.79 49.7024L1414.51 16.1024H1425.83L1419.11 49.7024H1407.79Z" fill="black"/>
<path d="M1437.91 50.4704C1435.93 50.4704 1434.02 50.3264 1432.2 50.0384C1430.38 49.7504 1428.71 49.3504 1427.21 48.8384C1425.74 48.2944 1424.46 47.7024 1423.37 47.0624L1427.74 38.7104C1428.98 39.4144 1430.23 40.0064 1431.48 40.4864C1432.76 40.9344 1434.02 41.2704 1435.27 41.4944C1436.55 41.7184 1437.82 41.8304 1439.06 41.8304C1440.06 41.8304 1440.87 41.7504 1441.51 41.5904C1442.18 41.4304 1442.68 41.2064 1443 40.9184C1443.35 40.5984 1443.53 40.2464 1443.53 39.8624C1443.53 39.3504 1443.24 38.9344 1442.66 38.6144C1442.09 38.2944 1441.32 38.0064 1440.36 37.7504C1439.43 37.4944 1438.39 37.2384 1437.24 36.9824C1436.12 36.6944 1434.98 36.3424 1433.83 35.9264C1432.68 35.4784 1431.62 34.9184 1430.66 34.2464C1429.74 33.5744 1428.98 32.7264 1428.41 31.7024C1427.83 30.6784 1427.54 29.4304 1427.54 27.9584C1427.54 25.3984 1428.22 23.1744 1429.56 21.2864C1430.94 19.3984 1432.89 17.9424 1435.42 16.9184C1437.98 15.8624 1441.02 15.3344 1444.54 15.3344C1447.03 15.3344 1449.35 15.5904 1451.5 16.1024C1453.67 16.5824 1455.54 17.2864 1457.11 18.2144L1453.03 26.4704C1451.69 25.6384 1450.22 25.0144 1448.62 24.5984C1447.05 24.1824 1445.45 23.9744 1443.82 23.9744C1442.73 23.9744 1441.82 24.0864 1441.08 24.3104C1440.34 24.5024 1439.78 24.7744 1439.4 25.1264C1439.05 25.4784 1438.87 25.8464 1438.87 26.2304C1438.87 26.7424 1439.16 27.1744 1439.74 27.5264C1440.31 27.8464 1441.08 28.1344 1442.04 28.3904C1443 28.6144 1444.04 28.8704 1445.16 29.1584C1446.31 29.4144 1447.45 29.7504 1448.57 30.1664C1449.72 30.5504 1450.78 31.0784 1451.74 31.7504C1452.7 32.3904 1453.46 33.2224 1454.04 34.2464C1454.62 35.2384 1454.9 36.4704 1454.9 37.9424C1454.9 40.4384 1454.22 42.6304 1452.84 44.5184C1451.46 46.3744 1449.5 47.8304 1446.94 48.8864C1444.41 49.9424 1441.4 50.4704 1437.91 50.4704Z" fill="black"/>
<path d="M1462.94 49.7024L1467.89 24.8864H1458.05L1459.82 16.1024H1490.83L1489.05 24.8864H1479.21L1474.27 49.7024H1462.94Z" fill="black"/>
<path d="M547.611 43.3911C547.179 43.9003 546.717 44.3881 546.227 44.854C544.339 46.646 542.099 48.0388 539.507 49.0308C536.915 49.9907 534.083 50.4702 531.011 50.4702C527.523 50.4702 524.499 49.8302 521.939 48.5503C519.457 47.2936 517.517 45.5732 516.114 43.3911H547.611ZM636.018 43.3911C635.585 43.9003 635.124 44.3881 634.633 44.854C632.745 46.646 630.505 48.0388 627.913 49.0308C625.321 49.9907 622.489 50.4702 619.417 50.4702C615.929 50.4702 612.906 49.8302 610.346 48.5503C607.864 47.2936 605.923 45.5732 604.521 43.3911H636.018ZM840.343 43.3911C839.531 44.5817 838.595 45.6297 837.535 46.5347C834.463 49.1586 830.351 50.4702 825.199 50.4702C821.711 50.4702 818.799 49.8145 816.463 48.5025C814.279 47.2461 812.683 45.5422 811.674 43.3911H840.343ZM874.887 43.3911C874.672 43.778 874.433 44.1539 874.168 44.5181C872.792 46.3741 870.824 47.8303 868.264 48.8863C865.736 49.9422 862.728 50.4702 859.24 50.4702C857.256 50.4702 855.352 50.3266 853.528 50.0386C851.704 49.7506 850.04 49.3504 848.536 48.8384C847.064 48.2944 845.784 47.702 844.696 47.062L846.616 43.3911H874.887ZM928.592 43.7984C926.544 46.2943 924.256 48.0388 921.728 49.0308C919.232 49.9906 916.432 50.4702 913.328 50.4702C909.872 50.4702 906.848 49.8462 904.256 48.5982C901.692 47.3321 899.693 45.5963 898.256 43.3911H928.166L928.592 43.7984ZM1084.08 43.7984C1082.03 46.2942 1079.74 48.0388 1077.21 49.0308C1074.72 49.9908 1071.92 50.4702 1068.81 50.4702C1065.36 50.4702 1062.33 49.8462 1059.74 48.5982C1057.18 47.3321 1055.18 45.5963 1053.74 43.3911H1083.65L1084.08 43.7984ZM1150.42 43.3911C1150.2 43.778 1149.96 44.1539 1149.7 44.5181C1148.32 46.3741 1146.35 47.8303 1143.79 48.8863C1141.27 49.9422 1138.26 50.4702 1134.77 50.4702C1132.79 50.4702 1130.88 50.3266 1129.06 50.0386C1127.24 49.7506 1125.57 49.3504 1124.07 48.8384C1122.6 48.2944 1121.32 47.702 1120.23 47.062L1122.15 43.3911H1150.42ZM1359.62 46.4868L1359.28 46.7232C1357.6 47.8894 1355.66 48.8024 1353.47 49.4624C1351.14 50.1344 1348.64 50.4702 1345.98 50.4702C1342.53 50.4702 1339.5 49.8462 1336.91 48.5982C1334.35 47.3321 1332.35 45.5963 1330.91 43.3911H1360.23L1359.62 46.4868ZM1453.56 43.3911C1453.34 43.778 1453.11 44.1539 1452.84 44.5181C1451.46 46.3741 1449.5 47.8303 1446.94 48.8863C1444.41 49.9422 1441.4 50.4702 1437.91 50.4702C1435.93 50.4702 1434.02 50.3266 1432.2 50.0386C1430.38 49.7506 1428.71 49.3504 1427.21 48.8384C1425.74 48.2944 1424.46 47.702 1423.37 47.062L1425.29 43.3911H1453.56ZM461.941 49.7027H434.005L435.268 43.3911H463.218L461.941 49.7027ZM476.622 49.7027H466.302L467.564 43.3911H477.881L476.622 49.7027ZM506.622 49.7027H496.302L497.527 43.3911H507.866L506.622 49.7027ZM570.941 49.7027H559.613L560.871 43.3911H572.199L570.941 49.7027ZM595.052 49.7027H583.724L584.986 43.3911H596.314L595.052 49.7027ZM652.232 49.7027H641.192L642.455 43.3911H653.491L652.232 49.7027ZM674.312 49.7027H665.001L661.104 43.3911H675.575L674.312 49.7027ZM716.635 49.7027H705.354L704.234 43.8462H691.435L688.075 49.7027H676.123L680.145 43.3911H715.138L716.635 49.7027ZM744.938 49.7027H718.442L719.705 43.3911H746.215L744.938 49.7027ZM772.778 49.7027H762.458L763.721 43.3911H774.037L772.778 49.7027ZM802.778 49.7027H792.458L793.684 43.3911H804.022L802.778 49.7027ZM888.771 49.7027H877.442L878.705 43.3911H890.033L888.771 49.7027ZM962.957 49.7027H951.63L952.887 43.3911H964.215L962.957 49.7027ZM987.067 49.7027H975.739L977.002 43.3911H988.33L987.067 49.7027ZM1048.37 49.7027H1037.09L1035.97 43.8462H1023.17L1019.81 49.7027H996.283L992.72 43.3911H1004.43L1007.96 49.5484L1011.88 43.3911H1046.87L1048.37 49.7027ZM1096.56 49.7027H1085.43L1086.69 43.3911H1097.83L1096.56 49.7027ZM1120.75 49.7027H1108.13L1104.21 43.3911H1116.98L1120.75 49.7027ZM1178.69 49.7027H1167.36L1168.63 43.3911H1179.96L1178.69 49.7027ZM1239.99 49.7027H1228.71L1227.59 43.8462H1214.79L1211.43 49.7027H1187.91L1184.34 43.3911H1196.06L1199.58 49.5484L1203.5 43.3911H1238.5L1239.99 49.7027ZM1258.74 49.7027H1247.41L1248.67 43.3911H1260L1258.74 49.7027ZM1282.85 49.7027H1271.52L1272.78 43.3911H1284.11L1282.85 49.7027ZM1299.34 49.7027H1288.3L1289.56 43.3911H1300.6L1299.34 49.7027ZM1321.42 49.7027H1312.11L1308.21 43.3911H1322.68L1321.42 49.7027ZM1404.66 49.7027H1378.16L1379.42 43.3911H1405.93L1404.66 49.7027ZM1419.11 49.7027H1407.79L1409.05 43.3911H1420.38L1419.11 49.7027ZM1474.27 49.7027H1462.94L1464.2 43.3911H1475.53L1474.27 49.7027ZM489.822 46.6783H484.83L483.415 43.3911H492.348L489.822 46.6783ZM785.979 46.6783H780.986L779.571 43.3911H788.504L785.979 46.6783ZM466.31 24.646H450.133L449.382 28.3911H438.268L440.726 16.1021H468.037L466.31 24.646ZM487.267 28.3911H470.564L473.022 16.1021H482.238L487.267 28.3911ZM510.823 28.3911H493.917L503.598 16.1021H513.246L510.823 28.3911ZM535.139 15.3345C538.627 15.3345 541.635 15.9744 544.163 17.2544C546.723 18.5344 548.691 20.3106 550.067 22.5826C551.153 24.3094 551.818 26.2459 552.066 28.3911H540.302C540.198 28.1236 540.078 27.8673 539.939 27.6226C539.427 26.6306 538.675 25.8629 537.683 25.3189C536.723 24.7749 535.555 24.5025 534.179 24.5025C532.803 24.5025 531.571 24.775 530.483 25.3189C529.395 25.8629 528.467 26.6147 527.699 27.5747C527.49 27.836 527.297 28.1086 527.116 28.3911H515.103C515.228 28.0337 515.361 27.6809 515.507 27.3345C516.563 24.8706 518.035 22.7427 519.923 20.9507C521.811 19.1588 524.051 17.7828 526.643 16.8228C529.234 15.8308 532.067 15.3345 535.139 15.3345ZM585.726 24.8863H575.886L575.188 28.3911H563.859L564.558 24.8863H554.718L556.494 16.1021H587.502L585.726 24.8863ZM599.314 28.3911H587.986L590.444 16.1021H601.772L599.314 28.3911ZM623.545 15.3345C627.033 15.3345 630.041 15.9744 632.569 17.2544C635.129 18.5344 637.098 20.3106 638.474 22.5826C639.559 24.3094 640.224 26.2459 640.473 28.3911H628.708C628.605 28.1236 628.484 27.8673 628.346 27.6226C627.834 26.6306 627.081 25.8629 626.089 25.3189C625.129 24.7749 623.961 24.5025 622.585 24.5025C621.209 24.5025 619.978 24.775 618.89 25.3189C617.802 25.8629 616.873 26.6147 616.105 27.5747C615.896 27.836 615.703 28.1086 615.522 28.3911H603.509C603.634 28.0337 603.767 27.6809 603.913 27.3345C604.969 24.8706 606.441 22.7427 608.329 20.9507C610.217 19.1588 612.457 17.7828 615.049 16.8228C617.641 15.8308 620.473 15.3345 623.545 15.3345ZM664.812 28.3911H645.455L647.913 16.1021H657.225L664.812 28.3911ZM678.575 28.3911H667.541L669.993 16.1021H681.033L678.575 28.3911ZM711.581 28.3911H701.279L701.034 27.1079L700.299 28.3911H689.701L697.531 16.1021H708.667L711.581 28.3911ZM734.043 28.3911H722.705L725.163 16.1021H736.491L734.043 28.3911ZM783.423 28.3911H766.721L769.179 16.1021H778.395L783.423 28.3911ZM806.979 28.3911H790.073L799.754 16.1021H809.402L806.979 28.3911ZM823.564 28.3911H812.229L814.688 16.1021H826.016L823.564 28.3911ZM844.965 28.3911H833.836L836.287 16.1021H847.423L844.965 28.3911ZM865.864 15.3345C868.36 15.3345 870.68 15.5901 872.824 16.1021C875 16.582 876.872 17.2865 878.439 18.2144L874.36 26.4702C873.016 25.6383 871.544 25.0142 869.944 24.5982C868.376 24.1822 866.776 23.9742 865.144 23.9742C864.056 23.9742 863.144 24.0862 862.408 24.3101C861.672 24.5021 861.112 24.7745 860.728 25.1265C860.376 25.4783 860.2 25.8462 860.2 26.23C860.2 26.742 860.488 27.1749 861.063 27.5269C861.639 27.8469 862.408 28.1342 863.368 28.3902C863.369 28.3905 863.371 28.3908 863.372 28.3911H848.883C848.877 28.2491 848.872 28.105 848.872 27.9585C848.872 25.3986 849.544 23.1746 850.888 21.2867C852.264 19.3987 854.216 17.9425 856.744 16.9185C859.304 15.8625 862.344 15.3345 865.864 15.3345ZM893.033 28.3911H881.705L884.163 16.1021H895.491L893.033 28.3911ZM917.312 15.3345C920.544 15.3346 923.408 15.9101 925.904 17.062C928.4 18.214 930.256 19.8784 931.472 22.0542L923.372 28.3911H923.285C922.585 27.1662 921.682 26.2216 920.576 25.5581C919.456 24.8541 918.128 24.5025 916.592 24.5025C915.248 24.5025 914.016 24.7582 912.896 25.2701C911.809 25.75 910.864 26.4545 910.064 27.3824C909.784 27.6967 909.525 28.0335 909.288 28.3911H897.231C897.355 28.0344 897.488 27.6817 897.632 27.3345C898.688 24.8706 900.16 22.7427 902.048 20.9507C903.936 19.1588 906.176 17.7828 908.768 16.8228C911.36 15.8308 914.208 15.3345 917.312 15.3345ZM977.741 24.8863H967.901L967.203 28.3911H955.875L956.573 24.8863H946.733L948.51 16.1021H979.518L977.741 24.8863ZM997.531 16.1021C1001.98 16.1021 1005.42 17.0788 1007.85 19.0308C1010.28 20.9507 1011.5 23.6543 1011.5 27.1421C1011.5 27.5664 1011.48 27.9829 1011.45 28.3911H1000.02C1000.03 28.3433 1000.03 28.2952 1000.03 28.2466C1000.03 27.0308 999.644 26.1669 998.876 25.6548C998.14 25.1108 997.116 24.8384 995.804 24.8384H992.015L991.306 28.3911H980.002L982.46 16.1021H997.531ZM1043.32 28.3911H1033.01L1032.77 27.1079L1032.03 28.3911H1021.44L1029.27 16.1021H1040.4L1043.32 28.3911ZM1072.8 15.3345C1076.03 15.3346 1078.89 15.9101 1081.39 17.062C1083.88 18.214 1085.74 19.8784 1086.96 22.0542L1078.86 28.3911H1078.77C1078.07 27.1662 1077.17 26.2216 1076.06 25.5581C1074.94 24.8541 1073.61 24.5025 1072.08 24.5025C1070.73 24.5025 1069.5 24.7582 1068.38 25.2701C1067.29 25.75 1066.35 26.4545 1065.55 27.3824C1065.27 27.6967 1065.01 28.0335 1064.77 28.3911H1052.72C1052.84 28.0344 1052.97 27.6817 1053.12 27.3345C1054.17 24.8706 1055.64 22.7427 1057.53 20.9507C1059.42 19.1588 1061.66 17.7828 1064.25 16.8228C1066.84 15.8308 1069.69 15.3345 1072.8 15.3345ZM1100.91 27.9898L1113.65 16.1021H1126.66L1113.12 28.3911H1089.69L1092.15 16.1021H1103.28L1100.91 27.9898ZM1141.4 15.3345C1143.89 15.3345 1146.21 15.5901 1148.36 16.1021C1150.53 16.582 1152.4 17.2865 1153.97 18.2144L1149.89 26.4702C1148.55 25.6383 1147.08 25.0142 1145.48 24.5982C1143.91 24.1822 1142.31 23.9742 1140.67 23.9742C1139.59 23.9742 1138.68 24.0862 1137.94 24.3101C1137.2 24.5021 1136.64 24.7745 1136.26 25.1265C1135.91 25.4783 1135.73 25.8462 1135.73 26.23C1135.73 26.742 1136.02 27.1749 1136.59 27.5269C1137.17 27.8469 1137.94 28.1342 1138.9 28.3902C1138.9 28.3905 1138.9 28.3908 1138.9 28.3911H1124.41C1124.41 28.2491 1124.4 28.105 1124.4 27.9585C1124.4 25.3986 1125.08 23.1746 1126.42 21.2867C1127.79 19.3987 1129.75 17.9425 1132.28 16.9185C1134.84 15.8625 1137.88 15.3345 1141.4 15.3345ZM1189.16 16.1021C1193.6 16.1021 1197.04 17.0788 1199.48 19.0308C1201.91 20.9507 1203.12 23.6543 1203.12 27.1421C1203.12 27.5664 1203.11 27.9829 1203.08 28.3911H1191.65C1191.65 28.3433 1191.65 28.2952 1191.65 28.2466C1191.65 27.0308 1191.27 26.1669 1190.5 25.6548C1189.77 25.1108 1188.74 24.8384 1187.43 24.8384H1183.64L1182.93 28.3911H1171.63L1174.08 16.1021H1189.16ZM1234.94 28.3911H1224.64L1224.39 27.1079L1223.66 28.3911H1213.06L1220.89 16.1021H1232.03L1234.94 28.3911ZM1273.52 24.8863H1263.68L1262.98 28.3911H1251.66L1252.35 24.8863H1242.51L1244.29 16.1021H1275.3L1273.52 24.8863ZM1287.11 28.3911H1275.78L1278.24 16.1021H1289.57L1287.11 28.3911ZM1311.92 28.3911H1292.56L1295.02 16.1021H1304.33L1311.92 28.3911ZM1325.68 28.3911H1314.65L1317.1 16.1021H1328.14L1325.68 28.3911ZM1350.35 15.3345C1353.87 15.3345 1356.9 15.8944 1359.42 17.0142C1361.98 18.1022 1364.05 19.7347 1365.62 21.9107L1357.5 28.1988C1356.42 26.7908 1355.26 25.8309 1354.05 25.3189C1352.83 24.7749 1351.42 24.5025 1349.82 24.5025C1348.35 24.5025 1347.02 24.7581 1345.84 25.2701C1344.66 25.75 1343.63 26.4545 1342.77 27.3824C1342.48 27.6967 1342.21 28.0335 1341.96 28.3911H1329.89C1330.01 28.0344 1330.14 27.6817 1330.29 27.3345C1331.34 24.8706 1332.83 22.7427 1334.75 20.9507C1336.67 19.1587 1338.94 17.7828 1341.57 16.8228C1344.22 15.8308 1347.15 15.3345 1350.35 15.3345ZM1393.76 28.3911H1382.42L1384.88 16.1021H1396.21L1393.76 28.3911ZM1423.38 28.3911H1412.05L1414.51 16.1021H1425.83L1423.38 28.3911ZM1444.54 15.3345C1447.03 15.3345 1449.35 15.5901 1451.5 16.1021C1453.67 16.582 1455.54 17.2865 1457.11 18.2144L1453.03 26.4702C1451.69 25.6383 1450.22 25.0142 1448.62 24.5982C1447.05 24.1822 1445.45 23.9742 1443.82 23.9742C1442.73 23.9742 1441.82 24.0862 1441.08 24.3101C1440.34 24.5021 1439.78 24.7745 1439.4 25.1265C1439.05 25.4783 1438.87 25.8462 1438.87 26.23C1438.87 26.742 1439.16 27.1749 1439.74 27.5269C1440.31 27.8469 1441.08 28.1342 1442.04 28.3902C1442.04 28.3905 1442.04 28.3908 1442.04 28.3911H1427.55C1427.55 28.2491 1427.54 28.105 1427.54 27.9585C1427.54 25.3986 1428.22 23.1746 1429.56 21.2867C1430.94 19.3987 1432.89 17.9425 1435.42 16.9185C1437.98 15.8625 1441.02 15.3345 1444.54 15.3345ZM1489.05 24.8863H1479.21L1478.52 28.3911H1467.19L1467.89 24.8863H1458.05L1459.82 16.1021H1490.83L1489.05 24.8863Z" fill="#FAFAFA"/>
</svg>
