<?xml version="1.0" encoding="utf-8"?>
<!-- Generator: Adobe Illustrator 27.2.0, SVG Export Plug-In . SVG Version: 6.00 Build 0)  -->
<svg version="1.1" fill="#FAFAFA" id="Слой_1" xmlns="http://www.w3.org/2000/svg" xmlns:xlink="http://www.w3.org/1999/xlink" x="0px" y="0px"
	 viewBox="0 0 448 448" style="enable-background:new 0 0 448 448;" xml:space="preserve">
<path d="M31.5,31.5C0,63,0,113.7,0,215v18c0,101.3,0,152,31.5,183.5S113.7,448,215,448h18c101.3,0,152,0,183.5-31.5
	S448,334.3,448,233v-18c0-101.3,0-152-31.5-183.5S334.3,0,233,0h-18C113.7,0,63,0,31.5,31.5z M75.6,136.3h51.1
	c1.7,85.5,39.4,121.7,69.3,129.1V136.3h48.2V210c29.5-3.2,60.4-36.8,70.9-73.7h48.2c-4,19.1-11.8,37.3-23.1,53.3
	c-11.3,16-25.7,29.5-42.5,39.6c18.7,9.3,35.2,22.4,48.4,38.6c13.3,16.1,22.9,34.8,28.4,54.9h-53.1c-4.8-17.4-14.8-33.1-28.5-44.9
	c-13.8-11.9-30.7-19.4-48.7-21.7v66.6h-5.8C136.3,322.7,78,252.7,75.6,136.3z"/>
</svg>
